<svg width="258" height="84" viewBox="0 0 258 84" fill="none" xmlns="http://www.w3.org/2000/svg">
<rect width="258" height="84" rx="20" fill="#009EE3"/>
<path d="M44.4339 60.8929C30.0847 60.8929 18.4735 49.2604 18.4735 34.9325C18.4735 34.303 18.9097 33.7636 19.5144 33.6241L25.3331 32.2815C25.6399 32.2107 25.9618 32.2499 26.2426 32.3924C26.5234 32.5349 26.7452 32.7715 26.8692 33.0609L29.5547 39.327C29.6694 39.5947 29.694 39.8924 29.6248 40.1753C29.5555 40.4582 29.3962 40.7108 29.1708 40.8953L25.7794 43.6701C27.835 48.0515 31.4064 51.5744 35.6963 53.587L38.4712 50.1955C38.6556 49.9701 38.9083 49.8108 39.1911 49.7415C39.474 49.6723 39.7717 49.6969 40.0394 49.8116L46.3056 52.4972C46.595 52.6212 46.8316 52.843 46.974 53.1238C47.1165 53.4046 47.1558 53.7265 47.085 54.0333L45.7424 59.852C45.6741 60.1479 45.5075 60.4119 45.2699 60.6009C45.0322 60.79 44.7376 60.8929 44.4339 60.8929ZM29.9769 29.8859C31.738 30.3398 33.1169 31.7187 33.5707 33.4798C33.7222 34.0677 33.2862 34.6436 32.6792 34.6564L32.0328 34.6701C31.6097 34.6791 31.2365 34.4034 31.1119 33.999C30.9916 33.6094 30.778 33.2552 30.4898 32.9669C30.2015 32.6786 29.8472 32.465 29.4577 32.3447C29.0532 32.2202 28.7775 31.8469 28.7865 31.4238L28.8003 30.7774C28.8131 30.1704 29.3889 29.7344 29.9769 29.8859ZM30.01 19.778C37.2879 20.4113 43.0459 26.1745 43.6786 33.4466C43.7257 33.988 43.3038 34.4562 42.7605 34.4677L42.1333 34.481C41.6399 34.4915 41.2214 34.1191 41.1771 33.6276C40.6329 27.5937 35.8579 22.8233 29.829 22.2795C29.3375 22.2352 28.965 21.8167 28.9755 21.3233L28.9889 20.696C29.0004 20.1527 29.4686 19.7308 30.01 19.778ZM29.9531 24.8002C34.5035 25.3677 38.0879 28.9457 38.6563 33.5035C38.7254 34.0576 38.3002 34.5502 37.742 34.562L37.1124 34.5752C36.6362 34.5852 36.2233 34.2383 36.1613 33.7661C35.7178 30.3907 33.0656 27.7388 29.6905 27.2953C29.2182 27.2332 28.8715 26.8204 28.8814 26.3442L28.8946 25.7146C28.9063 25.1563 29.3989 24.7311 29.9531 24.8002Z" fill="white"/>
<path d="M100.637 36.1591C98.8126 36.1591 97.2046 35.8071 95.8126 35.1031C94.4366 34.3991 93.3726 33.3911 92.6206 32.0791C91.8686 30.7511 91.4926 29.1991 91.4926 27.4231C91.4926 25.6471 91.8686 24.1031 92.6206 22.7911C93.3726 21.4631 94.4366 20.4471 95.8126 19.7431C97.2046 19.0231 98.8126 18.6631 100.637 18.6631C101.837 18.6631 102.909 18.7831 103.853 19.0231C104.797 19.2631 105.669 19.6391 106.469 20.1511V24.1831C105.765 23.6231 104.965 23.2151 104.069 22.9591C103.189 22.7031 102.173 22.5751 101.021 22.5751C99.3726 22.5751 98.1006 23.0071 97.2046 23.8711C96.3086 24.7191 95.8606 25.9031 95.8606 27.4231C95.8606 28.9431 96.3086 30.1351 97.2046 30.9991C98.1166 31.8631 99.3886 32.2951 101.021 32.2951C102.173 32.2951 103.205 32.1591 104.117 31.8871C105.029 31.6151 105.877 31.1831 106.661 30.5911V34.5991C105.141 35.6391 103.133 36.1591 100.637 36.1591ZM112.324 36.1591C110.884 36.1591 109.716 35.8151 108.82 35.1271C107.94 34.4231 107.5 33.4471 107.5 32.1991C107.5 30.9031 107.924 29.9111 108.772 29.2231C109.636 28.5191 110.868 28.1671 112.468 28.1671C113.092 28.1671 113.716 28.2391 114.34 28.3831C114.964 28.5111 115.5 28.6871 115.948 28.9111V28.6711C115.948 27.4391 114.94 26.8231 112.924 26.8231C111.516 26.8231 110.228 27.0951 109.06 27.6391V24.7351C109.572 24.4951 110.244 24.3031 111.076 24.1591C111.908 23.9991 112.772 23.9191 113.668 23.9191C115.812 23.9191 117.428 24.3511 118.516 25.2151C119.62 26.0631 120.172 27.2551 120.172 28.7911V35.7991H116.212V34.8151C115.78 35.2311 115.236 35.5591 114.58 35.7991C113.924 36.0391 113.172 36.1591 112.324 36.1591ZM113.572 33.5671C114.068 33.5671 114.532 33.4711 114.964 33.2791C115.396 33.0711 115.724 32.8071 115.948 32.4871V31.4791C115.26 31.0151 114.476 30.7831 113.596 30.7831C113.036 30.7831 112.604 30.9031 112.3 31.1431C111.996 31.3831 111.844 31.7351 111.844 32.1991C111.844 32.6311 111.988 32.9671 112.276 33.2071C112.58 33.4471 113.012 33.5671 113.572 33.5671ZM122.207 18.0631H126.431V35.7991H122.207V18.0631ZM128.582 18.0631H132.806V35.7991H128.582V18.0631ZM151.777 36.1591C149.953 36.1591 148.345 35.8071 146.953 35.1031C145.577 34.3991 144.513 33.3911 143.761 32.0791C143.009 30.7511 142.633 29.1991 142.633 27.4231C142.633 25.6471 143.009 24.1031 143.761 22.7911C144.513 21.4631 145.577 20.4471 146.953 19.7431C148.345 19.0231 149.953 18.6631 151.777 18.6631C152.977 18.6631 154.049 18.7831 154.993 19.0231C155.937 19.2631 156.809 19.6391 157.609 20.1511V24.1831C156.905 23.6231 156.105 23.2151 155.209 22.9591C154.329 22.7031 153.313 22.5751 152.161 22.5751C150.513 22.5751 149.241 23.0071 148.345 23.8711C147.449 24.7191 147.001 25.9031 147.001 27.4231C147.001 28.9431 147.449 30.1351 148.345 30.9991C149.257 31.8631 150.529 32.2951 152.161 32.2951C153.313 32.2951 154.345 32.1591 155.257 31.8871C156.169 31.6151 157.017 31.1831 157.801 30.5911V34.5991C156.281 35.6391 154.273 36.1591 151.777 36.1591ZM166.241 36.1591C163.985 36.1591 162.209 35.6311 160.913 34.5751C159.633 33.5191 158.993 32.0231 158.993 30.0871C158.993 28.1831 159.561 26.6791 160.697 25.5751C161.849 24.4711 163.505 23.9191 165.665 23.9191C167.041 23.9191 168.217 24.1831 169.193 24.7111C170.185 25.2231 170.929 25.9351 171.425 26.8471C171.937 27.7431 172.193 28.7591 172.193 29.8951V31.4551H163.001C163.161 32.0951 163.561 32.5591 164.201 32.8471C164.841 33.1351 165.713 33.2791 166.817 33.2791C167.569 33.2791 168.337 33.2151 169.121 33.0871C169.921 32.9591 170.609 32.7831 171.185 32.5591V35.3431C170.593 35.5831 169.849 35.7751 168.953 35.9191C168.073 36.0791 167.169 36.1591 166.241 36.1591ZM168.209 28.8151C168.145 28.1911 167.889 27.7031 167.441 27.3511C166.993 26.9991 166.377 26.8231 165.593 26.8231C164.825 26.8231 164.217 27.0071 163.769 27.3751C163.321 27.7271 163.065 28.2071 163.001 28.8151H168.209ZM173.863 24.2791H177.943V25.5511C178.439 25.0071 179.039 24.5991 179.743 24.3271C180.447 24.0551 181.183 23.9191 181.951 23.9191C183.567 23.9191 184.759 24.3431 185.527 25.1911C186.311 26.0231 186.703 27.1591 186.703 28.5991V35.7991H182.479V29.1511C182.479 27.8551 181.887 27.2071 180.703 27.2071C180.159 27.2071 179.663 27.3351 179.215 27.5911C178.767 27.8311 178.391 28.2071 178.087 28.7191V35.7991H173.863V24.2791ZM193.738 36.1591C192.314 36.1591 191.234 35.7671 190.498 34.9831C189.778 34.1831 189.418 33.0951 189.418 31.7191V27.2071H187.786V24.2791H189.418V20.8231H193.642V24.2791H196.282V27.2071H193.642V31.1431C193.642 31.7671 193.754 32.2151 193.978 32.4871C194.218 32.7591 194.634 32.8951 195.226 32.8951C195.754 32.8951 196.282 32.7511 196.81 32.4631V35.6071C196.394 35.7991 195.946 35.9351 195.466 36.0151C195.002 36.1111 194.426 36.1591 193.738 36.1591ZM204.772 36.1591C202.516 36.1591 200.74 35.6311 199.444 34.5751C198.164 33.5191 197.524 32.0231 197.524 30.0871C197.524 28.1831 198.092 26.6791 199.228 25.5751C200.38 24.4711 202.036 23.9191 204.196 23.9191C205.572 23.9191 206.748 24.1831 207.724 24.7111C208.716 25.2231 209.46 25.9351 209.956 26.8471C210.468 27.7431 210.724 28.7591 210.724 29.8951V31.4551H201.532C201.692 32.0951 202.092 32.5591 202.732 32.8471C203.372 33.1351 204.244 33.2791 205.348 33.2791C206.1 33.2791 206.868 33.2151 207.652 33.0871C208.452 32.9591 209.14 32.7831 209.716 32.5591V35.3431C209.124 35.5831 208.38 35.7751 207.484 35.9191C206.604 36.0791 205.7 36.1591 204.772 36.1591ZM206.74 28.8151C206.676 28.1911 206.42 27.7031 205.972 27.3511C205.524 26.9991 204.908 26.8231 204.124 26.8231C203.356 26.8231 202.748 27.0071 202.3 27.3751C201.852 27.7271 201.596 28.2071 201.532 28.8151H206.74ZM212.394 24.2791H216.474V25.7191C216.922 25.2071 217.554 24.8151 218.37 24.5431C219.186 24.2551 220.09 24.1111 221.082 24.1111V27.3511C220.026 27.3511 219.09 27.5031 218.274 27.8071C217.474 28.1111 216.922 28.5671 216.618 29.1751V35.7991H212.394V24.2791ZM75.3143 64.1591C73.7623 64.1591 72.4023 63.8151 71.2343 63.1271C70.0663 62.4231 69.1623 61.4151 68.5223 60.1031C67.8983 58.7911 67.5863 57.2311 67.5863 55.4231C67.5863 53.6151 67.8983 52.0551 68.5223 50.7431C69.1463 49.4311 70.0343 48.4231 71.1863 47.7191C72.3543 47.0151 73.7303 46.6631 75.3143 46.6631C76.8983 46.6631 78.2663 47.0151 79.4183 47.7191C80.5863 48.4231 81.4823 49.4311 82.1063 50.7431C82.7303 52.0551 83.0423 53.6151 83.0423 55.4231C83.0423 57.2311 82.7223 58.7911 82.0823 60.1031C81.4583 61.4151 80.5623 62.4231 79.3943 63.1271C78.2263 63.8151 76.8663 64.1591 75.3143 64.1591ZM75.3143 60.1751C76.3863 60.1751 77.2183 59.7591 77.8103 58.9271C78.4023 58.0951 78.6983 56.9431 78.6983 55.4711C78.6983 53.9831 78.4023 52.8151 77.8103 51.9671C77.2343 51.1031 76.4023 50.6711 75.3143 50.6711C74.2263 50.6711 73.3863 51.1031 72.7943 51.9671C72.2183 52.8151 71.9303 53.9831 71.9303 55.4711C71.9303 56.9431 72.2263 58.0951 72.8183 58.9271C73.4103 59.7591 74.2423 60.1751 75.3143 60.1751ZM91.1384 64.1591C89.0424 64.1591 87.3704 63.7111 86.1224 62.8151C84.8744 61.9191 84.2504 60.6471 84.2504 58.9991C84.2504 58.0551 84.4664 57.2551 84.8984 56.5991C85.3464 55.9271 85.9384 55.4311 86.6744 55.1111C86.0664 54.6951 85.6024 54.1831 85.2824 53.5751C84.9624 52.9511 84.8024 52.2711 84.8024 51.5351C84.8024 49.9991 85.3704 48.8071 86.5064 47.9591C87.6584 47.0951 89.2024 46.6631 91.1384 46.6631C93.0744 46.6631 94.6104 47.0951 95.7464 47.9591C96.8824 48.8071 97.4504 49.9991 97.4504 51.5351C97.4504 52.2871 97.2904 52.9751 96.9704 53.5991C96.6504 54.2071 96.1944 54.7111 95.6024 55.1111C96.3384 55.4151 96.9224 55.9031 97.3544 56.5751C97.7864 57.2471 98.0024 58.0551 98.0024 58.9991C98.0024 60.6471 97.3784 61.9191 96.1304 62.8151C94.8984 63.7111 93.2344 64.1591 91.1384 64.1591ZM91.1384 54.0791C91.7624 54.0791 92.2744 53.8871 92.6744 53.5031C93.0904 53.1191 93.2984 52.6311 93.2984 52.0391C93.2984 51.4471 93.0904 50.9591 92.6744 50.5751C92.2744 50.1751 91.7624 49.9751 91.1384 49.9751C90.5144 49.9751 90.0024 50.1671 89.6024 50.5511C89.2024 50.9351 89.0024 51.4311 89.0024 52.0391C89.0024 52.6311 89.2024 53.1191 89.6024 53.5031C90.0024 53.8871 90.5144 54.0791 91.1384 54.0791ZM91.1384 60.8711C91.8744 60.8711 92.4664 60.6631 92.9144 60.2471C93.3784 59.8151 93.6104 59.2551 93.6104 58.5671C93.6104 57.8951 93.3784 57.3431 92.9144 56.9111C92.4504 56.4791 91.8584 56.2631 91.1384 56.2631C90.4184 56.2631 89.8264 56.4791 89.3624 56.9111C88.8984 57.3431 88.6664 57.8951 88.6664 58.5671C88.6664 59.2551 88.8904 59.8151 89.3384 60.2471C89.8024 60.6631 90.4024 60.8711 91.1384 60.8711ZM104.388 64.1591C103.428 64.1591 102.476 64.0551 101.532 63.8471C100.588 63.6391 99.8115 63.3511 99.2035 62.9831V59.2631C99.9235 59.7271 100.732 60.0951 101.628 60.3671C102.54 60.6231 103.396 60.7511 104.196 60.7511C105.316 60.7511 106.148 60.5351 106.692 60.1031C107.236 59.6711 107.508 59.0791 107.508 58.3271C107.508 57.6071 107.228 57.0471 106.668 56.6471C106.124 56.2471 105.356 56.0471 104.364 56.0471C103.804 56.0471 103.212 56.1031 102.588 56.2151C101.98 56.3111 101.452 56.4551 101.004 56.6471L99.3715 55.7111L100.044 47.0231H110.796V50.5031H104.148L103.932 53.1431C104.668 52.9511 105.452 52.8551 106.284 52.8551C108.028 52.8551 109.388 53.3191 110.364 54.2471C111.356 55.1591 111.852 56.4791 111.852 58.2071C111.852 60.0791 111.22 61.5431 109.956 62.5991C108.692 63.6391 106.836 64.1591 104.388 64.1591ZM120.783 64.1591C119.231 64.1591 117.871 63.8151 116.703 63.1271C115.535 62.4231 114.631 61.4151 113.991 60.1031C113.367 58.7911 113.055 57.2311 113.055 55.4231C113.055 53.6151 113.367 52.0551 113.991 50.7431C114.615 49.4311 115.503 48.4231 116.655 47.7191C117.823 47.0151 119.199 46.6631 120.783 46.6631C122.367 46.6631 123.735 47.0151 124.887 47.7191C126.055 48.4231 126.951 49.4311 127.575 50.7431C128.199 52.0551 128.511 53.6151 128.511 55.4231C128.511 57.2311 128.191 58.7911 127.551 60.1031C126.927 61.4151 126.031 62.4231 124.863 63.1271C123.695 63.8151 122.335 64.1591 120.783 64.1591ZM120.783 60.1751C121.855 60.1751 122.687 59.7591 123.279 58.9271C123.871 58.0951 124.167 56.9431 124.167 55.4711C124.167 53.9831 123.871 52.8151 123.279 51.9671C122.703 51.1031 121.871 50.6711 120.783 50.6711C119.695 50.6711 118.855 51.1031 118.263 51.9671C117.687 52.8151 117.399 53.9831 117.399 55.4711C117.399 56.9431 117.695 58.0951 118.287 58.9271C118.879 59.7591 119.711 60.1751 120.783 60.1751ZM143.395 64.1591C142.339 64.1591 141.323 64.0711 140.347 63.8951C139.387 63.7191 138.563 63.4551 137.875 63.1031V59.7431C139.491 60.4791 141.123 60.8471 142.771 60.8471C144.995 60.8471 146.107 60.1831 146.107 58.8551C146.107 58.1831 145.835 57.7031 145.291 57.4151C144.747 57.1111 143.899 56.9591 142.747 56.9591H140.419V53.7191H142.651C143.595 53.7191 144.323 53.5591 144.835 53.2391C145.363 52.9191 145.627 52.4471 145.627 51.8231C145.627 51.2311 145.395 50.7751 144.931 50.4551C144.467 50.1351 143.811 49.9751 142.963 49.9751C141.219 49.9751 139.635 50.4231 138.211 51.3191V47.8871C138.931 47.5031 139.755 47.2071 140.683 46.9991C141.611 46.7751 142.571 46.6631 143.563 46.6631C145.755 46.6631 147.371 47.1031 148.411 47.9831C149.451 48.8471 149.971 50.0711 149.971 51.6551C149.971 52.3751 149.795 53.0551 149.443 53.6951C149.107 54.3351 148.603 54.8791 147.931 55.3271C149.611 56.0631 150.451 57.3111 150.451 59.0711C150.451 60.6871 149.899 61.9431 148.795 62.8391C147.691 63.7191 145.891 64.1591 143.395 64.1591ZM159.385 64.1591C157.833 64.1591 156.473 63.8151 155.305 63.1271C154.137 62.4231 153.233 61.4151 152.593 60.1031C151.969 58.7911 151.657 57.2311 151.657 55.4231C151.657 53.6151 151.969 52.0551 152.593 50.7431C153.217 49.4311 154.105 48.4231 155.257 47.7191C156.425 47.0151 157.801 46.6631 159.385 46.6631C160.969 46.6631 162.337 47.0151 163.489 47.7191C164.657 48.4231 165.553 49.4311 166.177 50.7431C166.801 52.0551 167.113 53.6151 167.113 55.4231C167.113 57.2311 166.793 58.7911 166.153 60.1031C165.529 61.4151 164.633 62.4231 163.465 63.1271C162.297 63.8151 160.937 64.1591 159.385 64.1591ZM159.385 60.1751C160.457 60.1751 161.289 59.7591 161.881 58.9271C162.473 58.0951 162.769 56.9431 162.769 55.4711C162.769 53.9831 162.473 52.8151 161.881 51.9671C161.305 51.1031 160.473 50.6711 159.385 50.6711C158.297 50.6711 157.457 51.1031 156.865 51.9671C156.289 52.8151 156.001 53.9831 156.001 55.4711C156.001 56.9431 156.297 58.0951 156.889 58.9271C157.481 59.7591 158.313 60.1751 159.385 60.1751ZM173.841 64.1591C172.785 64.1591 171.769 64.0711 170.793 63.8951C169.833 63.7191 169.009 63.4551 168.321 63.1031V59.7431C169.937 60.4791 171.569 60.8471 173.217 60.8471C175.441 60.8471 176.553 60.1831 176.553 58.8551C176.553 58.1831 176.281 57.7031 175.737 57.4151C175.193 57.1111 174.345 56.9591 173.193 56.9591H170.865V53.7191H173.097C174.041 53.7191 174.769 53.5591 175.281 53.2391C175.809 52.9191 176.073 52.4471 176.073 51.8231C176.073 51.2311 175.841 50.7751 175.377 50.4551C174.913 50.1351 174.257 49.9751 173.409 49.9751C171.665 49.9751 170.081 50.4231 168.657 51.3191V47.8871C169.377 47.5031 170.201 47.2071 171.129 46.9991C172.057 46.7751 173.017 46.6631 174.009 46.6631C176.201 46.6631 177.817 47.1031 178.857 47.9831C179.897 48.8471 180.417 50.0711 180.417 51.6551C180.417 52.3751 180.241 53.0551 179.889 53.6951C179.553 54.3351 179.049 54.8791 178.377 55.3271C180.057 56.0631 180.897 57.3111 180.897 59.0711C180.897 60.6871 180.345 61.9431 179.241 62.8391C178.137 63.7191 176.337 64.1591 173.841 64.1591ZM195.778 64.1591C194.722 64.1591 193.706 64.0711 192.73 63.8951C191.77 63.7191 190.946 63.4551 190.258 63.1031V59.7431C191.874 60.4791 193.506 60.8471 195.154 60.8471C197.378 60.8471 198.49 60.1831 198.49 58.8551C198.49 58.1831 198.218 57.7031 197.674 57.4151C197.13 57.1111 196.282 56.9591 195.13 56.9591H192.802V53.7191H195.034C195.978 53.7191 196.706 53.5591 197.218 53.2391C197.746 52.9191 198.01 52.4471 198.01 51.8231C198.01 51.2311 197.778 50.7751 197.314 50.4551C196.85 50.1351 196.194 49.9751 195.346 49.9751C193.602 49.9751 192.018 50.4231 190.594 51.3191V47.8871C191.314 47.5031 192.138 47.2071 193.066 46.9991C193.994 46.7751 194.954 46.6631 195.946 46.6631C198.138 46.6631 199.754 47.1031 200.794 47.9831C201.834 48.8471 202.354 50.0711 202.354 51.6551C202.354 52.3751 202.178 53.0551 201.826 53.6951C201.49 54.3351 200.986 54.8791 200.314 55.3271C201.994 56.0631 202.834 57.3111 202.834 59.0711C202.834 60.6871 202.282 61.9431 201.178 62.8391C200.074 63.7191 198.274 64.1591 195.778 64.1591ZM209.391 64.1591C208.207 64.1591 207.191 64.0231 206.343 63.7511V60.1511C207.079 60.5351 207.983 60.7271 209.055 60.7271C210.271 60.7271 211.263 60.4071 212.031 59.7671C212.815 59.1271 213.287 58.1751 213.447 56.9111C213.063 57.3111 212.535 57.6311 211.863 57.8711C211.191 58.0951 210.463 58.2071 209.679 58.2071C208.575 58.2071 207.599 57.9831 206.751 57.5351C205.903 57.0871 205.239 56.4391 204.759 55.5911C204.279 54.7431 204.039 53.7351 204.039 52.5671C204.039 51.4311 204.295 50.4231 204.807 49.5431C205.335 48.6471 206.111 47.9431 207.135 47.4311C208.175 46.9191 209.431 46.6631 210.903 46.6631C213.127 46.6631 214.847 47.3511 216.063 48.7271C217.295 50.0871 217.911 51.9671 217.911 54.3671C217.911 56.4471 217.543 58.2231 216.807 59.6951C216.087 61.1671 215.087 62.2791 213.807 63.0311C212.527 63.7831 211.055 64.1591 209.391 64.1591ZM210.903 54.9431C211.607 54.9431 212.199 54.7031 212.679 54.2231C213.159 53.7431 213.399 53.1591 213.399 52.4711C213.399 51.7671 213.159 51.1751 212.679 50.6951C212.199 50.2151 211.607 49.9751 210.903 49.9751C210.215 49.9751 209.631 50.2231 209.151 50.7191C208.671 51.1991 208.431 51.7831 208.431 52.4711C208.431 53.1591 208.671 53.7431 209.151 54.2231C209.631 54.7031 210.215 54.9431 210.903 54.9431ZM226.358 50.5031H218.87V47.0231H230.966V49.8551L224.606 63.7991H220.286L226.358 50.5031ZM237.45 64.1591C236.394 64.1591 235.378 64.0711 234.402 63.8951C233.442 63.7191 232.618 63.4551 231.93 63.1031V59.7431C233.546 60.4791 235.178 60.8471 236.826 60.8471C239.05 60.8471 240.162 60.1831 240.162 58.8551C240.162 58.1831 239.89 57.7031 239.346 57.4151C238.802 57.1111 237.954 56.9591 236.802 56.9591H234.474V53.7191H236.706C237.65 53.7191 238.378 53.5591 238.89 53.2391C239.418 52.9191 239.682 52.4471 239.682 51.8231C239.682 51.2311 239.45 50.7751 238.986 50.4551C238.522 50.1351 237.866 49.9751 237.018 49.9751C235.274 49.9751 233.69 50.4231 232.266 51.3191V47.8871C232.986 47.5031 233.81 47.2071 234.738 46.9991C235.666 46.7751 236.626 46.6631 237.618 46.6631C239.81 46.6631 241.426 47.1031 242.466 47.9831C243.506 48.8471 244.026 50.0711 244.026 51.6551C244.026 52.3751 243.85 53.0551 243.498 53.6951C243.162 54.3351 242.658 54.8791 241.986 55.3271C243.666 56.0631 244.506 57.3111 244.506 59.0711C244.506 60.6871 243.954 61.9431 242.85 62.8391C241.746 63.7191 239.946 64.1591 237.45 64.1591Z" fill="white"/>
</svg>
