<svg width="168" height="54" viewBox="0 0 168 54" fill="none" xmlns="http://www.w3.org/2000/svg">
<g filter="url(#filter0_d_347_148)">
<path d="M6 7C6 3.13401 9.13401 0 13 0H159C162.866 0 166 3.13401 166 7V39C166 42.866 162.866 46 159 46H13C9.13401 46 6 42.866 6 39V7Z" fill="#009EE3"/>
<path d="M6.1 7C6.1 3.18924 9.18924 0.1 13 0.1H159C162.811 0.1 165.9 3.18924 165.9 7V39C165.9 42.8108 162.811 45.9 159 45.9H13C9.18923 45.9 6.1 42.8108 6.1 39V7Z" stroke="white" stroke-width="0.2"/>
</g>
<path d="M34.7074 35.9877C24.947 35.9877 17.049 28.0752 17.049 18.3294C17.049 17.9011 17.3456 17.5343 17.757 17.4394L21.7149 16.5261C21.9236 16.4779 22.1425 16.5046 22.3335 16.6016C22.5245 16.6985 22.6754 16.8594 22.7598 17.0563L24.5865 21.3185C24.6645 21.5006 24.6812 21.7031 24.6341 21.8955C24.587 22.0879 24.4786 22.2598 24.3253 22.3852L22.0185 24.2727C23.4167 27.2529 25.846 29.6492 28.764 31.0182L30.6515 28.7113C30.7769 28.558 30.9488 28.4496 31.1412 28.4025C31.3336 28.3554 31.5361 28.3721 31.7182 28.4502L35.9805 30.2769C36.1773 30.3613 36.3383 30.5121 36.4352 30.7031C36.5321 30.8941 36.5588 31.1131 36.5106 31.3218L35.5974 35.2797C35.5509 35.481 35.4376 35.6605 35.276 35.7891C35.1143 35.9177 34.9139 35.9877 34.7074 35.9877ZM24.8736 14.8966C26.0715 15.2053 27.0095 16.1433 27.3181 17.3412C27.4212 17.7411 27.1247 18.1328 26.7118 18.1415L26.2721 18.1509C25.9843 18.157 25.7304 17.9694 25.6457 17.6944C25.5638 17.4294 25.4186 17.1884 25.2225 16.9923C25.0264 16.7962 24.7854 16.651 24.5204 16.5691C24.2453 16.4844 24.0578 16.2305 24.0639 15.9427L24.0733 15.503C24.082 15.0901 24.4737 14.7936 24.8736 14.8966ZM24.8962 8.02115C29.8466 8.45192 33.7632 12.3721 34.1936 17.3186C34.2257 17.6869 33.9387 18.0053 33.5691 18.0132L33.1424 18.0222C32.8068 18.0293 32.5222 17.776 32.492 17.4417C32.1219 13.3374 28.8739 10.0926 24.773 9.72272C24.4387 9.69254 24.1854 9.40794 24.1925 9.07231L24.2016 8.64563C24.2094 8.27607 24.5279 7.98909 24.8962 8.02115ZM24.8574 11.4373C27.9527 11.8233 30.3908 14.2571 30.7774 17.3573C30.8244 17.7343 30.5352 18.0693 30.1555 18.0773L29.7272 18.0863C29.4033 18.0931 29.1225 17.8572 29.0803 17.5359C28.7786 15.24 26.9746 13.4361 24.6788 13.1345C24.3576 13.0923 24.1217 12.8115 24.1285 12.4875L24.1375 12.0593C24.1454 11.6795 24.4805 11.3903 24.8574 11.4373Z" fill="white"/>
<path d="M62.6987 18.088C61.9307 18.6853 60.9494 19.0533 59.7547 19.192L59.4987 19.832C59.9574 19.8853 60.3094 20.0507 60.5547 20.328C60.8107 20.616 60.9387 20.9733 60.9387 21.4C60.9387 21.9013 60.7307 22.2853 60.3147 22.552C59.8987 22.8293 59.3387 22.968 58.6347 22.968C58.3467 22.968 58.0694 22.9467 57.8027 22.904C57.536 22.872 57.328 22.8293 57.1787 22.776L57.1947 21.672C57.312 21.7253 57.456 21.768 57.6267 21.8C57.7974 21.8427 57.9627 21.864 58.1227 21.864C58.752 21.864 59.0667 21.6453 59.0667 21.208C59.0667 20.952 58.9387 20.744 58.6827 20.584C58.4374 20.4347 58.0374 20.36 57.4827 20.36L57.9307 19.208C56.896 19.112 55.984 18.8133 55.1947 18.312C54.4054 17.8107 53.792 17.144 53.3547 16.312C52.928 15.4693 52.7147 14.504 52.7147 13.416C52.7147 12.2427 52.9654 11.2187 53.4667 10.344C53.968 9.45867 54.672 8.776 55.5787 8.296C56.4854 7.816 57.5254 7.576 58.6987 7.576C60.2454 7.576 61.536 7.944 62.5707 8.68V10.616C61.6427 9.82667 60.4107 9.432 58.8747 9.432C58.0534 9.432 57.3334 9.59733 56.7147 9.928C56.096 10.248 55.616 10.7067 55.2747 11.304C54.9334 11.9013 54.7627 12.6053 54.7627 13.416C54.7627 14.2267 54.9334 14.9307 55.2747 15.528C55.6267 16.1253 56.112 16.5893 56.7307 16.92C57.3494 17.24 58.064 17.4 58.8747 17.4C59.664 17.4 60.368 17.304 60.9867 17.112C61.6054 16.9093 62.176 16.5893 62.6987 16.152V18.088ZM66.882 19.24C65.9646 19.24 65.2126 19 64.626 18.52C64.0393 18.0293 63.746 17.3733 63.746 16.552C63.746 15.6987 64.0233 15.032 64.578 14.552C65.1326 14.072 65.9113 13.832 66.914 13.832C67.8846 13.832 68.722 14.0293 69.426 14.424V14.216C69.426 13.672 69.2553 13.2773 68.914 13.032C68.5833 12.7867 68.0446 12.664 67.298 12.664C66.8286 12.664 66.3646 12.712 65.906 12.808C65.4473 12.8933 65.042 13.016 64.69 13.176V11.592C65.01 11.4427 65.4366 11.32 65.97 11.224C66.514 11.128 67.0366 11.08 67.538 11.08C68.8713 11.08 69.858 11.368 70.498 11.944C71.138 12.5093 71.458 13.2987 71.458 14.312V19H69.554V18.248C69.2233 18.568 68.8446 18.8133 68.418 18.984C68.002 19.1547 67.49 19.24 66.882 19.24ZM67.378 17.768C67.826 17.768 68.2313 17.6827 68.594 17.512C68.9566 17.3307 69.234 17.0853 69.426 16.776V15.928C68.8393 15.512 68.1673 15.304 67.41 15.304C66.3326 15.304 65.794 15.72 65.794 16.552C65.794 16.9573 65.9273 17.2613 66.194 17.464C66.4713 17.6667 66.866 17.768 67.378 17.768ZM77.7963 10.44C76.9963 10.44 76.367 10.2213 75.9083 9.784C75.4497 9.336 75.2203 8.74933 75.2203 8.024H76.7403C76.7403 8.376 76.831 8.64267 77.0123 8.824C77.1937 9.00533 77.455 9.096 77.7963 9.096C78.1377 9.096 78.399 9.00533 78.5803 8.824C78.7617 8.64267 78.8523 8.376 78.8523 8.024H80.3723C80.3723 8.74933 80.143 9.336 79.6843 9.784C79.2257 10.2213 78.5963 10.44 77.7963 10.44ZM77.3643 22.68C76.8523 22.68 76.3403 22.632 75.8283 22.536C75.3163 22.44 74.8897 22.312 74.5483 22.152V20.552C75.3803 20.9147 76.319 21.096 77.3643 21.096C78.303 21.096 78.975 20.8987 79.3803 20.504C79.7963 20.1093 80.0043 19.5227 80.0043 18.744V18.248C79.6417 18.5787 79.2097 18.8293 78.7083 19C78.207 19.16 77.6683 19.24 77.0923 19.24C76.3137 19.24 75.6097 19.0693 74.9803 18.728C74.351 18.376 73.8603 17.8907 73.5083 17.272C73.1563 16.6533 72.9803 15.944 72.9803 15.144C72.9803 14.3333 73.151 13.624 73.4923 13.016C73.8443 12.3973 74.3243 11.9227 74.9323 11.592C75.551 11.2507 76.2497 11.08 77.0283 11.08C77.679 11.08 78.239 11.1707 78.7083 11.352C79.1777 11.5227 79.631 11.8107 80.0683 12.216V11.32H82.0203V18.536C82.0203 19.8587 81.6363 20.8773 80.8683 21.592C80.111 22.3173 78.943 22.68 77.3643 22.68ZM77.5243 17.656C78.1003 17.656 78.6123 17.5013 79.0603 17.192C79.519 16.872 79.8337 16.4507 80.0043 15.928V14.376C79.823 13.8533 79.5083 13.4373 79.0603 13.128C78.6123 12.8187 78.1003 12.664 77.5243 12.664C76.799 12.664 76.2017 12.8933 75.7323 13.352C75.263 13.8107 75.0283 14.408 75.0283 15.144C75.0283 15.88 75.263 16.4827 75.7323 16.952C76.2017 17.4213 76.799 17.656 77.5243 17.656ZM83.941 11.32H85.893V12.552C86.2023 12.136 86.6396 11.8267 87.205 11.624C87.781 11.4213 88.437 11.32 89.173 11.32V12.856C88.3943 12.856 87.717 12.9787 87.141 13.224C86.5756 13.4587 86.181 13.832 85.957 14.344V19H83.941V11.32ZM90.4566 11.32H92.5046V19H90.4566V11.32ZM100.191 7.816H102.175L105.919 16.008L109.663 7.816H111.647V19H109.727V11.736L106.399 19H105.439L102.111 11.736V19H100.191V7.816ZM117.886 19.24C116.457 19.24 115.326 18.8827 114.494 18.168C113.662 17.4533 113.246 16.456 113.246 15.176C113.246 13.9173 113.614 12.92 114.35 12.184C115.086 11.448 116.137 11.08 117.502 11.08C118.398 11.08 119.161 11.2507 119.79 11.592C120.43 11.9333 120.91 12.4027 121.23 13C121.55 13.5867 121.71 14.2587 121.71 15.016V15.944H115.166C115.305 17.0853 116.297 17.656 118.142 17.656C118.633 17.656 119.134 17.6133 119.646 17.528C120.158 17.4427 120.606 17.3253 120.99 17.176V18.728C120.627 18.8773 120.158 19 119.582 19.096C119.017 19.192 118.451 19.24 117.886 19.24ZM119.806 14.568C119.785 13.96 119.566 13.4907 119.15 13.16C118.745 12.8293 118.185 12.664 117.47 12.664C116.766 12.664 116.211 12.8347 115.806 13.176C115.401 13.5173 115.187 13.9813 115.166 14.568H119.806ZM123.316 11.32H125.268V12.552C125.577 12.136 126.015 11.8267 126.58 11.624C127.156 11.4213 127.812 11.32 128.548 11.32V12.856C127.769 12.856 127.092 12.9787 126.516 13.224C125.951 13.4587 125.556 13.832 125.332 14.344V19H123.316V11.32ZM129.832 7.176H131.848V14.696L134.904 11.32H137.272L133.848 15.08L137.656 19H135.288L131.848 15.448V19H129.832V7.176ZM143.573 19.24C142.144 19.24 141.013 18.8827 140.181 18.168C139.349 17.4533 138.933 16.456 138.933 15.176C138.933 13.9173 139.301 12.92 140.037 12.184C140.773 11.448 141.824 11.08 143.189 11.08C144.085 11.08 144.848 11.2507 145.477 11.592C146.117 11.9333 146.597 12.4027 146.917 13C147.237 13.5867 147.397 14.2587 147.397 15.016V15.944H140.853C140.992 17.0853 141.984 17.656 143.829 17.656C144.32 17.656 144.821 17.6133 145.333 17.528C145.845 17.4427 146.293 17.3253 146.677 17.176V18.728C146.315 18.8773 145.845 19 145.269 19.096C144.704 19.192 144.139 19.24 143.573 19.24ZM145.493 14.568C145.472 13.96 145.253 13.4907 144.837 13.16C144.432 12.8293 143.872 12.664 143.157 12.664C142.453 12.664 141.899 12.8347 141.493 13.176C141.088 13.5173 140.875 13.9813 140.853 14.568H145.493ZM148.683 17.736L152.763 12.856H148.795V11.32H155.291V12.584L151.227 17.464H155.419V19H148.683V17.736ZM158.155 9.976C157.835 9.976 157.563 9.86933 157.339 9.656C157.126 9.44267 157.019 9.176 157.019 8.856C157.019 8.536 157.126 8.26933 157.339 8.056C157.563 7.832 157.835 7.72 158.155 7.72C158.475 7.72 158.747 7.832 158.971 8.056C159.195 8.26933 159.307 8.536 159.307 8.856C159.307 9.176 159.195 9.44267 158.971 9.656C158.747 9.86933 158.475 9.976 158.155 9.976ZM157.131 11.32H159.179V19H157.131V11.32ZM59.2061 37.088C58.6301 36.144 58.3421 35.032 58.3421 33.752C58.3421 33.128 58.4141 32.464 58.5581 31.76C58.7821 30.712 59.1421 29.74 59.6381 28.844C60.1341 27.94 60.7421 27.136 61.4621 26.432H62.7461C61.9781 27.208 61.3461 28.032 60.8501 28.904C60.3621 29.776 60.0101 30.728 59.7941 31.76C59.6581 32.392 59.5901 33.02 59.5901 33.644C59.5901 34.876 59.8901 36.024 60.4901 37.088H59.2061ZM65.279 35.18C64.439 35.18 63.775 34.912 63.287 34.376C62.807 33.84 62.567 33.1 62.567 32.156C62.567 31.724 62.619 31.276 62.723 30.812C63.019 29.436 63.547 28.364 64.307 27.596C65.067 26.82 66.011 26.432 67.139 26.432C67.987 26.432 68.651 26.7 69.131 27.236C69.619 27.772 69.863 28.512 69.863 29.456C69.863 29.888 69.811 30.34 69.707 30.812C69.419 32.172 68.887 33.24 68.111 34.016C67.335 34.792 66.391 35.18 65.279 35.18ZM65.507 34.1C66.219 34.1 66.839 33.808 67.367 33.224C67.903 32.632 68.275 31.832 68.483 30.824C68.595 30.288 68.651 29.824 68.651 29.432C68.651 28.168 68.071 27.536 66.911 27.536C66.191 27.536 65.567 27.832 65.039 28.424C64.511 29.016 64.139 29.816 63.923 30.824C63.819 31.344 63.767 31.78 63.767 32.132C63.767 33.444 64.347 34.1 65.507 34.1ZM72.9215 35.18C72.1135 35.18 71.4775 35.016 71.0135 34.688C70.5495 34.36 70.3175 33.888 70.3175 33.272C70.3175 33.12 70.3375 32.932 70.3775 32.708C70.4895 32.172 70.7255 31.724 71.0855 31.364C71.4455 30.996 71.8695 30.748 72.3575 30.62C72.0775 30.492 71.8575 30.304 71.6975 30.056C71.5455 29.808 71.4695 29.52 71.4695 29.192C71.4695 29.032 71.4855 28.876 71.5175 28.724C71.6695 28.02 72.0375 27.464 72.6215 27.056C73.2135 26.64 73.9335 26.432 74.7815 26.432C75.4935 26.432 76.0615 26.596 76.4855 26.924C76.9095 27.244 77.1215 27.684 77.1215 28.244C77.1215 28.412 77.1055 28.572 77.0735 28.724C76.9775 29.164 76.7815 29.552 76.4855 29.888C76.1975 30.216 75.8415 30.46 75.4175 30.62C75.7775 30.724 76.0615 30.912 76.2695 31.184C76.4775 31.448 76.5815 31.78 76.5815 32.18C76.5815 32.316 76.5615 32.492 76.5215 32.708C76.3535 33.5 75.9455 34.112 75.2975 34.544C74.6575 34.968 73.8655 35.18 72.9215 35.18ZM73.9775 30.248C74.4495 30.248 74.8615 30.12 75.2135 29.864C75.5655 29.6 75.7855 29.256 75.8735 28.832C75.9055 28.696 75.9215 28.552 75.9215 28.4C75.9215 27.712 75.4775 27.368 74.5895 27.368C74.2295 27.368 73.8975 27.448 73.5935 27.608C73.2975 27.76 73.0655 27.976 72.8975 28.256C72.7295 28.528 72.6455 28.836 72.6455 29.18C72.6455 29.516 72.7575 29.78 72.9815 29.972C73.2055 30.156 73.5375 30.248 73.9775 30.248ZM73.1135 34.292C73.6895 34.292 74.1735 34.144 74.5655 33.848C74.9575 33.552 75.2095 33.144 75.3215 32.624C75.3535 32.432 75.3695 32.296 75.3695 32.216C75.3695 31.832 75.2375 31.536 74.9735 31.328C74.7095 31.12 74.3215 31.016 73.8095 31.016C73.2575 31.016 72.7775 31.16 72.3695 31.448C71.9695 31.736 71.7175 32.128 71.6135 32.624C71.5735 32.808 71.5535 32.964 71.5535 33.092C71.5535 33.476 71.6855 33.772 71.9495 33.98C72.2135 34.188 72.6015 34.292 73.1135 34.292ZM79.4083 35.18C78.9683 35.18 78.5483 35.132 78.1483 35.036C77.7563 34.948 77.4323 34.824 77.1763 34.664L77.4163 33.572C77.7043 33.772 78.0443 33.928 78.4363 34.04C78.8283 34.144 79.2123 34.196 79.5883 34.196C80.3163 34.196 80.9003 34.044 81.3403 33.74C81.7803 33.428 82.0643 32.972 82.1923 32.372C82.2403 32.164 82.2643 31.98 82.2643 31.82C82.2643 31.42 82.1243 31.12 81.8443 30.92C81.5643 30.72 81.1123 30.62 80.4883 30.62C80.2003 30.62 79.8923 30.648 79.5643 30.704C79.2363 30.76 78.9403 30.836 78.6763 30.932L78.1963 30.62L79.3603 26.612H84.0523L83.8363 27.644H80.2603L79.6243 29.804C80.1283 29.7 80.6403 29.648 81.1603 29.648C81.8803 29.648 82.4483 29.836 82.8643 30.212C83.2883 30.58 83.5003 31.084 83.5003 31.724C83.5003 31.924 83.4763 32.14 83.4283 32.372C83.0363 34.244 81.6963 35.18 79.4083 35.18ZM87.404 35.18C86.564 35.18 85.9 34.912 85.412 34.376C84.932 33.84 84.692 33.1 84.692 32.156C84.692 31.724 84.744 31.276 84.848 30.812C85.144 29.436 85.672 28.364 86.432 27.596C87.192 26.82 88.136 26.432 89.264 26.432C90.112 26.432 90.776 26.7 91.256 27.236C91.744 27.772 91.988 28.512 91.988 29.456C91.988 29.888 91.936 30.34 91.832 30.812C91.544 32.172 91.012 33.24 90.236 34.016C89.46 34.792 88.516 35.18 87.404 35.18ZM87.632 34.1C88.344 34.1 88.964 33.808 89.492 33.224C90.028 32.632 90.4 31.832 90.608 30.824C90.72 30.288 90.776 29.824 90.776 29.432C90.776 28.168 90.196 27.536 89.036 27.536C88.316 27.536 87.692 27.832 87.164 28.424C86.636 29.016 86.264 29.816 86.048 30.824C85.944 31.344 85.892 31.78 85.892 32.132C85.892 33.444 86.472 34.1 87.632 34.1ZM98.9719 35.18C98.4919 35.18 98.0359 35.14 97.6039 35.06C97.1719 34.988 96.8079 34.876 96.5119 34.724L96.7279 33.716C97.3999 34.052 98.1639 34.22 99.0199 34.22C99.7559 34.22 100.332 34.088 100.748 33.824C101.164 33.552 101.424 33.168 101.528 32.672C101.552 32.536 101.564 32.42 101.564 32.324C101.564 31.94 101.4 31.664 101.072 31.496C100.752 31.328 100.26 31.244 99.5959 31.244H98.6119L98.8159 30.26H99.7759C100.376 30.26 100.888 30.14 101.312 29.9C101.736 29.652 101.996 29.292 102.092 28.82C102.124 28.684 102.14 28.544 102.14 28.4C102.14 28.064 102.016 27.816 101.768 27.656C101.528 27.488 101.144 27.404 100.616 27.404C100.168 27.404 99.7519 27.456 99.3679 27.56C98.9919 27.664 98.5839 27.836 98.1439 28.076L98.3599 27.068C99.1439 26.644 100.012 26.432 100.964 26.432C101.74 26.432 102.336 26.604 102.752 26.948C103.176 27.284 103.388 27.732 103.388 28.292C103.388 28.468 103.372 28.632 103.34 28.784C103.252 29.232 103.048 29.624 102.728 29.96C102.416 30.296 102 30.556 101.48 30.74C101.912 30.844 102.24 31.032 102.464 31.304C102.688 31.576 102.8 31.9 102.8 32.276C102.8 32.372 102.784 32.516 102.752 32.708C102.6 33.468 102.212 34.072 101.588 34.52C100.972 34.96 100.1 35.18 98.9719 35.18ZM106.799 35.18C105.959 35.18 105.295 34.912 104.807 34.376C104.327 33.84 104.087 33.1 104.087 32.156C104.087 31.724 104.139 31.276 104.243 30.812C104.539 29.436 105.067 28.364 105.827 27.596C106.587 26.82 107.531 26.432 108.659 26.432C109.507 26.432 110.171 26.7 110.651 27.236C111.139 27.772 111.383 28.512 111.383 29.456C111.383 29.888 111.331 30.34 111.227 30.812C110.939 32.172 110.407 33.24 109.631 34.016C108.855 34.792 107.911 35.18 106.799 35.18ZM107.027 34.1C107.739 34.1 108.359 33.808 108.887 33.224C109.423 32.632 109.795 31.832 110.003 30.824C110.115 30.288 110.171 29.824 110.171 29.432C110.171 28.168 109.591 27.536 108.431 27.536C107.711 27.536 107.087 27.832 106.559 28.424C106.031 29.016 105.659 29.816 105.443 30.824C105.339 31.344 105.287 31.78 105.287 32.132C105.287 33.444 105.867 34.1 107.027 34.1ZM113.925 35.18C113.445 35.18 112.989 35.14 112.557 35.06C112.125 34.988 111.761 34.876 111.465 34.724L111.681 33.716C112.353 34.052 113.117 34.22 113.973 34.22C114.709 34.22 115.285 34.088 115.701 33.824C116.117 33.552 116.377 33.168 116.481 32.672C116.505 32.536 116.517 32.42 116.517 32.324C116.517 31.94 116.353 31.664 116.025 31.496C115.705 31.328 115.213 31.244 114.549 31.244H113.565L113.769 30.26H114.729C115.329 30.26 115.841 30.14 116.265 29.9C116.689 29.652 116.949 29.292 117.045 28.82C117.077 28.684 117.093 28.544 117.093 28.4C117.093 28.064 116.969 27.816 116.721 27.656C116.481 27.488 116.097 27.404 115.569 27.404C115.121 27.404 114.705 27.456 114.321 27.56C113.945 27.664 113.537 27.836 113.097 28.076L113.313 27.068C114.097 26.644 114.965 26.432 115.917 26.432C116.693 26.432 117.289 26.604 117.705 26.948C118.129 27.284 118.341 27.732 118.341 28.292C118.341 28.468 118.325 28.632 118.293 28.784C118.205 29.232 118.001 29.624 117.681 29.96C117.369 30.296 116.953 30.556 116.433 30.74C116.865 30.844 117.193 31.032 117.417 31.304C117.641 31.576 117.753 31.9 117.753 32.276C117.753 32.372 117.737 32.516 117.705 32.708C117.553 33.468 117.165 34.072 116.541 34.52C115.925 34.96 115.053 35.18 113.925 35.18ZM125.257 35.18C124.777 35.18 124.321 35.14 123.889 35.06C123.457 34.988 123.093 34.876 122.797 34.724L123.013 33.716C123.685 34.052 124.449 34.22 125.305 34.22C126.041 34.22 126.617 34.088 127.033 33.824C127.449 33.552 127.709 33.168 127.813 32.672C127.837 32.536 127.849 32.42 127.849 32.324C127.849 31.94 127.685 31.664 127.357 31.496C127.037 31.328 126.545 31.244 125.881 31.244H124.897L125.101 30.26H126.061C126.661 30.26 127.173 30.14 127.597 29.9C128.021 29.652 128.281 29.292 128.377 28.82C128.409 28.684 128.425 28.544 128.425 28.4C128.425 28.064 128.301 27.816 128.053 27.656C127.813 27.488 127.429 27.404 126.901 27.404C126.453 27.404 126.037 27.456 125.653 27.56C125.277 27.664 124.869 27.836 124.429 28.076L124.645 27.068C125.429 26.644 126.297 26.432 127.249 26.432C128.025 26.432 128.621 26.604 129.037 26.948C129.461 27.284 129.673 27.732 129.673 28.292C129.673 28.468 129.657 28.632 129.625 28.784C129.537 29.232 129.333 29.624 129.013 29.96C128.701 30.296 128.285 30.556 127.765 30.74C128.197 30.844 128.525 31.032 128.749 31.304C128.973 31.576 129.085 31.9 129.085 32.276C129.085 32.372 129.069 32.516 129.037 32.708C128.885 33.468 128.497 34.072 127.873 34.52C127.257 34.96 126.385 35.18 125.257 35.18ZM131.848 35.18C131.4 35.18 131.02 35.132 130.708 35.036L130.924 34.016C131.212 34.136 131.56 34.196 131.968 34.196C133.688 34.196 134.848 33.168 135.448 31.112C135.144 31.416 134.78 31.644 134.356 31.796C133.94 31.948 133.492 32.024 133.012 32.024C132.596 32.024 132.216 31.94 131.872 31.772C131.536 31.596 131.268 31.348 131.068 31.028C130.876 30.708 130.78 30.332 130.78 29.9C130.78 29.7 130.804 29.492 130.852 29.276C130.972 28.732 131.196 28.244 131.524 27.812C131.86 27.38 132.284 27.044 132.796 26.804C133.316 26.556 133.892 26.432 134.524 26.432C135.292 26.432 135.904 26.648 136.36 27.08C136.816 27.512 137.044 28.132 137.044 28.94C137.044 29.284 137.004 29.644 136.924 30.02C136.188 33.46 134.496 35.18 131.848 35.18ZM133.54 31.064C134.068 31.064 134.544 30.896 134.968 30.56C135.4 30.224 135.676 29.78 135.796 29.228C135.828 29.092 135.844 28.936 135.844 28.76C135.844 28.352 135.716 28.024 135.46 27.776C135.212 27.52 134.832 27.392 134.32 27.392C133.76 27.392 133.276 27.56 132.868 27.896C132.46 28.232 132.196 28.68 132.076 29.24C132.036 29.456 132.016 29.632 132.016 29.768C132.016 30.184 132.144 30.504 132.4 30.728C132.656 30.952 133.036 31.064 133.54 31.064ZM142.844 27.644H138.392L138.608 26.612H144.308L144.116 27.512L139.16 35H137.96L142.844 27.644ZM145.999 35.18C145.519 35.18 145.063 35.14 144.631 35.06C144.199 34.988 143.835 34.876 143.539 34.724L143.755 33.716C144.427 34.052 145.191 34.22 146.047 34.22C146.783 34.22 147.359 34.088 147.775 33.824C148.191 33.552 148.451 33.168 148.555 32.672C148.579 32.536 148.591 32.42 148.591 32.324C148.591 31.94 148.427 31.664 148.099 31.496C147.779 31.328 147.287 31.244 146.623 31.244H145.639L145.843 30.26H146.803C147.403 30.26 147.915 30.14 148.339 29.9C148.763 29.652 149.023 29.292 149.119 28.82C149.151 28.684 149.167 28.544 149.167 28.4C149.167 28.064 149.043 27.816 148.795 27.656C148.555 27.488 148.171 27.404 147.643 27.404C147.195 27.404 146.779 27.456 146.395 27.56C146.019 27.664 145.611 27.836 145.171 28.076L145.387 27.068C146.171 26.644 147.039 26.432 147.991 26.432C148.767 26.432 149.363 26.604 149.779 26.948C150.203 27.284 150.415 27.732 150.415 28.292C150.415 28.468 150.399 28.632 150.367 28.784C150.279 29.232 150.075 29.624 149.755 29.96C149.443 30.296 149.027 30.556 148.507 30.74C148.939 30.844 149.267 31.032 149.491 31.304C149.715 31.576 149.827 31.9 149.827 32.276C149.827 32.372 149.811 32.516 149.779 32.708C149.627 33.468 149.239 34.072 148.615 34.52C147.999 34.96 147.127 35.18 145.999 35.18ZM149.77 37.088C150.538 36.312 151.166 35.488 151.654 34.616C152.142 33.744 152.494 32.792 152.71 31.76C152.846 31.128 152.914 30.5 152.914 29.876C152.914 28.644 152.614 27.496 152.014 26.432H153.298C153.874 27.376 154.162 28.488 154.162 29.768C154.162 30.4 154.09 31.064 153.946 31.76C153.722 32.816 153.362 33.792 152.866 34.688C152.37 35.584 151.762 36.384 151.042 37.088H149.77Z" fill="white"/>
<defs>
<filter id="filter0_d_347_148" x="0" y="0" width="168" height="54" filterUnits="userSpaceOnUse" color-interpolation-filters="sRGB">
<feFlood flood-opacity="0" result="BackgroundImageFix"/>
<feColorMatrix in="SourceAlpha" type="matrix" values="0 0 0 0 0 0 0 0 0 0 0 0 0 0 0 0 0 0 127 0" result="hardAlpha"/>
<feOffset dx="-2" dy="4"/>
<feGaussianBlur stdDeviation="2"/>
<feComposite in2="hardAlpha" operator="out"/>
<feColorMatrix type="matrix" values="0 0 0 0 0 0 0 0 0 0 0 0 0 0 0 0 0 0 0.2 0"/>
<feBlend mode="normal" in2="BackgroundImageFix" result="effect1_dropShadow_347_148"/>
<feBlend mode="normal" in="SourceGraphic" in2="effect1_dropShadow_347_148" result="shape"/>
</filter>
</defs>
</svg>
