<svg width="170" height="46" viewBox="0 0 170 46" fill="none" xmlns="http://www.w3.org/2000/svg">
<path d="M0.1 7C0.1 3.18924 3.18924 0.1 7 0.1H163C166.811 0.1 169.9 3.18923 169.9 7V39C169.9 42.8108 166.811 45.9 163 45.9H7C3.18924 45.9 0.1 42.8108 0.1 39V7Z" fill="#009EE3" stroke="white" stroke-width="0.2"/>
<path d="M33.7074 35.9877C23.947 35.9877 16.049 28.0752 16.049 18.3294C16.049 17.9011 16.3456 17.5343 16.757 17.4394L20.7149 16.5261C20.9236 16.4779 21.1425 16.5046 21.3335 16.6016C21.5245 16.6985 21.6754 16.8594 21.7598 17.0563L23.5865 21.3185C23.6645 21.5006 23.6812 21.7031 23.6341 21.8955C23.587 22.0879 23.4786 22.2598 23.3253 22.3852L21.0185 24.2727C22.4167 27.2529 24.846 29.6492 27.764 31.0182L29.6515 28.7113C29.7769 28.558 29.9488 28.4496 30.1412 28.4025C30.3336 28.3554 30.5361 28.3721 30.7182 28.4502L34.9805 30.2769C35.1773 30.3613 35.3383 30.5121 35.4352 30.7031C35.5321 30.8941 35.5588 31.1131 35.5106 31.3218L34.5974 35.2797C34.5509 35.481 34.4376 35.6605 34.276 35.7891C34.1143 35.9177 33.9139 35.9877 33.7074 35.9877ZM23.8736 14.8966C25.0715 15.2053 26.0095 16.1433 26.3181 17.3412C26.4212 17.7411 26.1247 18.1328 25.7118 18.1415L25.2721 18.1509C24.9843 18.157 24.7304 17.9694 24.6457 17.6944C24.5638 17.4294 24.4186 17.1884 24.2225 16.9923C24.0264 16.7962 23.7854 16.651 23.5204 16.5691C23.2453 16.4844 23.0578 16.2305 23.0639 15.9427L23.0733 15.503C23.082 15.0901 23.4737 14.7936 23.8736 14.8966ZM23.8962 8.02115C28.8466 8.45192 32.7632 12.3721 33.1936 17.3186C33.2257 17.6869 32.9387 18.0053 32.5691 18.0132L32.1424 18.0222C31.8068 18.0293 31.5222 17.776 31.492 17.4417C31.1219 13.3374 27.8739 10.0926 23.773 9.72272C23.4387 9.69254 23.1854 9.40794 23.1925 9.07231L23.2016 8.64563C23.2094 8.27607 23.5279 7.98909 23.8962 8.02115ZM23.8574 11.4373C26.9527 11.8233 29.3908 14.2571 29.7774 17.3573C29.8244 17.7343 29.5352 18.0693 29.1555 18.0773L28.7272 18.0863C28.4033 18.0931 28.1225 17.8572 28.0803 17.5359C27.7786 15.24 25.9746 13.4361 23.6788 13.1345C23.3576 13.0923 23.1217 12.8115 23.1285 12.4875L23.1375 12.0593C23.1454 11.6795 23.4805 11.3903 23.8574 11.4373Z" fill="white"/>
<path d="M61.6987 18.088C60.9307 18.6853 59.9494 19.0533 58.7547 19.192L58.4987 19.832C58.9574 19.8853 59.3094 20.0507 59.5547 20.328C59.8107 20.616 59.9387 20.9733 59.9387 21.4C59.9387 21.9013 59.7307 22.2853 59.3147 22.552C58.8987 22.8293 58.3387 22.968 57.6347 22.968C57.3467 22.968 57.0694 22.9467 56.8027 22.904C56.536 22.872 56.328 22.8293 56.1787 22.776L56.1947 21.672C56.312 21.7253 56.456 21.768 56.6267 21.8C56.7974 21.8427 56.9627 21.864 57.1227 21.864C57.752 21.864 58.0667 21.6453 58.0667 21.208C58.0667 20.952 57.9387 20.744 57.6827 20.584C57.4374 20.4347 57.0374 20.36 56.4827 20.36L56.9307 19.208C55.896 19.112 54.984 18.8133 54.1947 18.312C53.4054 17.8107 52.792 17.144 52.3547 16.312C51.928 15.4693 51.7147 14.504 51.7147 13.416C51.7147 12.2427 51.9654 11.2187 52.4667 10.344C52.968 9.45867 53.672 8.776 54.5787 8.296C55.4854 7.816 56.5254 7.576 57.6987 7.576C59.2454 7.576 60.536 7.944 61.5707 8.68V10.616C60.6427 9.82667 59.4107 9.432 57.8747 9.432C57.0534 9.432 56.3334 9.59733 55.7147 9.928C55.096 10.248 54.616 10.7067 54.2747 11.304C53.9334 11.9013 53.7627 12.6053 53.7627 13.416C53.7627 14.2267 53.9334 14.9307 54.2747 15.528C54.6267 16.1253 55.112 16.5893 55.7307 16.92C56.3494 17.24 57.064 17.4 57.8747 17.4C58.664 17.4 59.368 17.304 59.9867 17.112C60.6054 16.9093 61.176 16.5893 61.6987 16.152V18.088ZM65.882 19.24C64.9646 19.24 64.2126 19 63.626 18.52C63.0393 18.0293 62.746 17.3733 62.746 16.552C62.746 15.6987 63.0233 15.032 63.578 14.552C64.1326 14.072 64.9113 13.832 65.914 13.832C66.8846 13.832 67.722 14.0293 68.426 14.424V14.216C68.426 13.672 68.2553 13.2773 67.914 13.032C67.5833 12.7867 67.0446 12.664 66.298 12.664C65.8286 12.664 65.3646 12.712 64.906 12.808C64.4473 12.8933 64.042 13.016 63.69 13.176V11.592C64.01 11.4427 64.4366 11.32 64.97 11.224C65.514 11.128 66.0366 11.08 66.538 11.08C67.8713 11.08 68.858 11.368 69.498 11.944C70.138 12.5093 70.458 13.2987 70.458 14.312V19H68.554V18.248C68.2233 18.568 67.8446 18.8133 67.418 18.984C67.002 19.1547 66.49 19.24 65.882 19.24ZM66.378 17.768C66.826 17.768 67.2313 17.6827 67.594 17.512C67.9566 17.3307 68.234 17.0853 68.426 16.776V15.928C67.8393 15.512 67.1673 15.304 66.41 15.304C65.3326 15.304 64.794 15.72 64.794 16.552C64.794 16.9573 64.9273 17.2613 65.194 17.464C65.4713 17.6667 65.866 17.768 66.378 17.768ZM76.7963 10.44C75.9963 10.44 75.367 10.2213 74.9083 9.784C74.4497 9.336 74.2203 8.74933 74.2203 8.024H75.7403C75.7403 8.376 75.831 8.64267 76.0123 8.824C76.1937 9.00533 76.455 9.096 76.7963 9.096C77.1377 9.096 77.399 9.00533 77.5803 8.824C77.7617 8.64267 77.8523 8.376 77.8523 8.024H79.3723C79.3723 8.74933 79.143 9.336 78.6843 9.784C78.2257 10.2213 77.5963 10.44 76.7963 10.44ZM76.3643 22.68C75.8523 22.68 75.3403 22.632 74.8283 22.536C74.3163 22.44 73.8897 22.312 73.5483 22.152V20.552C74.3803 20.9147 75.319 21.096 76.3643 21.096C77.303 21.096 77.975 20.8987 78.3803 20.504C78.7963 20.1093 79.0043 19.5227 79.0043 18.744V18.248C78.6417 18.5787 78.2097 18.8293 77.7083 19C77.207 19.16 76.6683 19.24 76.0923 19.24C75.3137 19.24 74.6097 19.0693 73.9803 18.728C73.351 18.376 72.8603 17.8907 72.5083 17.272C72.1563 16.6533 71.9803 15.944 71.9803 15.144C71.9803 14.3333 72.151 13.624 72.4923 13.016C72.8443 12.3973 73.3243 11.9227 73.9323 11.592C74.551 11.2507 75.2497 11.08 76.0283 11.08C76.679 11.08 77.239 11.1707 77.7083 11.352C78.1777 11.5227 78.631 11.8107 79.0683 12.216V11.32H81.0203V18.536C81.0203 19.8587 80.6363 20.8773 79.8683 21.592C79.111 22.3173 77.943 22.68 76.3643 22.68ZM76.5243 17.656C77.1003 17.656 77.6123 17.5013 78.0603 17.192C78.519 16.872 78.8337 16.4507 79.0043 15.928V14.376C78.823 13.8533 78.5083 13.4373 78.0603 13.128C77.6123 12.8187 77.1003 12.664 76.5243 12.664C75.799 12.664 75.2017 12.8933 74.7323 13.352C74.263 13.8107 74.0283 14.408 74.0283 15.144C74.0283 15.88 74.263 16.4827 74.7323 16.952C75.2017 17.4213 75.799 17.656 76.5243 17.656ZM82.941 11.32H84.893V12.552C85.2023 12.136 85.6396 11.8267 86.205 11.624C86.781 11.4213 87.437 11.32 88.173 11.32V12.856C87.3943 12.856 86.717 12.9787 86.141 13.224C85.5756 13.4587 85.181 13.832 84.957 14.344V19H82.941V11.32ZM89.4566 11.32H91.5046V19H89.4566V11.32ZM99.191 7.816H101.175L104.919 16.008L108.663 7.816H110.647V19H108.727V11.736L105.399 19H104.439L101.111 11.736V19H99.191V7.816ZM116.886 19.24C115.457 19.24 114.326 18.8827 113.494 18.168C112.662 17.4533 112.246 16.456 112.246 15.176C112.246 13.9173 112.614 12.92 113.35 12.184C114.086 11.448 115.137 11.08 116.502 11.08C117.398 11.08 118.161 11.2507 118.79 11.592C119.43 11.9333 119.91 12.4027 120.23 13C120.55 13.5867 120.71 14.2587 120.71 15.016V15.944H114.166C114.305 17.0853 115.297 17.656 117.142 17.656C117.633 17.656 118.134 17.6133 118.646 17.528C119.158 17.4427 119.606 17.3253 119.99 17.176V18.728C119.627 18.8773 119.158 19 118.582 19.096C118.017 19.192 117.451 19.24 116.886 19.24ZM118.806 14.568C118.785 13.96 118.566 13.4907 118.15 13.16C117.745 12.8293 117.185 12.664 116.47 12.664C115.766 12.664 115.211 12.8347 114.806 13.176C114.401 13.5173 114.187 13.9813 114.166 14.568H118.806ZM122.316 11.32H124.268V12.552C124.577 12.136 125.015 11.8267 125.58 11.624C126.156 11.4213 126.812 11.32 127.548 11.32V12.856C126.769 12.856 126.092 12.9787 125.516 13.224C124.951 13.4587 124.556 13.832 124.332 14.344V19H122.316V11.32ZM128.832 7.176H130.848V14.696L133.904 11.32H136.272L132.848 15.08L136.656 19H134.288L130.848 15.448V19H128.832V7.176ZM142.573 19.24C141.144 19.24 140.013 18.8827 139.181 18.168C138.349 17.4533 137.933 16.456 137.933 15.176C137.933 13.9173 138.301 12.92 139.037 12.184C139.773 11.448 140.824 11.08 142.189 11.08C143.085 11.08 143.848 11.2507 144.477 11.592C145.117 11.9333 145.597 12.4027 145.917 13C146.237 13.5867 146.397 14.2587 146.397 15.016V15.944H139.853C139.992 17.0853 140.984 17.656 142.829 17.656C143.32 17.656 143.821 17.6133 144.333 17.528C144.845 17.4427 145.293 17.3253 145.677 17.176V18.728C145.315 18.8773 144.845 19 144.269 19.096C143.704 19.192 143.139 19.24 142.573 19.24ZM144.493 14.568C144.472 13.96 144.253 13.4907 143.837 13.16C143.432 12.8293 142.872 12.664 142.157 12.664C141.453 12.664 140.899 12.8347 140.493 13.176C140.088 13.5173 139.875 13.9813 139.853 14.568H144.493ZM147.683 17.736L151.763 12.856H147.795V11.32H154.291V12.584L150.227 17.464H154.419V19H147.683V17.736ZM157.155 9.976C156.835 9.976 156.563 9.86933 156.339 9.656C156.126 9.44267 156.019 9.176 156.019 8.856C156.019 8.536 156.126 8.26933 156.339 8.056C156.563 7.832 156.835 7.72 157.155 7.72C157.475 7.72 157.747 7.832 157.971 8.056C158.195 8.26933 158.307 8.536 158.307 8.856C158.307 9.176 158.195 9.44267 157.971 9.656C157.747 9.86933 157.475 9.976 157.155 9.976ZM156.131 11.32H158.179V19H156.131V11.32ZM58.2061 37.088C57.6301 36.144 57.3421 35.032 57.3421 33.752C57.3421 33.128 57.4141 32.464 57.5581 31.76C57.7821 30.712 58.1421 29.74 58.6381 28.844C59.1341 27.94 59.7421 27.136 60.4621 26.432H61.7461C60.9781 27.208 60.3461 28.032 59.8501 28.904C59.3621 29.776 59.0101 30.728 58.7941 31.76C58.6581 32.392 58.5901 33.02 58.5901 33.644C58.5901 34.876 58.8901 36.024 59.4901 37.088H58.2061ZM64.279 35.18C63.439 35.18 62.775 34.912 62.287 34.376C61.807 33.84 61.567 33.1 61.567 32.156C61.567 31.724 61.619 31.276 61.723 30.812C62.019 29.436 62.547 28.364 63.307 27.596C64.067 26.82 65.011 26.432 66.139 26.432C66.987 26.432 67.651 26.7 68.131 27.236C68.619 27.772 68.863 28.512 68.863 29.456C68.863 29.888 68.811 30.34 68.707 30.812C68.419 32.172 67.887 33.24 67.111 34.016C66.335 34.792 65.391 35.18 64.279 35.18ZM64.507 34.1C65.219 34.1 65.839 33.808 66.367 33.224C66.903 32.632 67.275 31.832 67.483 30.824C67.595 30.288 67.651 29.824 67.651 29.432C67.651 28.168 67.071 27.536 65.911 27.536C65.191 27.536 64.567 27.832 64.039 28.424C63.511 29.016 63.139 29.816 62.923 30.824C62.819 31.344 62.767 31.78 62.767 32.132C62.767 33.444 63.347 34.1 64.507 34.1ZM71.9215 35.18C71.1135 35.18 70.4775 35.016 70.0135 34.688C69.5495 34.36 69.3175 33.888 69.3175 33.272C69.3175 33.12 69.3375 32.932 69.3775 32.708C69.4895 32.172 69.7255 31.724 70.0855 31.364C70.4455 30.996 70.8695 30.748 71.3575 30.62C71.0775 30.492 70.8575 30.304 70.6975 30.056C70.5455 29.808 70.4695 29.52 70.4695 29.192C70.4695 29.032 70.4855 28.876 70.5175 28.724C70.6695 28.02 71.0375 27.464 71.6215 27.056C72.2135 26.64 72.9335 26.432 73.7815 26.432C74.4935 26.432 75.0615 26.596 75.4855 26.924C75.9095 27.244 76.1215 27.684 76.1215 28.244C76.1215 28.412 76.1055 28.572 76.0735 28.724C75.9775 29.164 75.7815 29.552 75.4855 29.888C75.1975 30.216 74.8415 30.46 74.4175 30.62C74.7775 30.724 75.0615 30.912 75.2695 31.184C75.4775 31.448 75.5815 31.78 75.5815 32.18C75.5815 32.316 75.5615 32.492 75.5215 32.708C75.3535 33.5 74.9455 34.112 74.2975 34.544C73.6575 34.968 72.8655 35.18 71.9215 35.18ZM72.9775 30.248C73.4495 30.248 73.8615 30.12 74.2135 29.864C74.5655 29.6 74.7855 29.256 74.8735 28.832C74.9055 28.696 74.9215 28.552 74.9215 28.4C74.9215 27.712 74.4775 27.368 73.5895 27.368C73.2295 27.368 72.8975 27.448 72.5935 27.608C72.2975 27.76 72.0655 27.976 71.8975 28.256C71.7295 28.528 71.6455 28.836 71.6455 29.18C71.6455 29.516 71.7575 29.78 71.9815 29.972C72.2055 30.156 72.5375 30.248 72.9775 30.248ZM72.1135 34.292C72.6895 34.292 73.1735 34.144 73.5655 33.848C73.9575 33.552 74.2095 33.144 74.3215 32.624C74.3535 32.432 74.3695 32.296 74.3695 32.216C74.3695 31.832 74.2375 31.536 73.9735 31.328C73.7095 31.12 73.3215 31.016 72.8095 31.016C72.2575 31.016 71.7775 31.16 71.3695 31.448C70.9695 31.736 70.7175 32.128 70.6135 32.624C70.5735 32.808 70.5535 32.964 70.5535 33.092C70.5535 33.476 70.6855 33.772 70.9495 33.98C71.2135 34.188 71.6015 34.292 72.1135 34.292ZM78.4083 35.18C77.9683 35.18 77.5483 35.132 77.1483 35.036C76.7563 34.948 76.4323 34.824 76.1763 34.664L76.4163 33.572C76.7043 33.772 77.0443 33.928 77.4363 34.04C77.8283 34.144 78.2123 34.196 78.5883 34.196C79.3163 34.196 79.9003 34.044 80.3403 33.74C80.7803 33.428 81.0643 32.972 81.1923 32.372C81.2403 32.164 81.2643 31.98 81.2643 31.82C81.2643 31.42 81.1243 31.12 80.8443 30.92C80.5643 30.72 80.1123 30.62 79.4883 30.62C79.2003 30.62 78.8923 30.648 78.5643 30.704C78.2363 30.76 77.9403 30.836 77.6763 30.932L77.1963 30.62L78.3603 26.612H83.0523L82.8363 27.644H79.2603L78.6243 29.804C79.1283 29.7 79.6403 29.648 80.1603 29.648C80.8803 29.648 81.4483 29.836 81.8643 30.212C82.2883 30.58 82.5003 31.084 82.5003 31.724C82.5003 31.924 82.4763 32.14 82.4283 32.372C82.0363 34.244 80.6963 35.18 78.4083 35.18ZM86.404 35.18C85.564 35.18 84.9 34.912 84.412 34.376C83.932 33.84 83.692 33.1 83.692 32.156C83.692 31.724 83.744 31.276 83.848 30.812C84.144 29.436 84.672 28.364 85.432 27.596C86.192 26.82 87.136 26.432 88.264 26.432C89.112 26.432 89.776 26.7 90.256 27.236C90.744 27.772 90.988 28.512 90.988 29.456C90.988 29.888 90.936 30.34 90.832 30.812C90.544 32.172 90.012 33.24 89.236 34.016C88.46 34.792 87.516 35.18 86.404 35.18ZM86.632 34.1C87.344 34.1 87.964 33.808 88.492 33.224C89.028 32.632 89.4 31.832 89.608 30.824C89.72 30.288 89.776 29.824 89.776 29.432C89.776 28.168 89.196 27.536 88.036 27.536C87.316 27.536 86.692 27.832 86.164 28.424C85.636 29.016 85.264 29.816 85.048 30.824C84.944 31.344 84.892 31.78 84.892 32.132C84.892 33.444 85.472 34.1 86.632 34.1ZM97.9719 35.18C97.4919 35.18 97.0359 35.14 96.6039 35.06C96.1719 34.988 95.8079 34.876 95.5119 34.724L95.7279 33.716C96.3999 34.052 97.1639 34.22 98.0199 34.22C98.7559 34.22 99.3319 34.088 99.7479 33.824C100.164 33.552 100.424 33.168 100.528 32.672C100.552 32.536 100.564 32.42 100.564 32.324C100.564 31.94 100.4 31.664 100.072 31.496C99.7519 31.328 99.2599 31.244 98.5959 31.244H97.6119L97.8159 30.26H98.7759C99.3759 30.26 99.8879 30.14 100.312 29.9C100.736 29.652 100.996 29.292 101.092 28.82C101.124 28.684 101.14 28.544 101.14 28.4C101.14 28.064 101.016 27.816 100.768 27.656C100.528 27.488 100.144 27.404 99.6159 27.404C99.1679 27.404 98.7519 27.456 98.3679 27.56C97.9919 27.664 97.5839 27.836 97.1439 28.076L97.3599 27.068C98.1439 26.644 99.0119 26.432 99.9639 26.432C100.74 26.432 101.336 26.604 101.752 26.948C102.176 27.284 102.388 27.732 102.388 28.292C102.388 28.468 102.372 28.632 102.34 28.784C102.252 29.232 102.048 29.624 101.728 29.96C101.416 30.296 101 30.556 100.48 30.74C100.912 30.844 101.24 31.032 101.464 31.304C101.688 31.576 101.8 31.9 101.8 32.276C101.8 32.372 101.784 32.516 101.752 32.708C101.6 33.468 101.212 34.072 100.588 34.52C99.9719 34.96 99.0999 35.18 97.9719 35.18ZM105.799 35.18C104.959 35.18 104.295 34.912 103.807 34.376C103.327 33.84 103.087 33.1 103.087 32.156C103.087 31.724 103.139 31.276 103.243 30.812C103.539 29.436 104.067 28.364 104.827 27.596C105.587 26.82 106.531 26.432 107.659 26.432C108.507 26.432 109.171 26.7 109.651 27.236C110.139 27.772 110.383 28.512 110.383 29.456C110.383 29.888 110.331 30.34 110.227 30.812C109.939 32.172 109.407 33.24 108.631 34.016C107.855 34.792 106.911 35.18 105.799 35.18ZM106.027 34.1C106.739 34.1 107.359 33.808 107.887 33.224C108.423 32.632 108.795 31.832 109.003 30.824C109.115 30.288 109.171 29.824 109.171 29.432C109.171 28.168 108.591 27.536 107.431 27.536C106.711 27.536 106.087 27.832 105.559 28.424C105.031 29.016 104.659 29.816 104.443 30.824C104.339 31.344 104.287 31.78 104.287 32.132C104.287 33.444 104.867 34.1 106.027 34.1ZM112.925 35.18C112.445 35.18 111.989 35.14 111.557 35.06C111.125 34.988 110.761 34.876 110.465 34.724L110.681 33.716C111.353 34.052 112.117 34.22 112.973 34.22C113.709 34.22 114.285 34.088 114.701 33.824C115.117 33.552 115.377 33.168 115.481 32.672C115.505 32.536 115.517 32.42 115.517 32.324C115.517 31.94 115.353 31.664 115.025 31.496C114.705 31.328 114.213 31.244 113.549 31.244H112.565L112.769 30.26H113.729C114.329 30.26 114.841 30.14 115.265 29.9C115.689 29.652 115.949 29.292 116.045 28.82C116.077 28.684 116.093 28.544 116.093 28.4C116.093 28.064 115.969 27.816 115.721 27.656C115.481 27.488 115.097 27.404 114.569 27.404C114.121 27.404 113.705 27.456 113.321 27.56C112.945 27.664 112.537 27.836 112.097 28.076L112.313 27.068C113.097 26.644 113.965 26.432 114.917 26.432C115.693 26.432 116.289 26.604 116.705 26.948C117.129 27.284 117.341 27.732 117.341 28.292C117.341 28.468 117.325 28.632 117.293 28.784C117.205 29.232 117.001 29.624 116.681 29.96C116.369 30.296 115.953 30.556 115.433 30.74C115.865 30.844 116.193 31.032 116.417 31.304C116.641 31.576 116.753 31.9 116.753 32.276C116.753 32.372 116.737 32.516 116.705 32.708C116.553 33.468 116.165 34.072 115.541 34.52C114.925 34.96 114.053 35.18 112.925 35.18ZM124.257 35.18C123.777 35.18 123.321 35.14 122.889 35.06C122.457 34.988 122.093 34.876 121.797 34.724L122.013 33.716C122.685 34.052 123.449 34.22 124.305 34.22C125.041 34.22 125.617 34.088 126.033 33.824C126.449 33.552 126.709 33.168 126.813 32.672C126.837 32.536 126.849 32.42 126.849 32.324C126.849 31.94 126.685 31.664 126.357 31.496C126.037 31.328 125.545 31.244 124.881 31.244H123.897L124.101 30.26H125.061C125.661 30.26 126.173 30.14 126.597 29.9C127.021 29.652 127.281 29.292 127.377 28.82C127.409 28.684 127.425 28.544 127.425 28.4C127.425 28.064 127.301 27.816 127.053 27.656C126.813 27.488 126.429 27.404 125.901 27.404C125.453 27.404 125.037 27.456 124.653 27.56C124.277 27.664 123.869 27.836 123.429 28.076L123.645 27.068C124.429 26.644 125.297 26.432 126.249 26.432C127.025 26.432 127.621 26.604 128.037 26.948C128.461 27.284 128.673 27.732 128.673 28.292C128.673 28.468 128.657 28.632 128.625 28.784C128.537 29.232 128.333 29.624 128.013 29.96C127.701 30.296 127.285 30.556 126.765 30.74C127.197 30.844 127.525 31.032 127.749 31.304C127.973 31.576 128.085 31.9 128.085 32.276C128.085 32.372 128.069 32.516 128.037 32.708C127.885 33.468 127.497 34.072 126.873 34.52C126.257 34.96 125.385 35.18 124.257 35.18ZM130.848 35.18C130.4 35.18 130.02 35.132 129.708 35.036L129.924 34.016C130.212 34.136 130.56 34.196 130.968 34.196C132.688 34.196 133.848 33.168 134.448 31.112C134.144 31.416 133.78 31.644 133.356 31.796C132.94 31.948 132.492 32.024 132.012 32.024C131.596 32.024 131.216 31.94 130.872 31.772C130.536 31.596 130.268 31.348 130.068 31.028C129.876 30.708 129.78 30.332 129.78 29.9C129.78 29.7 129.804 29.492 129.852 29.276C129.972 28.732 130.196 28.244 130.524 27.812C130.86 27.38 131.284 27.044 131.796 26.804C132.316 26.556 132.892 26.432 133.524 26.432C134.292 26.432 134.904 26.648 135.36 27.08C135.816 27.512 136.044 28.132 136.044 28.94C136.044 29.284 136.004 29.644 135.924 30.02C135.188 33.46 133.496 35.18 130.848 35.18ZM132.54 31.064C133.068 31.064 133.544 30.896 133.968 30.56C134.4 30.224 134.676 29.78 134.796 29.228C134.828 29.092 134.844 28.936 134.844 28.76C134.844 28.352 134.716 28.024 134.46 27.776C134.212 27.52 133.832 27.392 133.32 27.392C132.76 27.392 132.276 27.56 131.868 27.896C131.46 28.232 131.196 28.68 131.076 29.24C131.036 29.456 131.016 29.632 131.016 29.768C131.016 30.184 131.144 30.504 131.4 30.728C131.656 30.952 132.036 31.064 132.54 31.064ZM141.844 27.644H137.392L137.608 26.612H143.308L143.116 27.512L138.16 35H136.96L141.844 27.644ZM144.999 35.18C144.519 35.18 144.063 35.14 143.631 35.06C143.199 34.988 142.835 34.876 142.539 34.724L142.755 33.716C143.427 34.052 144.191 34.22 145.047 34.22C145.783 34.22 146.359 34.088 146.775 33.824C147.191 33.552 147.451 33.168 147.555 32.672C147.579 32.536 147.591 32.42 147.591 32.324C147.591 31.94 147.427 31.664 147.099 31.496C146.779 31.328 146.287 31.244 145.623 31.244H144.639L144.843 30.26H145.803C146.403 30.26 146.915 30.14 147.339 29.9C147.763 29.652 148.023 29.292 148.119 28.82C148.151 28.684 148.167 28.544 148.167 28.4C148.167 28.064 148.043 27.816 147.795 27.656C147.555 27.488 147.171 27.404 146.643 27.404C146.195 27.404 145.779 27.456 145.395 27.56C145.019 27.664 144.611 27.836 144.171 28.076L144.387 27.068C145.171 26.644 146.039 26.432 146.991 26.432C147.767 26.432 148.363 26.604 148.779 26.948C149.203 27.284 149.415 27.732 149.415 28.292C149.415 28.468 149.399 28.632 149.367 28.784C149.279 29.232 149.075 29.624 148.755 29.96C148.443 30.296 148.027 30.556 147.507 30.74C147.939 30.844 148.267 31.032 148.491 31.304C148.715 31.576 148.827 31.9 148.827 32.276C148.827 32.372 148.811 32.516 148.779 32.708C148.627 33.468 148.239 34.072 147.615 34.52C146.999 34.96 146.127 35.18 144.999 35.18ZM148.77 37.088C149.538 36.312 150.166 35.488 150.654 34.616C151.142 33.744 151.494 32.792 151.71 31.76C151.846 31.128 151.914 30.5 151.914 29.876C151.914 28.644 151.614 27.496 151.014 26.432H152.298C152.874 27.376 153.162 28.488 153.162 29.768C153.162 30.4 153.09 31.064 152.946 31.76C152.722 32.816 152.362 33.792 151.866 34.688C151.37 35.584 150.762 36.384 150.042 37.088H148.77Z" fill="white"/>
</svg>
