<svg width="200" height="54" viewBox="0 0 200 54" fill="none" xmlns="http://www.w3.org/2000/svg">
<g filter="url(#filter0_d_780_3726)">
<path d="M6 7C6 3.13401 9.13401 0 13 0H191C194.866 0 198 3.13401 198 7V39C198 42.866 194.866 46 191 46H13C9.134 46 6 42.866 6 39V7Z" fill="#009EE3"/>
<path d="M6.1 7C6.1 3.18924 9.18924 0.1 13 0.1H191C194.811 0.1 197.9 3.18923 197.9 7V39C197.9 42.8108 194.811 45.9 191 45.9H13C9.18923 45.9 6.1 42.8108 6.1 39V7Z" stroke="white" stroke-width="0.2"/>
</g>
<path d="M56.253 15.816H59.997C61.213 15.816 62.269 16.04 63.165 16.488C64.061 16.936 64.749 17.576 65.229 18.408C65.709 19.24 65.949 20.2213 65.949 21.352C65.949 23.208 65.4103 24.616 64.333 25.576C63.2556 26.5253 61.7516 27 59.821 27H56.253V15.816ZM59.853 25.32C61.1543 25.32 62.1516 24.9733 62.845 24.28C63.549 23.576 63.901 22.6 63.901 21.352C63.901 20.5947 63.7463 19.928 63.437 19.352C63.1276 18.7653 62.685 18.312 62.109 17.992C61.533 17.6613 60.8503 17.496 60.061 17.496H58.285V25.32H59.853ZM71.8698 27.24C70.4405 27.24 69.3098 26.8827 68.4778 26.168C67.6458 25.4533 67.2298 24.456 67.2298 23.176C67.2298 21.9173 67.5978 20.92 68.3338 20.184C69.0698 19.448 70.1205 19.08 71.4858 19.08C72.3818 19.08 73.1445 19.2507 73.7738 19.592C74.4138 19.9333 74.8938 20.4027 75.2138 21C75.5338 21.5867 75.6938 22.2587 75.6938 23.016V23.944H69.1498C69.2885 25.0853 70.2805 25.656 72.1258 25.656C72.6165 25.656 73.1178 25.6133 73.6298 25.528C74.1418 25.4427 74.5898 25.3253 74.9738 25.176V26.728C74.6112 26.8773 74.1418 27 73.5658 27.096C73.0005 27.192 72.4352 27.24 71.8698 27.24ZM73.7898 22.568C73.7685 21.96 73.5498 21.4907 73.1338 21.16C72.7285 20.8293 72.1685 20.664 71.4538 20.664C70.7498 20.664 70.1952 20.8347 69.7898 21.176C69.3845 21.5173 69.1712 21.9813 69.1498 22.568H73.7898ZM80.3878 27.24C79.5452 27.24 78.9052 27.0053 78.4678 26.536C78.0305 26.0667 77.8118 25.4053 77.8118 24.552V20.856H76.6598V19.32H77.8118V17.016H79.8278V19.32H81.6678V20.856H79.8278V24.296C79.8278 24.7867 79.9185 25.1387 80.0998 25.352C80.2812 25.5547 80.6118 25.656 81.0918 25.656C81.4225 25.656 81.7478 25.5813 82.0678 25.432V26.968C81.6092 27.1493 81.0492 27.24 80.3878 27.24ZM86.0846 27.24C85.1673 27.24 84.4153 27 83.8286 26.52C83.2419 26.0293 82.9486 25.3733 82.9486 24.552C82.9486 23.6987 83.2259 23.032 83.7806 22.552C84.3353 22.072 85.1139 21.832 86.1166 21.832C87.0873 21.832 87.9246 22.0293 88.6286 22.424V22.216C88.6286 21.672 88.4579 21.2773 88.1166 21.032C87.7859 20.7867 87.2473 20.664 86.5006 20.664C86.0313 20.664 85.5673 20.712 85.1086 20.808C84.6499 20.8933 84.2446 21.016 83.8926 21.176V19.592C84.2126 19.4427 84.6393 19.32 85.1726 19.224C85.7166 19.128 86.2393 19.08 86.7406 19.08C88.0739 19.08 89.0606 19.368 89.7006 19.944C90.3406 20.5093 90.6606 21.2987 90.6606 22.312V27H88.7566V26.248C88.4259 26.568 88.0473 26.8133 87.6206 26.984C87.2046 27.1547 86.6926 27.24 86.0846 27.24ZM86.5806 25.768C87.0286 25.768 87.4339 25.6827 87.7966 25.512C88.1593 25.3307 88.4366 25.0853 88.6286 24.776V23.928C88.0419 23.512 87.3699 23.304 86.6126 23.304C85.5353 23.304 84.9966 23.72 84.9966 24.552C84.9966 24.9573 85.1299 25.2613 85.3966 25.464C85.6739 25.6667 86.0686 25.768 86.5806 25.768ZM93.6242 30.168C93.3469 30.168 93.0536 30.1467 92.7442 30.104C92.4456 30.072 92.2109 30.024 92.0402 29.96V28.424C92.3069 28.5307 92.6376 28.584 93.0322 28.584C93.4376 28.584 93.7416 28.4933 93.9442 28.312C94.1469 28.1307 94.3229 27.8427 94.4722 27.448L94.7762 26.648L91.4642 19.32H93.4962L95.8642 24.92L98.0882 19.32H100.104L96.7442 27.688C96.4029 28.5307 95.9869 29.1547 95.4962 29.56C95.0162 29.9653 94.3922 30.168 93.6242 30.168ZM101.378 15.176H103.394V27H101.378V15.176ZM105.315 19.32H107.363V27H105.315V19.32ZM115.05 15.816H120.362C121.386 15.816 122.181 16.072 122.746 16.584C123.322 17.096 123.61 17.8427 123.61 18.824C123.61 19.3467 123.482 19.8213 123.226 20.248C122.981 20.664 122.65 20.984 122.234 21.208C123.397 21.592 123.978 22.4507 123.978 23.784C123.978 24.4453 123.829 25.0213 123.53 25.512C123.231 25.992 122.826 26.36 122.314 26.616C121.813 26.872 121.253 27 120.634 27H115.05V15.816ZM120.042 20.472C120.501 20.472 120.869 20.3493 121.146 20.104C121.423 19.848 121.562 19.464 121.562 18.952C121.562 18.3653 121.423 17.9653 121.146 17.752C120.879 17.528 120.479 17.416 119.946 17.416H117.066V20.472H120.042ZM120.17 25.4C120.735 25.4 121.167 25.2827 121.466 25.048C121.775 24.8133 121.93 24.3973 121.93 23.8C121.93 23.2027 121.77 22.7707 121.45 22.504C121.13 22.2373 120.666 22.104 120.058 22.104H117.066V25.4H120.17ZM126.717 17.976C126.397 17.976 126.125 17.8693 125.901 17.656C125.688 17.4427 125.581 17.176 125.581 16.856C125.581 16.536 125.688 16.2693 125.901 16.056C126.125 15.832 126.397 15.72 126.717 15.72C127.037 15.72 127.309 15.832 127.533 16.056C127.757 16.2693 127.869 16.536 127.869 16.856C127.869 17.176 127.757 17.4427 127.533 17.656C127.309 17.8693 127.037 17.976 126.717 17.976ZM125.693 19.32H127.741V27H125.693V19.32ZM129.784 15.176H131.8V27H129.784V15.176ZM137.786 30.68C137.274 30.68 136.762 30.632 136.25 30.536C135.738 30.44 135.311 30.312 134.97 30.152V28.552C135.802 28.9147 136.74 29.096 137.786 29.096C138.724 29.096 139.396 28.8987 139.802 28.504C140.218 28.1093 140.426 27.5227 140.426 26.744V26.248C140.063 26.5787 139.631 26.8293 139.13 27C138.628 27.16 138.09 27.24 137.514 27.24C136.735 27.24 136.031 27.0693 135.402 26.728C134.772 26.376 134.282 25.8907 133.93 25.272C133.578 24.6533 133.402 23.944 133.402 23.144C133.402 22.3333 133.572 21.624 133.914 21.016C134.266 20.3973 134.746 19.9227 135.354 19.592C135.972 19.2507 136.671 19.08 137.45 19.08C138.1 19.08 138.66 19.1707 139.13 19.352C139.599 19.5227 140.052 19.8107 140.49 20.216V19.32H142.442V26.536C142.442 27.8587 142.058 28.8773 141.29 29.592C140.532 30.3173 139.364 30.68 137.786 30.68ZM137.946 25.656C138.522 25.656 139.034 25.5013 139.482 25.192C139.94 24.872 140.255 24.4507 140.426 23.928V22.376C140.244 21.8533 139.93 21.4373 139.482 21.128C139.034 20.8187 138.522 20.664 137.946 20.664C137.22 20.664 136.623 20.8933 136.154 21.352C135.684 21.8107 135.45 22.408 135.45 23.144C135.45 23.88 135.684 24.4827 136.154 24.952C136.623 25.4213 137.22 25.656 137.946 25.656ZM145.498 17.976C145.178 17.976 144.906 17.8693 144.682 17.656C144.469 17.4427 144.362 17.176 144.362 16.856C144.362 16.536 144.469 16.2693 144.682 16.056C144.906 15.832 145.178 15.72 145.498 15.72C145.818 15.72 146.09 15.832 146.314 16.056C146.538 16.2693 146.65 16.536 146.65 16.856C146.65 17.176 146.538 17.4427 146.314 17.656C146.09 17.8693 145.818 17.976 145.498 17.976ZM144.474 19.32H146.522V27H144.474V19.32Z" fill="white"/>
<defs>
<filter id="filter0_d_780_3726" x="0" y="0" width="200" height="54" filterUnits="userSpaceOnUse" color-interpolation-filters="sRGB">
<feFlood flood-opacity="0" result="BackgroundImageFix"/>
<feColorMatrix in="SourceAlpha" type="matrix" values="0 0 0 0 0 0 0 0 0 0 0 0 0 0 0 0 0 0 127 0" result="hardAlpha"/>
<feOffset dx="-2" dy="4"/>
<feGaussianBlur stdDeviation="2"/>
<feComposite in2="hardAlpha" operator="out"/>
<feColorMatrix type="matrix" values="0 0 0 0 0 0 0 0 0 0 0 0 0 0 0 0 0 0 0.2 0"/>
<feBlend mode="normal" in2="BackgroundImageFix" result="effect1_dropShadow_780_3726"/>
<feBlend mode="normal" in="SourceGraphic" in2="effect1_dropShadow_780_3726" result="shape"/>
</filter>
</defs>
</svg>
