<svg width="178" height="54" viewBox="0 0 178 54" fill="none" xmlns="http://www.w3.org/2000/svg">
<g filter="url(#filter0_d_347_154)">
<path d="M6 7C6 3.13401 9.13401 0 13 0H169C172.866 0 176 3.13401 176 7V39C176 42.866 172.866 46 169 46H13C9.13401 46 6 42.866 6 39V7Z" fill="#009EE3"/>
<path d="M13 0.1H169C172.811 0.1 175.9 3.18924 175.9 7V39C175.9 42.8108 172.811 45.9 169 45.9H13C9.18924 45.9 6.1 42.8108 6.1 39V7C6.1 3.18924 9.18924 0.1 13 0.1Z" stroke="white" stroke-width="0.2"/>
</g>
<circle cx="28.9487" cy="18" r="4" fill="white"/>
<path fill-rule="evenodd" clip-rule="evenodd" d="M35.8951 28.2532C35.9104 28.3587 35.8535 28.4613 35.755 28.5021C34.5535 29 32.784 29 29.9487 29H27.9487C25.1135 29 23.344 29 22.1425 28.5022C22.044 28.4614 21.9872 28.3587 22.0025 28.2532C22.4314 25.2919 25.3778 23 28.9488 23C32.5197 23 35.4661 25.2919 35.8951 28.2532Z" fill="white"/>
<path d="M48.8719 27.24C47.7519 27.24 46.7386 27 45.8319 26.52C44.9359 26.0293 44.2266 25.3413 43.7039 24.456C43.1919 23.5707 42.9359 22.5573 42.9359 21.416C42.9359 20.2747 43.1919 19.2613 43.7039 18.376C44.2266 17.4907 44.9359 16.8027 45.8319 16.312C46.7386 15.8213 47.7519 15.576 48.8719 15.576C49.9812 15.576 50.9839 15.8213 51.8799 16.312C52.7866 16.8027 53.4959 17.4907 54.0079 18.376C54.5306 19.2613 54.7919 20.2747 54.7919 21.416C54.7919 22.5573 54.5306 23.5707 54.0079 24.456C53.4959 25.3307 52.7866 26.0133 51.8799 26.504C50.9839 26.9947 49.9812 27.24 48.8719 27.24ZM48.8719 25.4C49.5866 25.4 50.2372 25.24 50.8239 24.92C51.4106 24.5893 51.8746 24.1253 52.2159 23.528C52.5679 22.92 52.7439 22.216 52.7439 21.416C52.7439 20.6267 52.5732 19.9333 52.2319 19.336C51.8906 18.728 51.4266 18.2587 50.8399 17.928C50.2532 17.5973 49.5972 17.432 48.8719 17.432C48.1466 17.432 47.4852 17.5973 46.8879 17.928C46.3012 18.2587 45.8372 18.728 45.4959 19.336C45.1546 19.9333 44.9839 20.6267 44.9839 21.416C44.9839 22.216 45.1546 22.92 45.4959 23.528C45.8479 24.1253 46.3172 24.5893 46.9039 24.92C47.5012 25.24 48.1572 25.4 48.8719 25.4ZM56.3965 19.32H58.3485V20.36C58.7112 19.9227 59.1432 19.6027 59.6445 19.4C60.1459 19.1867 60.6739 19.08 61.2285 19.08C62.2632 19.08 63.0365 19.3627 63.5485 19.928C64.0605 20.4827 64.3165 21.224 64.3165 22.152V27H62.3005V22.344C62.3005 21.224 61.7779 20.664 60.7325 20.664C60.2739 20.664 59.8419 20.776 59.4365 21C59.0312 21.2133 58.6899 21.5387 58.4125 21.976V27H56.3965V19.32ZM66.1621 15.176H68.1781V27H66.1621V15.176ZM71.2356 17.976C70.9156 17.976 70.6436 17.8693 70.4196 17.656C70.2063 17.4427 70.0996 17.176 70.0996 16.856C70.0996 16.536 70.2063 16.2693 70.4196 16.056C70.6436 15.832 70.9156 15.72 71.2356 15.72C71.5556 15.72 71.8276 15.832 72.0516 16.056C72.2756 16.2693 72.3876 16.536 72.3876 16.856C72.3876 17.176 72.2756 17.4427 72.0516 17.656C71.8276 17.8693 71.5556 17.976 71.2356 17.976ZM70.2116 19.32H72.2596V27H70.2116V19.32ZM74.3028 19.32H76.2548V20.36C76.6174 19.9227 77.0494 19.6027 77.5508 19.4C78.0521 19.1867 78.5801 19.08 79.1348 19.08C80.1694 19.08 80.9428 19.3627 81.4548 19.928C81.9668 20.4827 82.2228 21.224 82.2228 22.152V27H80.2068V22.344C80.2068 21.224 79.6841 20.664 78.6388 20.664C78.1801 20.664 77.7481 20.776 77.3428 21C76.9374 21.2133 76.5961 21.5387 76.3188 21.976V27H74.3028V19.32ZM88.3884 27.24C86.9591 27.24 85.8284 26.8827 84.9964 26.168C84.1644 25.4533 83.7484 24.456 83.7484 23.176C83.7484 21.9173 84.1164 20.92 84.8524 20.184C85.5884 19.448 86.6391 19.08 88.0044 19.08C88.9004 19.08 89.6631 19.2507 90.2924 19.592C90.9324 19.9333 91.4124 20.4027 91.7324 21C92.0524 21.5867 92.2124 22.2587 92.2124 23.016V23.944H85.6684C85.8071 25.0853 86.7991 25.656 88.6444 25.656C89.1351 25.656 89.6364 25.6133 90.1484 25.528C90.6604 25.4427 91.1084 25.3253 91.4924 25.176V26.728C91.1297 26.8773 90.6604 27 90.0844 27.096C89.5191 27.192 88.9537 27.24 88.3884 27.24ZM90.3084 22.568C90.2871 21.96 90.0684 21.4907 89.6524 21.16C89.2471 20.8293 88.6871 20.664 87.9724 20.664C87.2684 20.664 86.7137 20.8347 86.3084 21.176C85.9031 21.5173 85.6897 21.9813 85.6684 22.568H90.3084ZM100.656 14.968C100.368 14.968 100.117 14.8667 99.904 14.664C99.6907 14.4507 99.584 14.2 99.584 13.912C99.584 13.6133 99.6907 13.3627 99.904 13.16C100.117 12.9467 100.368 12.84 100.656 12.84C100.944 12.84 101.189 12.9467 101.392 13.16C101.605 13.3627 101.712 13.6133 101.712 13.912C101.712 14.2107 101.605 14.4613 101.392 14.664C101.189 14.8667 100.944 14.968 100.656 14.968ZM99.632 15.816H101.664V27H99.632V15.816ZM110.015 24.984C110.015 25.6027 109.775 26.1147 109.295 26.52C108.826 26.9147 108.132 27.1493 107.215 27.224L106.975 27.832C107.434 27.8853 107.786 28.0507 108.031 28.328C108.287 28.616 108.415 28.9733 108.415 29.4C108.415 29.9013 108.207 30.2853 107.791 30.552C107.375 30.8293 106.815 30.968 106.111 30.968C105.823 30.968 105.546 30.9467 105.279 30.904C105.012 30.872 104.804 30.8293 104.655 30.776L104.671 29.672C104.788 29.7253 104.932 29.768 105.103 29.8C105.274 29.8427 105.439 29.864 105.599 29.864C106.228 29.864 106.543 29.6453 106.543 29.208C106.543 28.952 106.415 28.744 106.159 28.584C105.914 28.4347 105.514 28.36 104.959 28.36L105.423 27.144C104.527 27.016 103.844 26.808 103.375 26.52V24.808C103.791 25.064 104.287 25.272 104.863 25.432C105.439 25.5813 105.983 25.656 106.495 25.656C107.007 25.656 107.38 25.6133 107.615 25.528C107.85 25.432 107.967 25.2613 107.967 25.016C107.967 24.824 107.903 24.6693 107.775 24.552C107.658 24.424 107.46 24.312 107.183 24.216C106.916 24.1093 106.5 23.9813 105.935 23.832C105.295 23.6507 104.788 23.464 104.415 23.272C104.052 23.08 103.775 22.84 103.583 22.552C103.402 22.2533 103.311 21.8693 103.311 21.4C103.311 20.632 103.615 20.056 104.223 19.672C104.831 19.2773 105.652 19.08 106.687 19.08C107.22 19.08 107.748 19.1333 108.271 19.24C108.804 19.336 109.22 19.4747 109.519 19.656V21.304C109.199 21.112 108.81 20.9573 108.351 20.84C107.892 20.7227 107.423 20.664 106.943 20.664C106.42 20.664 106.026 20.7173 105.759 20.824C105.492 20.92 105.359 21.112 105.359 21.4C105.359 21.592 105.428 21.7467 105.567 21.864C105.716 21.9707 105.908 22.0667 106.143 22.152C106.378 22.2267 106.804 22.344 107.423 22.504C108.084 22.6853 108.602 22.8827 108.975 23.096C109.348 23.3093 109.615 23.5653 109.775 23.864C109.935 24.1627 110.015 24.536 110.015 24.984ZM111.615 15.176H113.631V27H111.615V15.176ZM119.873 27.24C118.443 27.24 117.313 26.8827 116.481 26.168C115.649 25.4533 115.233 24.456 115.233 23.176C115.233 21.9173 115.601 20.92 116.337 20.184C117.073 19.448 118.123 19.08 119.489 19.08C120.385 19.08 121.147 19.2507 121.777 19.592C122.417 19.9333 122.897 20.4027 123.217 21C123.537 21.5867 123.697 22.2587 123.697 23.016V23.944H117.153C117.291 25.0853 118.283 25.656 120.129 25.656C120.619 25.656 121.121 25.6133 121.633 25.528C122.145 25.4427 122.593 25.3253 122.977 25.176V26.728C122.614 26.8773 122.145 27 121.569 27.096C121.003 27.192 120.438 27.24 119.873 27.24ZM121.793 22.568C121.771 21.96 121.553 21.4907 121.137 21.16C120.731 20.8293 120.171 20.664 119.457 20.664C118.753 20.664 118.198 20.8347 117.793 21.176C117.387 21.5173 117.174 21.9813 117.153 22.568H121.793ZM125.303 19.32H127.191V20.328C127.532 19.9227 127.932 19.6133 128.391 19.4C128.849 19.1867 129.313 19.08 129.783 19.08C130.38 19.08 130.86 19.1813 131.223 19.384C131.585 19.576 131.857 19.8693 132.039 20.264C132.38 19.88 132.791 19.5867 133.271 19.384C133.761 19.1813 134.247 19.08 134.727 19.08C135.687 19.08 136.375 19.32 136.791 19.8C137.207 20.28 137.415 20.984 137.415 21.912V27H135.479V22.184C135.479 21.64 135.367 21.2507 135.143 21.016C134.929 20.7813 134.583 20.664 134.103 20.664C133.761 20.664 133.447 20.7333 133.159 20.872C132.881 21 132.625 21.224 132.391 21.544C132.412 21.8853 132.423 22.1627 132.423 22.376V27H130.471V22.152C130.471 21.5973 130.38 21.2133 130.199 21C130.017 20.776 129.687 20.664 129.207 20.664C128.481 20.664 127.831 21.0747 127.255 21.896V27H125.303V19.32ZM139.256 15.176H141.272V27H139.256V15.176ZM147.513 27.24C146.084 27.24 144.953 26.8827 144.121 26.168C143.289 25.4533 142.873 24.456 142.873 23.176C142.873 21.9173 143.241 20.92 143.977 20.184C144.713 19.448 145.764 19.08 147.129 19.08C148.025 19.08 148.788 19.2507 149.417 19.592C150.057 19.9333 150.537 20.4027 150.857 21C151.177 21.5867 151.337 22.2587 151.337 23.016V23.944H144.793C144.932 25.0853 145.924 25.656 147.769 25.656C148.26 25.656 148.761 25.6133 149.273 25.528C149.785 25.4427 150.233 25.3253 150.617 25.176V26.728C150.255 26.8773 149.785 27 149.209 27.096C148.644 27.192 148.079 27.24 147.513 27.24ZM149.433 22.568C149.412 21.96 149.193 21.4907 148.777 21.16C148.372 20.8293 147.812 20.664 147.097 20.664C146.393 20.664 145.839 20.8347 145.433 21.176C145.028 21.5173 144.815 21.9813 144.793 22.568H149.433ZM152.943 19.32H154.895V20.552C155.205 20.136 155.642 19.8267 156.207 19.624C156.783 19.4213 157.439 19.32 158.175 19.32V20.856C157.397 20.856 156.719 20.9787 156.143 21.224C155.578 21.4587 155.183 21.832 154.959 22.344V27H152.943V19.32Z" fill="white"/>
<defs>
<filter id="filter0_d_347_154" x="0" y="0" width="178" height="54" filterUnits="userSpaceOnUse" color-interpolation-filters="sRGB">
<feFlood flood-opacity="0" result="BackgroundImageFix"/>
<feColorMatrix in="SourceAlpha" type="matrix" values="0 0 0 0 0 0 0 0 0 0 0 0 0 0 0 0 0 0 127 0" result="hardAlpha"/>
<feOffset dx="-2" dy="4"/>
<feGaussianBlur stdDeviation="2"/>
<feComposite in2="hardAlpha" operator="out"/>
<feColorMatrix type="matrix" values="0 0 0 0 0 0 0 0 0 0 0 0 0 0 0 0 0 0 0.2 0"/>
<feBlend mode="normal" in2="BackgroundImageFix" result="effect1_dropShadow_347_154"/>
<feBlend mode="normal" in="SourceGraphic" in2="effect1_dropShadow_347_154" result="shape"/>
</filter>
</defs>
</svg>
