<svg width="170" height="46" viewBox="0 0 170 46" fill="none" xmlns="http://www.w3.org/2000/svg">
<path d="M0.1 7C0.1 3.18924 3.18924 0.1 7 0.1H163C166.811 0.1 169.9 3.18923 169.9 7V39C169.9 42.8108 166.811 45.9 163 45.9H7C3.18924 45.9 0.1 42.8108 0.1 39V7Z" fill="#009EE3" stroke="white" stroke-width="0.2"/>
<circle cx="22.9487" cy="18" r="4" fill="white"/>
<path fill-rule="evenodd" clip-rule="evenodd" d="M29.8951 28.2532C29.9104 28.3587 29.8535 28.4613 29.755 28.5021C28.5535 29 26.784 29 23.9487 29H21.9487C19.1135 29 17.344 29 16.1425 28.5022C16.044 28.4614 15.9872 28.3587 16.0025 28.2532C16.4314 25.2919 19.3778 23 22.9488 23C26.5197 23 29.4661 25.2919 29.8951 28.2532Z" fill="white"/>
<path d="M42.8719 27.24C41.7519 27.24 40.7386 27 39.8319 26.52C38.9359 26.0293 38.2266 25.3413 37.7039 24.456C37.1919 23.5707 36.9359 22.5573 36.9359 21.416C36.9359 20.2747 37.1919 19.2613 37.7039 18.376C38.2266 17.4907 38.9359 16.8027 39.8319 16.312C40.7386 15.8213 41.7519 15.576 42.8719 15.576C43.9812 15.576 44.9839 15.8213 45.8799 16.312C46.7866 16.8027 47.4959 17.4907 48.0079 18.376C48.5306 19.2613 48.7919 20.2747 48.7919 21.416C48.7919 22.5573 48.5306 23.5707 48.0079 24.456C47.4959 25.3307 46.7866 26.0133 45.8799 26.504C44.9839 26.9947 43.9812 27.24 42.8719 27.24ZM42.8719 25.4C43.5866 25.4 44.2372 25.24 44.8239 24.92C45.4106 24.5893 45.8746 24.1253 46.2159 23.528C46.5679 22.92 46.7439 22.216 46.7439 21.416C46.7439 20.6267 46.5732 19.9333 46.2319 19.336C45.8906 18.728 45.4266 18.2587 44.8399 17.928C44.2532 17.5973 43.5972 17.432 42.8719 17.432C42.1466 17.432 41.4852 17.5973 40.8879 17.928C40.3012 18.2587 39.8372 18.728 39.4959 19.336C39.1546 19.9333 38.9839 20.6267 38.9839 21.416C38.9839 22.216 39.1546 22.92 39.4959 23.528C39.8479 24.1253 40.3172 24.5893 40.9039 24.92C41.5012 25.24 42.1572 25.4 42.8719 25.4ZM50.3965 19.32H52.3485V20.36C52.7112 19.9227 53.1432 19.6027 53.6445 19.4C54.1459 19.1867 54.6739 19.08 55.2285 19.08C56.2632 19.08 57.0365 19.3627 57.5485 19.928C58.0605 20.4827 58.3165 21.224 58.3165 22.152V27H56.3005V22.344C56.3005 21.224 55.7779 20.664 54.7325 20.664C54.2739 20.664 53.8419 20.776 53.4365 21C53.0312 21.2133 52.6899 21.5387 52.4125 21.976V27H50.3965V19.32ZM60.1621 15.176H62.1781V27H60.1621V15.176ZM65.2356 17.976C64.9156 17.976 64.6436 17.8693 64.4196 17.656C64.2063 17.4427 64.0996 17.176 64.0996 16.856C64.0996 16.536 64.2063 16.2693 64.4196 16.056C64.6436 15.832 64.9156 15.72 65.2356 15.72C65.5556 15.72 65.8276 15.832 66.0516 16.056C66.2756 16.2693 66.3876 16.536 66.3876 16.856C66.3876 17.176 66.2756 17.4427 66.0516 17.656C65.8276 17.8693 65.5556 17.976 65.2356 17.976ZM64.2116 19.32H66.2596V27H64.2116V19.32ZM68.3028 19.32H70.2548V20.36C70.6174 19.9227 71.0494 19.6027 71.5508 19.4C72.0521 19.1867 72.5801 19.08 73.1348 19.08C74.1694 19.08 74.9428 19.3627 75.4548 19.928C75.9668 20.4827 76.2228 21.224 76.2228 22.152V27H74.2068V22.344C74.2068 21.224 73.6841 20.664 72.6388 20.664C72.1801 20.664 71.7481 20.776 71.3428 21C70.9374 21.2133 70.5961 21.5387 70.3188 21.976V27H68.3028V19.32ZM82.3884 27.24C80.9591 27.24 79.8284 26.8827 78.9964 26.168C78.1644 25.4533 77.7484 24.456 77.7484 23.176C77.7484 21.9173 78.1164 20.92 78.8524 20.184C79.5884 19.448 80.6391 19.08 82.0044 19.08C82.9004 19.08 83.6631 19.2507 84.2924 19.592C84.9324 19.9333 85.4124 20.4027 85.7324 21C86.0524 21.5867 86.2124 22.2587 86.2124 23.016V23.944H79.6684C79.8071 25.0853 80.7991 25.656 82.6444 25.656C83.1351 25.656 83.6364 25.6133 84.1484 25.528C84.6604 25.4427 85.1084 25.3253 85.4924 25.176V26.728C85.1297 26.8773 84.6604 27 84.0844 27.096C83.5191 27.192 82.9537 27.24 82.3884 27.24ZM84.3084 22.568C84.2871 21.96 84.0684 21.4907 83.6524 21.16C83.2471 20.8293 82.6871 20.664 81.9724 20.664C81.2684 20.664 80.7137 20.8347 80.3084 21.176C79.9031 21.5173 79.6897 21.9813 79.6684 22.568H84.3084ZM94.656 14.968C94.368 14.968 94.1174 14.8667 93.904 14.664C93.6907 14.4507 93.584 14.2 93.584 13.912C93.584 13.6133 93.6907 13.3627 93.904 13.16C94.1174 12.9467 94.368 12.84 94.656 12.84C94.944 12.84 95.1894 12.9467 95.392 13.16C95.6054 13.3627 95.712 13.6133 95.712 13.912C95.712 14.2107 95.6054 14.4613 95.392 14.664C95.1894 14.8667 94.944 14.968 94.656 14.968ZM93.632 15.816H95.664V27H93.632V15.816ZM104.015 24.984C104.015 25.6027 103.775 26.1147 103.295 26.52C102.826 26.9147 102.132 27.1493 101.215 27.224L100.975 27.832C101.434 27.8853 101.786 28.0507 102.031 28.328C102.287 28.616 102.415 28.9733 102.415 29.4C102.415 29.9013 102.207 30.2853 101.791 30.552C101.375 30.8293 100.815 30.968 100.111 30.968C99.8229 30.968 99.5456 30.9467 99.2789 30.904C99.0122 30.872 98.8042 30.8293 98.6549 30.776L98.6709 29.672C98.7882 29.7253 98.9322 29.768 99.1029 29.8C99.2736 29.8427 99.4389 29.864 99.5989 29.864C100.228 29.864 100.543 29.6453 100.543 29.208C100.543 28.952 100.415 28.744 100.159 28.584C99.9136 28.4347 99.5136 28.36 98.9589 28.36L99.4229 27.144C98.5269 27.016 97.8442 26.808 97.3749 26.52V24.808C97.7909 25.064 98.2869 25.272 98.8629 25.432C99.4389 25.5813 99.9829 25.656 100.495 25.656C101.007 25.656 101.38 25.6133 101.615 25.528C101.85 25.432 101.967 25.2613 101.967 25.016C101.967 24.824 101.903 24.6693 101.775 24.552C101.658 24.424 101.46 24.312 101.183 24.216C100.916 24.1093 100.5 23.9813 99.9349 23.832C99.2949 23.6507 98.7882 23.464 98.4149 23.272C98.0522 23.08 97.7749 22.84 97.5829 22.552C97.4016 22.2533 97.3109 21.8693 97.3109 21.4C97.3109 20.632 97.6149 20.056 98.2229 19.672C98.8309 19.2773 99.6522 19.08 100.687 19.08C101.22 19.08 101.748 19.1333 102.271 19.24C102.804 19.336 103.22 19.4747 103.519 19.656V21.304C103.199 21.112 102.81 20.9573 102.351 20.84C101.892 20.7227 101.423 20.664 100.943 20.664C100.42 20.664 100.026 20.7173 99.7589 20.824C99.4922 20.92 99.3589 21.112 99.3589 21.4C99.3589 21.592 99.4282 21.7467 99.5669 21.864C99.7162 21.9707 99.9082 22.0667 100.143 22.152C100.378 22.2267 100.804 22.344 101.423 22.504C102.084 22.6853 102.602 22.8827 102.975 23.096C103.348 23.3093 103.615 23.5653 103.775 23.864C103.935 24.1627 104.015 24.536 104.015 24.984ZM105.615 15.176H107.631V27H105.615V15.176ZM113.873 27.24C112.443 27.24 111.313 26.8827 110.481 26.168C109.649 25.4533 109.233 24.456 109.233 23.176C109.233 21.9173 109.601 20.92 110.337 20.184C111.073 19.448 112.123 19.08 113.489 19.08C114.385 19.08 115.147 19.2507 115.777 19.592C116.417 19.9333 116.897 20.4027 117.217 21C117.537 21.5867 117.697 22.2587 117.697 23.016V23.944H111.153C111.291 25.0853 112.283 25.656 114.129 25.656C114.619 25.656 115.121 25.6133 115.633 25.528C116.145 25.4427 116.593 25.3253 116.977 25.176V26.728C116.614 26.8773 116.145 27 115.569 27.096C115.003 27.192 114.438 27.24 113.873 27.24ZM115.793 22.568C115.771 21.96 115.553 21.4907 115.137 21.16C114.731 20.8293 114.171 20.664 113.457 20.664C112.753 20.664 112.198 20.8347 111.793 21.176C111.387 21.5173 111.174 21.9813 111.153 22.568H115.793ZM119.303 19.32H121.191V20.328C121.532 19.9227 121.932 19.6133 122.391 19.4C122.849 19.1867 123.313 19.08 123.783 19.08C124.38 19.08 124.86 19.1813 125.223 19.384C125.585 19.576 125.857 19.8693 126.039 20.264C126.38 19.88 126.791 19.5867 127.271 19.384C127.761 19.1813 128.247 19.08 128.727 19.08C129.687 19.08 130.375 19.32 130.791 19.8C131.207 20.28 131.415 20.984 131.415 21.912V27H129.479V22.184C129.479 21.64 129.367 21.2507 129.143 21.016C128.929 20.7813 128.583 20.664 128.103 20.664C127.761 20.664 127.447 20.7333 127.159 20.872C126.881 21 126.625 21.224 126.391 21.544C126.412 21.8853 126.423 22.1627 126.423 22.376V27H124.471V22.152C124.471 21.5973 124.38 21.2133 124.199 21C124.017 20.776 123.687 20.664 123.207 20.664C122.481 20.664 121.831 21.0747 121.255 21.896V27H119.303V19.32ZM133.256 15.176H135.272V27H133.256V15.176ZM141.513 27.24C140.084 27.24 138.953 26.8827 138.121 26.168C137.289 25.4533 136.873 24.456 136.873 23.176C136.873 21.9173 137.241 20.92 137.977 20.184C138.713 19.448 139.764 19.08 141.129 19.08C142.025 19.08 142.788 19.2507 143.417 19.592C144.057 19.9333 144.537 20.4027 144.857 21C145.177 21.5867 145.337 22.2587 145.337 23.016V23.944H138.793C138.932 25.0853 139.924 25.656 141.769 25.656C142.26 25.656 142.761 25.6133 143.273 25.528C143.785 25.4427 144.233 25.3253 144.617 25.176V26.728C144.255 26.8773 143.785 27 143.209 27.096C142.644 27.192 142.079 27.24 141.513 27.24ZM143.433 22.568C143.412 21.96 143.193 21.4907 142.777 21.16C142.372 20.8293 141.812 20.664 141.097 20.664C140.393 20.664 139.839 20.8347 139.433 21.176C139.028 21.5173 138.815 21.9813 138.793 22.568H143.433ZM146.943 19.32H148.895V20.552C149.205 20.136 149.642 19.8267 150.207 19.624C150.783 19.4213 151.439 19.32 152.175 19.32V20.856C151.397 20.856 150.719 20.9787 150.143 21.224C149.578 21.4587 149.183 21.832 148.959 22.344V27H146.943V19.32Z" fill="white"/>
</svg>
