<svg width="168" height="54" viewBox="0 0 168 54" fill="none" xmlns="http://www.w3.org/2000/svg">
<g filter="url(#filter0_d_347_154)">
<path d="M6 7C6 3.13401 9.13401 0 13 0H159C162.866 0 166 3.13401 166 7V39C166 42.866 162.866 46 159 46H13C9.13401 46 6 42.866 6 39V7Z" fill="#009EE3"/>
<path d="M6.1 7C6.1 3.18924 9.18924 0.1 13 0.1H159C162.811 0.1 165.9 3.18924 165.9 7V39C165.9 42.8108 162.811 45.9 159 45.9H13C9.18923 45.9 6.1 42.8108 6.1 39V7Z" stroke="white" stroke-width="0.2"/>
</g>
<circle cx="23.9487" cy="18" r="4" fill="white"/>
<path fill-rule="evenodd" clip-rule="evenodd" d="M30.8951 28.2532C30.9104 28.3587 30.8535 28.4613 30.755 28.5021C29.5535 29 27.784 29 24.9487 29H22.9487C20.1135 29 18.344 29 17.1425 28.5022C17.044 28.4614 16.9872 28.3587 17.0025 28.2532C17.4314 25.2919 20.3778 23 23.9488 23C27.5197 23 30.4661 25.2919 30.8951 28.2532Z" fill="white"/>
<path d="M43.8719 27.24C42.7519 27.24 41.7386 27 40.8319 26.52C39.9359 26.0293 39.2266 25.3413 38.7039 24.456C38.1919 23.5707 37.9359 22.5573 37.9359 21.416C37.9359 20.2747 38.1919 19.2613 38.7039 18.376C39.2266 17.4907 39.9359 16.8027 40.8319 16.312C41.7386 15.8213 42.7519 15.576 43.8719 15.576C44.9812 15.576 45.9839 15.8213 46.8799 16.312C47.7866 16.8027 48.4959 17.4907 49.0079 18.376C49.5306 19.2613 49.7919 20.2747 49.7919 21.416C49.7919 22.5573 49.5306 23.5707 49.0079 24.456C48.4959 25.3307 47.7866 26.0133 46.8799 26.504C45.9839 26.9947 44.9812 27.24 43.8719 27.24ZM43.8719 25.4C44.5866 25.4 45.2372 25.24 45.8239 24.92C46.4106 24.5893 46.8746 24.1253 47.2159 23.528C47.5679 22.92 47.7439 22.216 47.7439 21.416C47.7439 20.6267 47.5732 19.9333 47.2319 19.336C46.8906 18.728 46.4266 18.2587 45.8399 17.928C45.2532 17.5973 44.5972 17.432 43.8719 17.432C43.1466 17.432 42.4852 17.5973 41.8879 17.928C41.3012 18.2587 40.8372 18.728 40.4959 19.336C40.1546 19.9333 39.9839 20.6267 39.9839 21.416C39.9839 22.216 40.1546 22.92 40.4959 23.528C40.8479 24.1253 41.3172 24.5893 41.9039 24.92C42.5012 25.24 43.1572 25.4 43.8719 25.4ZM51.3965 19.32H53.3485V20.36C53.7112 19.9227 54.1432 19.6027 54.6445 19.4C55.1459 19.1867 55.6739 19.08 56.2285 19.08C57.2632 19.08 58.0365 19.3627 58.5485 19.928C59.0605 20.4827 59.3165 21.224 59.3165 22.152V27H57.3005V22.344C57.3005 21.224 56.7779 20.664 55.7325 20.664C55.2739 20.664 54.8419 20.776 54.4365 21C54.0312 21.2133 53.6899 21.5387 53.4125 21.976V27H51.3965V19.32ZM61.1621 15.176H63.1781V27H61.1621V15.176ZM66.2356 17.976C65.9156 17.976 65.6436 17.8693 65.4196 17.656C65.2063 17.4427 65.0996 17.176 65.0996 16.856C65.0996 16.536 65.2063 16.2693 65.4196 16.056C65.6436 15.832 65.9156 15.72 66.2356 15.72C66.5556 15.72 66.8276 15.832 67.0516 16.056C67.2756 16.2693 67.3876 16.536 67.3876 16.856C67.3876 17.176 67.2756 17.4427 67.0516 17.656C66.8276 17.8693 66.5556 17.976 66.2356 17.976ZM65.2116 19.32H67.2596V27H65.2116V19.32ZM69.3028 19.32H71.2548V20.36C71.6174 19.9227 72.0494 19.6027 72.5508 19.4C73.0521 19.1867 73.5801 19.08 74.1348 19.08C75.1694 19.08 75.9428 19.3627 76.4548 19.928C76.9668 20.4827 77.2228 21.224 77.2228 22.152V27H75.2068V22.344C75.2068 21.224 74.6841 20.664 73.6388 20.664C73.1801 20.664 72.7481 20.776 72.3428 21C71.9374 21.2133 71.5961 21.5387 71.3188 21.976V27H69.3028V19.32ZM83.3884 27.24C81.9591 27.24 80.8284 26.8827 79.9964 26.168C79.1644 25.4533 78.7484 24.456 78.7484 23.176C78.7484 21.9173 79.1164 20.92 79.8524 20.184C80.5884 19.448 81.6391 19.08 83.0044 19.08C83.9004 19.08 84.6631 19.2507 85.2924 19.592C85.9324 19.9333 86.4124 20.4027 86.7324 21C87.0524 21.5867 87.2124 22.2587 87.2124 23.016V23.944H80.6684C80.8071 25.0853 81.7991 25.656 83.6444 25.656C84.1351 25.656 84.6364 25.6133 85.1484 25.528C85.6604 25.4427 86.1084 25.3253 86.4924 25.176V26.728C86.1297 26.8773 85.6604 27 85.0844 27.096C84.5191 27.192 83.9537 27.24 83.3884 27.24ZM85.3084 22.568C85.2871 21.96 85.0684 21.4907 84.6524 21.16C84.2471 20.8293 83.6871 20.664 82.9724 20.664C82.2684 20.664 81.7137 20.8347 81.3084 21.176C80.9031 21.5173 80.6897 21.9813 80.6684 22.568H85.3084ZM95.656 14.968C95.368 14.968 95.1174 14.8667 94.904 14.664C94.6907 14.4507 94.584 14.2 94.584 13.912C94.584 13.6133 94.6907 13.3627 94.904 13.16C95.1174 12.9467 95.368 12.84 95.656 12.84C95.944 12.84 96.1894 12.9467 96.392 13.16C96.6054 13.3627 96.712 13.6133 96.712 13.912C96.712 14.2107 96.6054 14.4613 96.392 14.664C96.1894 14.8667 95.944 14.968 95.656 14.968ZM94.632 15.816H96.664V27H94.632V15.816ZM105.015 24.984C105.015 25.6027 104.775 26.1147 104.295 26.52C103.826 26.9147 103.132 27.1493 102.215 27.224L101.975 27.832C102.434 27.8853 102.786 28.0507 103.031 28.328C103.287 28.616 103.415 28.9733 103.415 29.4C103.415 29.9013 103.207 30.2853 102.791 30.552C102.375 30.8293 101.815 30.968 101.111 30.968C100.823 30.968 100.546 30.9467 100.279 30.904C100.012 30.872 99.8042 30.8293 99.6549 30.776L99.6709 29.672C99.7882 29.7253 99.9322 29.768 100.103 29.8C100.274 29.8427 100.439 29.864 100.599 29.864C101.228 29.864 101.543 29.6453 101.543 29.208C101.543 28.952 101.415 28.744 101.159 28.584C100.914 28.4347 100.514 28.36 99.9589 28.36L100.423 27.144C99.5269 27.016 98.8442 26.808 98.3749 26.52V24.808C98.7909 25.064 99.2869 25.272 99.8629 25.432C100.439 25.5813 100.983 25.656 101.495 25.656C102.007 25.656 102.38 25.6133 102.615 25.528C102.85 25.432 102.967 25.2613 102.967 25.016C102.967 24.824 102.903 24.6693 102.775 24.552C102.658 24.424 102.46 24.312 102.183 24.216C101.916 24.1093 101.5 23.9813 100.935 23.832C100.295 23.6507 99.7882 23.464 99.4149 23.272C99.0522 23.08 98.7749 22.84 98.5829 22.552C98.4016 22.2533 98.3109 21.8693 98.3109 21.4C98.3109 20.632 98.6149 20.056 99.2229 19.672C99.8309 19.2773 100.652 19.08 101.687 19.08C102.22 19.08 102.748 19.1333 103.271 19.24C103.804 19.336 104.22 19.4747 104.519 19.656V21.304C104.199 21.112 103.81 20.9573 103.351 20.84C102.892 20.7227 102.423 20.664 101.943 20.664C101.42 20.664 101.026 20.7173 100.759 20.824C100.492 20.92 100.359 21.112 100.359 21.4C100.359 21.592 100.428 21.7467 100.567 21.864C100.716 21.9707 100.908 22.0667 101.143 22.152C101.378 22.2267 101.804 22.344 102.423 22.504C103.084 22.6853 103.602 22.8827 103.975 23.096C104.348 23.3093 104.615 23.5653 104.775 23.864C104.935 24.1627 105.015 24.536 105.015 24.984ZM106.615 15.176H108.631V27H106.615V15.176ZM114.873 27.24C113.443 27.24 112.313 26.8827 111.481 26.168C110.649 25.4533 110.233 24.456 110.233 23.176C110.233 21.9173 110.601 20.92 111.337 20.184C112.073 19.448 113.123 19.08 114.489 19.08C115.385 19.08 116.147 19.2507 116.777 19.592C117.417 19.9333 117.897 20.4027 118.217 21C118.537 21.5867 118.697 22.2587 118.697 23.016V23.944H112.153C112.291 25.0853 113.283 25.656 115.129 25.656C115.619 25.656 116.121 25.6133 116.633 25.528C117.145 25.4427 117.593 25.3253 117.977 25.176V26.728C117.614 26.8773 117.145 27 116.569 27.096C116.003 27.192 115.438 27.24 114.873 27.24ZM116.793 22.568C116.771 21.96 116.553 21.4907 116.137 21.16C115.731 20.8293 115.171 20.664 114.457 20.664C113.753 20.664 113.198 20.8347 112.793 21.176C112.387 21.5173 112.174 21.9813 112.153 22.568H116.793ZM120.303 19.32H122.191V20.328C122.532 19.9227 122.932 19.6133 123.391 19.4C123.849 19.1867 124.313 19.08 124.783 19.08C125.38 19.08 125.86 19.1813 126.223 19.384C126.585 19.576 126.857 19.8693 127.039 20.264C127.38 19.88 127.791 19.5867 128.271 19.384C128.761 19.1813 129.247 19.08 129.727 19.08C130.687 19.08 131.375 19.32 131.791 19.8C132.207 20.28 132.415 20.984 132.415 21.912V27H130.479V22.184C130.479 21.64 130.367 21.2507 130.143 21.016C129.929 20.7813 129.583 20.664 129.103 20.664C128.761 20.664 128.447 20.7333 128.159 20.872C127.881 21 127.625 21.224 127.391 21.544C127.412 21.8853 127.423 22.1627 127.423 22.376V27H125.471V22.152C125.471 21.5973 125.38 21.2133 125.199 21C125.017 20.776 124.687 20.664 124.207 20.664C123.481 20.664 122.831 21.0747 122.255 21.896V27H120.303V19.32ZM134.256 15.176H136.272V27H134.256V15.176ZM142.513 27.24C141.084 27.24 139.953 26.8827 139.121 26.168C138.289 25.4533 137.873 24.456 137.873 23.176C137.873 21.9173 138.241 20.92 138.977 20.184C139.713 19.448 140.764 19.08 142.129 19.08C143.025 19.08 143.788 19.2507 144.417 19.592C145.057 19.9333 145.537 20.4027 145.857 21C146.177 21.5867 146.337 22.2587 146.337 23.016V23.944H139.793C139.932 25.0853 140.924 25.656 142.769 25.656C143.26 25.656 143.761 25.6133 144.273 25.528C144.785 25.4427 145.233 25.3253 145.617 25.176V26.728C145.255 26.8773 144.785 27 144.209 27.096C143.644 27.192 143.079 27.24 142.513 27.24ZM144.433 22.568C144.412 21.96 144.193 21.4907 143.777 21.16C143.372 20.8293 142.812 20.664 142.097 20.664C141.393 20.664 140.839 20.8347 140.433 21.176C140.028 21.5173 139.815 21.9813 139.793 22.568H144.433ZM147.943 19.32H149.895V20.552C150.205 20.136 150.642 19.8267 151.207 19.624C151.783 19.4213 152.439 19.32 153.175 19.32V20.856C152.397 20.856 151.719 20.9787 151.143 21.224C150.578 21.4587 150.183 21.832 149.959 22.344V27H147.943V19.32Z" fill="white"/>
<defs>
<filter id="filter0_d_347_154" x="0" y="0" width="168" height="54" filterUnits="userSpaceOnUse" color-interpolation-filters="sRGB">
<feFlood flood-opacity="0" result="BackgroundImageFix"/>
<feColorMatrix in="SourceAlpha" type="matrix" values="0 0 0 0 0 0 0 0 0 0 0 0 0 0 0 0 0 0 127 0" result="hardAlpha"/>
<feOffset dx="-2" dy="4"/>
<feGaussianBlur stdDeviation="2"/>
<feComposite in2="hardAlpha" operator="out"/>
<feColorMatrix type="matrix" values="0 0 0 0 0 0 0 0 0 0 0 0 0 0 0 0 0 0 0.2 0"/>
<feBlend mode="normal" in2="BackgroundImageFix" result="effect1_dropShadow_347_154"/>
<feBlend mode="normal" in="SourceGraphic" in2="effect1_dropShadow_347_154" result="shape"/>
</filter>
</defs>
</svg>
