<svg width="178" height="54" viewBox="0 0 178 54" fill="none" xmlns="http://www.w3.org/2000/svg">
<g filter="url(#filter0_d_347_148)">
<path d="M6 7C6 3.13401 9.13401 0 13 0H169C172.866 0 176 3.13401 176 7V39C176 42.866 172.866 46 169 46H13C9.13401 46 6 42.866 6 39V7Z" fill="#009EE3"/>
<path d="M6.1 7C6.1 3.18924 9.18924 0.1 13 0.1H169C172.811 0.1 175.9 3.18923 175.9 7V39C175.9 42.8108 172.811 45.9 169 45.9H13C9.18924 45.9 6.1 42.8108 6.1 39V7Z" stroke="white" stroke-width="0.2"/>
</g>
<path d="M39.7074 35.9877C29.947 35.9877 22.049 28.0752 22.049 18.3294C22.049 17.9011 22.3456 17.5343 22.757 17.4394L26.7149 16.5261C26.9236 16.4779 27.1425 16.5046 27.3335 16.6016C27.5245 16.6985 27.6754 16.8594 27.7598 17.0563L29.5865 21.3185C29.6645 21.5006 29.6812 21.7031 29.6341 21.8955C29.587 22.0879 29.4786 22.2598 29.3253 22.3852L27.0185 24.2727C28.4167 27.2529 30.846 29.6492 33.764 31.0182L35.6515 28.7113C35.7769 28.558 35.9488 28.4496 36.1412 28.4025C36.3336 28.3554 36.5361 28.3721 36.7182 28.4502L40.9805 30.2769C41.1773 30.3613 41.3383 30.5121 41.4352 30.7031C41.5321 30.8941 41.5588 31.1131 41.5106 31.3218L40.5974 35.2797C40.5509 35.481 40.4376 35.6605 40.276 35.7891C40.1143 35.9177 39.9139 35.9877 39.7074 35.9877ZM29.8736 14.8966C31.0715 15.2053 32.0095 16.1433 32.3181 17.3412C32.4212 17.7411 32.1247 18.1328 31.7118 18.1415L31.2721 18.1509C30.9843 18.157 30.7304 17.9694 30.6457 17.6944C30.5638 17.4294 30.4186 17.1884 30.2225 16.9923C30.0264 16.7962 29.7854 16.651 29.5204 16.5691C29.2453 16.4844 29.0578 16.2305 29.0639 15.9427L29.0733 15.503C29.082 15.0901 29.4737 14.7936 29.8736 14.8966ZM29.8962 8.02115C34.8466 8.45192 38.7632 12.3721 39.1936 17.3186C39.2257 17.6869 38.9387 18.0053 38.5691 18.0132L38.1424 18.0222C37.8068 18.0293 37.5222 17.776 37.492 17.4417C37.1219 13.3374 33.8739 10.0926 29.773 9.72272C29.4387 9.69254 29.1854 9.40794 29.1925 9.07231L29.2016 8.64563C29.2094 8.27607 29.5279 7.98909 29.8962 8.02115ZM29.8574 11.4373C32.9527 11.8233 35.3908 14.2571 35.7774 17.3573C35.8244 17.7343 35.5352 18.0693 35.1555 18.0773L34.7272 18.0863C34.4033 18.0931 34.1225 17.8572 34.0803 17.5359C33.7786 15.24 31.9746 13.4361 29.6788 13.1345C29.3576 13.0923 29.1217 12.8115 29.1285 12.4875L29.1375 12.0593C29.1454 11.6795 29.4805 11.3903 29.8574 11.4373Z" fill="white"/>
<path d="M67.6987 18.088C66.9307 18.6853 65.9494 19.0533 64.7547 19.192L64.4987 19.832C64.9574 19.8853 65.3094 20.0507 65.5547 20.328C65.8107 20.616 65.9387 20.9733 65.9387 21.4C65.9387 21.9013 65.7307 22.2853 65.3147 22.552C64.8987 22.8293 64.3387 22.968 63.6347 22.968C63.3467 22.968 63.0694 22.9467 62.8027 22.904C62.536 22.872 62.328 22.8293 62.1787 22.776L62.1947 21.672C62.312 21.7253 62.456 21.768 62.6267 21.8C62.7974 21.8427 62.9627 21.864 63.1227 21.864C63.752 21.864 64.0667 21.6453 64.0667 21.208C64.0667 20.952 63.9387 20.744 63.6827 20.584C63.4374 20.4347 63.0374 20.36 62.4827 20.36L62.9307 19.208C61.896 19.112 60.984 18.8133 60.1947 18.312C59.4054 17.8107 58.792 17.144 58.3547 16.312C57.928 15.4693 57.7147 14.504 57.7147 13.416C57.7147 12.2427 57.9654 11.2187 58.4667 10.344C58.968 9.45867 59.672 8.776 60.5787 8.296C61.4854 7.816 62.5254 7.576 63.6987 7.576C65.2454 7.576 66.536 7.944 67.5707 8.68V10.616C66.6427 9.82667 65.4107 9.432 63.8747 9.432C63.0534 9.432 62.3334 9.59733 61.7147 9.928C61.096 10.248 60.616 10.7067 60.2747 11.304C59.9334 11.9013 59.7627 12.6053 59.7627 13.416C59.7627 14.2267 59.9334 14.9307 60.2747 15.528C60.6267 16.1253 61.112 16.5893 61.7307 16.92C62.3494 17.24 63.064 17.4 63.8747 17.4C64.664 17.4 65.368 17.304 65.9867 17.112C66.6054 16.9093 67.176 16.5893 67.6987 16.152V18.088ZM71.882 19.24C70.9646 19.24 70.2126 19 69.626 18.52C69.0393 18.0293 68.746 17.3733 68.746 16.552C68.746 15.6987 69.0233 15.032 69.578 14.552C70.1326 14.072 70.9113 13.832 71.914 13.832C72.8846 13.832 73.722 14.0293 74.426 14.424V14.216C74.426 13.672 74.2553 13.2773 73.914 13.032C73.5833 12.7867 73.0446 12.664 72.298 12.664C71.8286 12.664 71.3646 12.712 70.906 12.808C70.4473 12.8933 70.042 13.016 69.69 13.176V11.592C70.01 11.4427 70.4366 11.32 70.97 11.224C71.514 11.128 72.0366 11.08 72.538 11.08C73.8713 11.08 74.858 11.368 75.498 11.944C76.138 12.5093 76.458 13.2987 76.458 14.312V19H74.554V18.248C74.2233 18.568 73.8446 18.8133 73.418 18.984C73.002 19.1547 72.49 19.24 71.882 19.24ZM72.378 17.768C72.826 17.768 73.2313 17.6827 73.594 17.512C73.9566 17.3307 74.234 17.0853 74.426 16.776V15.928C73.8393 15.512 73.1673 15.304 72.41 15.304C71.3326 15.304 70.794 15.72 70.794 16.552C70.794 16.9573 70.9273 17.2613 71.194 17.464C71.4713 17.6667 71.866 17.768 72.378 17.768ZM82.7963 10.44C81.9963 10.44 81.367 10.2213 80.9083 9.784C80.4497 9.336 80.2203 8.74933 80.2203 8.024H81.7403C81.7403 8.376 81.831 8.64267 82.0123 8.824C82.1937 9.00533 82.455 9.096 82.7963 9.096C83.1377 9.096 83.399 9.00533 83.5803 8.824C83.7617 8.64267 83.8523 8.376 83.8523 8.024H85.3723C85.3723 8.74933 85.143 9.336 84.6843 9.784C84.2257 10.2213 83.5963 10.44 82.7963 10.44ZM82.3643 22.68C81.8523 22.68 81.3403 22.632 80.8283 22.536C80.3163 22.44 79.8897 22.312 79.5483 22.152V20.552C80.3803 20.9147 81.319 21.096 82.3643 21.096C83.303 21.096 83.975 20.8987 84.3803 20.504C84.7963 20.1093 85.0043 19.5227 85.0043 18.744V18.248C84.6417 18.5787 84.2097 18.8293 83.7083 19C83.207 19.16 82.6683 19.24 82.0923 19.24C81.3137 19.24 80.6097 19.0693 79.9803 18.728C79.351 18.376 78.8603 17.8907 78.5083 17.272C78.1563 16.6533 77.9803 15.944 77.9803 15.144C77.9803 14.3333 78.151 13.624 78.4923 13.016C78.8443 12.3973 79.3243 11.9227 79.9323 11.592C80.551 11.2507 81.2497 11.08 82.0283 11.08C82.679 11.08 83.239 11.1707 83.7083 11.352C84.1777 11.5227 84.631 11.8107 85.0683 12.216V11.32H87.0203V18.536C87.0203 19.8587 86.6363 20.8773 85.8683 21.592C85.111 22.3173 83.943 22.68 82.3643 22.68ZM82.5243 17.656C83.1003 17.656 83.6123 17.5013 84.0603 17.192C84.519 16.872 84.8337 16.4507 85.0043 15.928V14.376C84.823 13.8533 84.5083 13.4373 84.0603 13.128C83.6123 12.8187 83.1003 12.664 82.5243 12.664C81.799 12.664 81.2017 12.8933 80.7323 13.352C80.263 13.8107 80.0283 14.408 80.0283 15.144C80.0283 15.88 80.263 16.4827 80.7323 16.952C81.2017 17.4213 81.799 17.656 82.5243 17.656ZM88.941 11.32H90.893V12.552C91.2023 12.136 91.6396 11.8267 92.205 11.624C92.781 11.4213 93.437 11.32 94.173 11.32V12.856C93.3943 12.856 92.717 12.9787 92.141 13.224C91.5756 13.4587 91.181 13.832 90.957 14.344V19H88.941V11.32ZM95.4566 11.32H97.5046V19H95.4566V11.32ZM105.191 7.816H107.175L110.919 16.008L114.663 7.816H116.647V19H114.727V11.736L111.399 19H110.439L107.111 11.736V19H105.191V7.816ZM122.886 19.24C121.457 19.24 120.326 18.8827 119.494 18.168C118.662 17.4533 118.246 16.456 118.246 15.176C118.246 13.9173 118.614 12.92 119.35 12.184C120.086 11.448 121.137 11.08 122.502 11.08C123.398 11.08 124.161 11.2507 124.79 11.592C125.43 11.9333 125.91 12.4027 126.23 13C126.55 13.5867 126.71 14.2587 126.71 15.016V15.944H120.166C120.305 17.0853 121.297 17.656 123.142 17.656C123.633 17.656 124.134 17.6133 124.646 17.528C125.158 17.4427 125.606 17.3253 125.99 17.176V18.728C125.627 18.8773 125.158 19 124.582 19.096C124.017 19.192 123.451 19.24 122.886 19.24ZM124.806 14.568C124.785 13.96 124.566 13.4907 124.15 13.16C123.745 12.8293 123.185 12.664 122.47 12.664C121.766 12.664 121.211 12.8347 120.806 13.176C120.401 13.5173 120.187 13.9813 120.166 14.568H124.806ZM128.316 11.32H130.268V12.552C130.577 12.136 131.015 11.8267 131.58 11.624C132.156 11.4213 132.812 11.32 133.548 11.32V12.856C132.769 12.856 132.092 12.9787 131.516 13.224C130.951 13.4587 130.556 13.832 130.332 14.344V19H128.316V11.32ZM134.832 7.176H136.848V14.696L139.904 11.32H142.272L138.848 15.08L142.656 19H140.288L136.848 15.448V19H134.832V7.176ZM148.573 19.24C147.144 19.24 146.013 18.8827 145.181 18.168C144.349 17.4533 143.933 16.456 143.933 15.176C143.933 13.9173 144.301 12.92 145.037 12.184C145.773 11.448 146.824 11.08 148.189 11.08C149.085 11.08 149.848 11.2507 150.477 11.592C151.117 11.9333 151.597 12.4027 151.917 13C152.237 13.5867 152.397 14.2587 152.397 15.016V15.944H145.853C145.992 17.0853 146.984 17.656 148.829 17.656C149.32 17.656 149.821 17.6133 150.333 17.528C150.845 17.4427 151.293 17.3253 151.677 17.176V18.728C151.315 18.8773 150.845 19 150.269 19.096C149.704 19.192 149.139 19.24 148.573 19.24ZM150.493 14.568C150.472 13.96 150.253 13.4907 149.837 13.16C149.432 12.8293 148.872 12.664 148.157 12.664C147.453 12.664 146.899 12.8347 146.493 13.176C146.088 13.5173 145.875 13.9813 145.853 14.568H150.493ZM153.683 17.736L157.763 12.856H153.795V11.32H160.291V12.584L156.227 17.464H160.419V19H153.683V17.736ZM163.155 9.976C162.835 9.976 162.563 9.86933 162.339 9.656C162.126 9.44267 162.019 9.176 162.019 8.856C162.019 8.536 162.126 8.26933 162.339 8.056C162.563 7.832 162.835 7.72 163.155 7.72C163.475 7.72 163.747 7.832 163.971 8.056C164.195 8.26933 164.307 8.536 164.307 8.856C164.307 9.176 164.195 9.44267 163.971 9.656C163.747 9.86933 163.475 9.976 163.155 9.976ZM162.131 11.32H164.179V19H162.131V11.32ZM64.2061 37.088C63.6301 36.144 63.3421 35.032 63.3421 33.752C63.3421 33.128 63.4141 32.464 63.5581 31.76C63.7821 30.712 64.1421 29.74 64.6381 28.844C65.1341 27.94 65.7421 27.136 66.4621 26.432H67.7461C66.9781 27.208 66.3461 28.032 65.8501 28.904C65.3621 29.776 65.0101 30.728 64.7941 31.76C64.6581 32.392 64.5901 33.02 64.5901 33.644C64.5901 34.876 64.8901 36.024 65.4901 37.088H64.2061ZM70.279 35.18C69.439 35.18 68.775 34.912 68.287 34.376C67.807 33.84 67.567 33.1 67.567 32.156C67.567 31.724 67.619 31.276 67.723 30.812C68.019 29.436 68.547 28.364 69.307 27.596C70.067 26.82 71.011 26.432 72.139 26.432C72.987 26.432 73.651 26.7 74.131 27.236C74.619 27.772 74.863 28.512 74.863 29.456C74.863 29.888 74.811 30.34 74.707 30.812C74.419 32.172 73.887 33.24 73.111 34.016C72.335 34.792 71.391 35.18 70.279 35.18ZM70.507 34.1C71.219 34.1 71.839 33.808 72.367 33.224C72.903 32.632 73.275 31.832 73.483 30.824C73.595 30.288 73.651 29.824 73.651 29.432C73.651 28.168 73.071 27.536 71.911 27.536C71.191 27.536 70.567 27.832 70.039 28.424C69.511 29.016 69.139 29.816 68.923 30.824C68.819 31.344 68.767 31.78 68.767 32.132C68.767 33.444 69.347 34.1 70.507 34.1ZM77.9215 35.18C77.1135 35.18 76.4775 35.016 76.0135 34.688C75.5495 34.36 75.3175 33.888 75.3175 33.272C75.3175 33.12 75.3375 32.932 75.3775 32.708C75.4895 32.172 75.7255 31.724 76.0855 31.364C76.4455 30.996 76.8695 30.748 77.3575 30.62C77.0775 30.492 76.8575 30.304 76.6975 30.056C76.5455 29.808 76.4695 29.52 76.4695 29.192C76.4695 29.032 76.4855 28.876 76.5175 28.724C76.6695 28.02 77.0375 27.464 77.6215 27.056C78.2135 26.64 78.9335 26.432 79.7815 26.432C80.4935 26.432 81.0615 26.596 81.4855 26.924C81.9095 27.244 82.1215 27.684 82.1215 28.244C82.1215 28.412 82.1055 28.572 82.0735 28.724C81.9775 29.164 81.7815 29.552 81.4855 29.888C81.1975 30.216 80.8415 30.46 80.4175 30.62C80.7775 30.724 81.0615 30.912 81.2695 31.184C81.4775 31.448 81.5815 31.78 81.5815 32.18C81.5815 32.316 81.5615 32.492 81.5215 32.708C81.3535 33.5 80.9455 34.112 80.2975 34.544C79.6575 34.968 78.8655 35.18 77.9215 35.18ZM78.9775 30.248C79.4495 30.248 79.8615 30.12 80.2135 29.864C80.5655 29.6 80.7855 29.256 80.8735 28.832C80.9055 28.696 80.9215 28.552 80.9215 28.4C80.9215 27.712 80.4775 27.368 79.5895 27.368C79.2295 27.368 78.8975 27.448 78.5935 27.608C78.2975 27.76 78.0655 27.976 77.8975 28.256C77.7295 28.528 77.6455 28.836 77.6455 29.18C77.6455 29.516 77.7575 29.78 77.9815 29.972C78.2055 30.156 78.5375 30.248 78.9775 30.248ZM78.1135 34.292C78.6895 34.292 79.1735 34.144 79.5655 33.848C79.9575 33.552 80.2095 33.144 80.3215 32.624C80.3535 32.432 80.3695 32.296 80.3695 32.216C80.3695 31.832 80.2375 31.536 79.9735 31.328C79.7095 31.12 79.3215 31.016 78.8095 31.016C78.2575 31.016 77.7775 31.16 77.3695 31.448C76.9695 31.736 76.7175 32.128 76.6135 32.624C76.5735 32.808 76.5535 32.964 76.5535 33.092C76.5535 33.476 76.6855 33.772 76.9495 33.98C77.2135 34.188 77.6015 34.292 78.1135 34.292ZM84.4083 35.18C83.9683 35.18 83.5483 35.132 83.1483 35.036C82.7563 34.948 82.4323 34.824 82.1763 34.664L82.4163 33.572C82.7043 33.772 83.0443 33.928 83.4363 34.04C83.8283 34.144 84.2123 34.196 84.5883 34.196C85.3163 34.196 85.9003 34.044 86.3403 33.74C86.7803 33.428 87.0643 32.972 87.1923 32.372C87.2403 32.164 87.2643 31.98 87.2643 31.82C87.2643 31.42 87.1243 31.12 86.8443 30.92C86.5643 30.72 86.1123 30.62 85.4883 30.62C85.2003 30.62 84.8923 30.648 84.5643 30.704C84.2363 30.76 83.9403 30.836 83.6763 30.932L83.1963 30.62L84.3603 26.612H89.0523L88.8363 27.644H85.2603L84.6243 29.804C85.1283 29.7 85.6403 29.648 86.1603 29.648C86.8803 29.648 87.4483 29.836 87.8643 30.212C88.2883 30.58 88.5003 31.084 88.5003 31.724C88.5003 31.924 88.4763 32.14 88.4283 32.372C88.0363 34.244 86.6963 35.18 84.4083 35.18ZM92.404 35.18C91.564 35.18 90.9 34.912 90.412 34.376C89.932 33.84 89.692 33.1 89.692 32.156C89.692 31.724 89.744 31.276 89.848 30.812C90.144 29.436 90.672 28.364 91.432 27.596C92.192 26.82 93.136 26.432 94.264 26.432C95.112 26.432 95.776 26.7 96.256 27.236C96.744 27.772 96.988 28.512 96.988 29.456C96.988 29.888 96.936 30.34 96.832 30.812C96.544 32.172 96.012 33.24 95.236 34.016C94.46 34.792 93.516 35.18 92.404 35.18ZM92.632 34.1C93.344 34.1 93.964 33.808 94.492 33.224C95.028 32.632 95.4 31.832 95.608 30.824C95.72 30.288 95.776 29.824 95.776 29.432C95.776 28.168 95.196 27.536 94.036 27.536C93.316 27.536 92.692 27.832 92.164 28.424C91.636 29.016 91.264 29.816 91.048 30.824C90.944 31.344 90.892 31.78 90.892 32.132C90.892 33.444 91.472 34.1 92.632 34.1ZM103.972 35.18C103.492 35.18 103.036 35.14 102.604 35.06C102.172 34.988 101.808 34.876 101.512 34.724L101.728 33.716C102.4 34.052 103.164 34.22 104.02 34.22C104.756 34.22 105.332 34.088 105.748 33.824C106.164 33.552 106.424 33.168 106.528 32.672C106.552 32.536 106.564 32.42 106.564 32.324C106.564 31.94 106.4 31.664 106.072 31.496C105.752 31.328 105.26 31.244 104.596 31.244H103.612L103.816 30.26H104.776C105.376 30.26 105.888 30.14 106.312 29.9C106.736 29.652 106.996 29.292 107.092 28.82C107.124 28.684 107.14 28.544 107.14 28.4C107.14 28.064 107.016 27.816 106.768 27.656C106.528 27.488 106.144 27.404 105.616 27.404C105.168 27.404 104.752 27.456 104.368 27.56C103.992 27.664 103.584 27.836 103.144 28.076L103.36 27.068C104.144 26.644 105.012 26.432 105.964 26.432C106.74 26.432 107.336 26.604 107.752 26.948C108.176 27.284 108.388 27.732 108.388 28.292C108.388 28.468 108.372 28.632 108.34 28.784C108.252 29.232 108.048 29.624 107.728 29.96C107.416 30.296 107 30.556 106.48 30.74C106.912 30.844 107.24 31.032 107.464 31.304C107.688 31.576 107.8 31.9 107.8 32.276C107.8 32.372 107.784 32.516 107.752 32.708C107.6 33.468 107.212 34.072 106.588 34.52C105.972 34.96 105.1 35.18 103.972 35.18ZM111.799 35.18C110.959 35.18 110.295 34.912 109.807 34.376C109.327 33.84 109.087 33.1 109.087 32.156C109.087 31.724 109.139 31.276 109.243 30.812C109.539 29.436 110.067 28.364 110.827 27.596C111.587 26.82 112.531 26.432 113.659 26.432C114.507 26.432 115.171 26.7 115.651 27.236C116.139 27.772 116.383 28.512 116.383 29.456C116.383 29.888 116.331 30.34 116.227 30.812C115.939 32.172 115.407 33.24 114.631 34.016C113.855 34.792 112.911 35.18 111.799 35.18ZM112.027 34.1C112.739 34.1 113.359 33.808 113.887 33.224C114.423 32.632 114.795 31.832 115.003 30.824C115.115 30.288 115.171 29.824 115.171 29.432C115.171 28.168 114.591 27.536 113.431 27.536C112.711 27.536 112.087 27.832 111.559 28.424C111.031 29.016 110.659 29.816 110.443 30.824C110.339 31.344 110.287 31.78 110.287 32.132C110.287 33.444 110.867 34.1 112.027 34.1ZM118.925 35.18C118.445 35.18 117.989 35.14 117.557 35.06C117.125 34.988 116.761 34.876 116.465 34.724L116.681 33.716C117.353 34.052 118.117 34.22 118.973 34.22C119.709 34.22 120.285 34.088 120.701 33.824C121.117 33.552 121.377 33.168 121.481 32.672C121.505 32.536 121.517 32.42 121.517 32.324C121.517 31.94 121.353 31.664 121.025 31.496C120.705 31.328 120.213 31.244 119.549 31.244H118.565L118.769 30.26H119.729C120.329 30.26 120.841 30.14 121.265 29.9C121.689 29.652 121.949 29.292 122.045 28.82C122.077 28.684 122.093 28.544 122.093 28.4C122.093 28.064 121.969 27.816 121.721 27.656C121.481 27.488 121.097 27.404 120.569 27.404C120.121 27.404 119.705 27.456 119.321 27.56C118.945 27.664 118.537 27.836 118.097 28.076L118.313 27.068C119.097 26.644 119.965 26.432 120.917 26.432C121.693 26.432 122.289 26.604 122.705 26.948C123.129 27.284 123.341 27.732 123.341 28.292C123.341 28.468 123.325 28.632 123.293 28.784C123.205 29.232 123.001 29.624 122.681 29.96C122.369 30.296 121.953 30.556 121.433 30.74C121.865 30.844 122.193 31.032 122.417 31.304C122.641 31.576 122.753 31.9 122.753 32.276C122.753 32.372 122.737 32.516 122.705 32.708C122.553 33.468 122.165 34.072 121.541 34.52C120.925 34.96 120.053 35.18 118.925 35.18ZM130.257 35.18C129.777 35.18 129.321 35.14 128.889 35.06C128.457 34.988 128.093 34.876 127.797 34.724L128.013 33.716C128.685 34.052 129.449 34.22 130.305 34.22C131.041 34.22 131.617 34.088 132.033 33.824C132.449 33.552 132.709 33.168 132.813 32.672C132.837 32.536 132.849 32.42 132.849 32.324C132.849 31.94 132.685 31.664 132.357 31.496C132.037 31.328 131.545 31.244 130.881 31.244H129.897L130.101 30.26H131.061C131.661 30.26 132.173 30.14 132.597 29.9C133.021 29.652 133.281 29.292 133.377 28.82C133.409 28.684 133.425 28.544 133.425 28.4C133.425 28.064 133.301 27.816 133.053 27.656C132.813 27.488 132.429 27.404 131.901 27.404C131.453 27.404 131.037 27.456 130.653 27.56C130.277 27.664 129.869 27.836 129.429 28.076L129.645 27.068C130.429 26.644 131.297 26.432 132.249 26.432C133.025 26.432 133.621 26.604 134.037 26.948C134.461 27.284 134.673 27.732 134.673 28.292C134.673 28.468 134.657 28.632 134.625 28.784C134.537 29.232 134.333 29.624 134.013 29.96C133.701 30.296 133.285 30.556 132.765 30.74C133.197 30.844 133.525 31.032 133.749 31.304C133.973 31.576 134.085 31.9 134.085 32.276C134.085 32.372 134.069 32.516 134.037 32.708C133.885 33.468 133.497 34.072 132.873 34.52C132.257 34.96 131.385 35.18 130.257 35.18ZM136.848 35.18C136.4 35.18 136.02 35.132 135.708 35.036L135.924 34.016C136.212 34.136 136.56 34.196 136.968 34.196C138.688 34.196 139.848 33.168 140.448 31.112C140.144 31.416 139.78 31.644 139.356 31.796C138.94 31.948 138.492 32.024 138.012 32.024C137.596 32.024 137.216 31.94 136.872 31.772C136.536 31.596 136.268 31.348 136.068 31.028C135.876 30.708 135.78 30.332 135.78 29.9C135.78 29.7 135.804 29.492 135.852 29.276C135.972 28.732 136.196 28.244 136.524 27.812C136.86 27.38 137.284 27.044 137.796 26.804C138.316 26.556 138.892 26.432 139.524 26.432C140.292 26.432 140.904 26.648 141.36 27.08C141.816 27.512 142.044 28.132 142.044 28.94C142.044 29.284 142.004 29.644 141.924 30.02C141.188 33.46 139.496 35.18 136.848 35.18ZM138.54 31.064C139.068 31.064 139.544 30.896 139.968 30.56C140.4 30.224 140.676 29.78 140.796 29.228C140.828 29.092 140.844 28.936 140.844 28.76C140.844 28.352 140.716 28.024 140.46 27.776C140.212 27.52 139.832 27.392 139.32 27.392C138.76 27.392 138.276 27.56 137.868 27.896C137.46 28.232 137.196 28.68 137.076 29.24C137.036 29.456 137.016 29.632 137.016 29.768C137.016 30.184 137.144 30.504 137.4 30.728C137.656 30.952 138.036 31.064 138.54 31.064ZM147.844 27.644H143.392L143.608 26.612H149.308L149.116 27.512L144.16 35H142.96L147.844 27.644ZM150.999 35.18C150.519 35.18 150.063 35.14 149.631 35.06C149.199 34.988 148.835 34.876 148.539 34.724L148.755 33.716C149.427 34.052 150.191 34.22 151.047 34.22C151.783 34.22 152.359 34.088 152.775 33.824C153.191 33.552 153.451 33.168 153.555 32.672C153.579 32.536 153.591 32.42 153.591 32.324C153.591 31.94 153.427 31.664 153.099 31.496C152.779 31.328 152.287 31.244 151.623 31.244H150.639L150.843 30.26H151.803C152.403 30.26 152.915 30.14 153.339 29.9C153.763 29.652 154.023 29.292 154.119 28.82C154.151 28.684 154.167 28.544 154.167 28.4C154.167 28.064 154.043 27.816 153.795 27.656C153.555 27.488 153.171 27.404 152.643 27.404C152.195 27.404 151.779 27.456 151.395 27.56C151.019 27.664 150.611 27.836 150.171 28.076L150.387 27.068C151.171 26.644 152.039 26.432 152.991 26.432C153.767 26.432 154.363 26.604 154.779 26.948C155.203 27.284 155.415 27.732 155.415 28.292C155.415 28.468 155.399 28.632 155.367 28.784C155.279 29.232 155.075 29.624 154.755 29.96C154.443 30.296 154.027 30.556 153.507 30.74C153.939 30.844 154.267 31.032 154.491 31.304C154.715 31.576 154.827 31.9 154.827 32.276C154.827 32.372 154.811 32.516 154.779 32.708C154.627 33.468 154.239 34.072 153.615 34.52C152.999 34.96 152.127 35.18 150.999 35.18ZM154.77 37.088C155.538 36.312 156.166 35.488 156.654 34.616C157.142 33.744 157.494 32.792 157.71 31.76C157.846 31.128 157.914 30.5 157.914 29.876C157.914 28.644 157.614 27.496 157.014 26.432H158.298C158.874 27.376 159.162 28.488 159.162 29.768C159.162 30.4 159.09 31.064 158.946 31.76C158.722 32.816 158.362 33.792 157.866 34.688C157.37 35.584 156.762 36.384 156.042 37.088H154.77Z" fill="white"/>
<defs>
<filter id="filter0_d_347_148" x="0" y="0" width="178" height="54" filterUnits="userSpaceOnUse" color-interpolation-filters="sRGB">
<feFlood flood-opacity="0" result="BackgroundImageFix"/>
<feColorMatrix in="SourceAlpha" type="matrix" values="0 0 0 0 0 0 0 0 0 0 0 0 0 0 0 0 0 0 127 0" result="hardAlpha"/>
<feOffset dx="-2" dy="4"/>
<feGaussianBlur stdDeviation="2"/>
<feComposite in2="hardAlpha" operator="out"/>
<feColorMatrix type="matrix" values="0 0 0 0 0 0 0 0 0 0 0 0 0 0 0 0 0 0 0.2 0"/>
<feBlend mode="normal" in2="BackgroundImageFix" result="effect1_dropShadow_347_148"/>
<feBlend mode="normal" in="SourceGraphic" in2="effect1_dropShadow_347_148" result="shape"/>
</filter>
</defs>
</svg>
