<svg width="171" height="48" viewBox="0 0 171 48" fill="none" xmlns="http://www.w3.org/2000/svg">
<g clip-path="url(#clip0_975_2711)">
<rect x="0.5" width="170" height="48" rx="20" fill="white"/>
<rect x="1" y="0.5" width="169" height="47" rx="19.5" stroke="#1A1A1A" stroke-opacity="0.8"/>
<path d="M15.6679 17.816H19.5559C20.7719 17.816 21.8333 18.04 22.7399 18.488C23.6466 18.936 24.3453 19.576 24.8359 20.408C25.3266 21.24 25.5719 22.2213 25.5719 23.352C25.5719 25.208 25.0279 26.616 23.9399 27.576C22.8626 28.5253 21.3586 29 19.4279 29H15.6679V17.816ZM19.5559 26.968C20.6973 26.968 21.5719 26.648 22.1799 26.008C22.7879 25.368 23.0919 24.4827 23.0919 23.352C23.0919 22.68 22.9586 22.0773 22.6919 21.544C22.4253 21.0107 22.0359 20.5947 21.5239 20.296C21.0119 19.9973 20.4093 19.848 19.7159 19.848H18.0999V26.968H19.5559ZM31.3339 29.24C29.8619 29.24 28.7046 28.888 27.8619 28.184C27.0193 27.4693 26.5979 26.472 26.5979 25.192C26.5979 23.9227 26.9713 22.92 27.7179 22.184C28.4753 21.448 29.5526 21.08 30.9499 21.08C31.8673 21.08 32.6459 21.2507 33.2859 21.592C33.9259 21.9333 34.4113 22.408 34.7419 23.016C35.0726 23.6133 35.2379 24.2907 35.2379 25.048V26.024H28.9019C29.0726 27.0053 29.9899 27.496 31.6539 27.496C32.1446 27.496 32.6513 27.4533 33.1739 27.368C33.6966 27.2827 34.1499 27.1653 34.5339 27.016V28.712C34.1606 28.872 33.6806 29 33.0939 29.096C32.5073 29.192 31.9206 29.24 31.3339 29.24ZM32.9499 24.456C32.9179 23.944 32.7259 23.5493 32.3739 23.272C32.0219 22.984 31.5366 22.84 30.9179 22.84C30.3099 22.84 29.8299 22.984 29.4779 23.272C29.1259 23.56 28.9339 23.9547 28.9019 24.456H32.9499ZM39.7262 29.24C39.1502 29.24 38.5315 29.176 37.8702 29.048C37.2195 28.9307 36.7075 28.76 36.3342 28.536V26.648C36.7609 26.904 37.2729 27.112 37.8702 27.272C38.4675 27.432 39.0222 27.512 39.5342 27.512C39.9715 27.512 40.2915 27.4747 40.4942 27.4C40.6969 27.3253 40.7982 27.1867 40.7982 26.984C40.7982 26.824 40.7395 26.696 40.6222 26.6C40.5049 26.4933 40.3235 26.4027 40.0782 26.328C39.8435 26.2427 39.4489 26.12 38.8942 25.96C38.2435 25.768 37.7315 25.576 37.3582 25.384C36.9955 25.1813 36.7182 24.9307 36.5262 24.632C36.3449 24.3333 36.2542 23.9493 36.2542 23.48C36.2542 22.68 36.5689 22.0827 37.1982 21.688C37.8382 21.2827 38.7022 21.08 39.7902 21.08C40.3235 21.08 40.8729 21.1387 41.4382 21.256C42.0142 21.3627 42.4569 21.5067 42.7662 21.688V23.528C42.4569 23.3253 42.0515 23.16 41.5502 23.032C41.0595 22.904 40.5795 22.84 40.1102 22.84C39.6729 22.84 39.3315 22.8827 39.0862 22.968C38.8515 23.0533 38.7342 23.2133 38.7342 23.448C38.7342 23.6507 38.8462 23.8053 39.0702 23.912C39.3049 24.0187 39.7369 24.152 40.3662 24.312L40.6862 24.392C41.3582 24.5733 41.8809 24.776 42.2542 25C42.6275 25.2133 42.8889 25.4747 43.0382 25.784C43.1982 26.0827 43.2782 26.4613 43.2782 26.92C43.2782 27.624 42.9742 28.1893 42.3662 28.616C41.7582 29.032 40.8782 29.24 39.7262 29.24ZM47.6183 29.24C46.7223 29.24 46.0396 28.9947 45.5703 28.504C45.1116 28.0027 44.8823 27.3093 44.8823 26.424V23.064H43.7623V21.32H44.8823V19.016H47.2983V21.32H49.1063V23.064H47.2983V26.104C47.2983 26.552 47.3836 26.8773 47.5543 27.08C47.725 27.272 48.029 27.368 48.4663 27.368C48.8183 27.368 49.1543 27.2827 49.4743 27.112V28.92C48.9836 29.1333 48.365 29.24 47.6183 29.24ZM53.2194 29.24C52.2808 29.24 51.5128 29.0053 50.9154 28.536C50.3288 28.056 50.0354 27.4053 50.0354 26.584C50.0354 25.7307 50.3181 25.0693 50.8834 24.6C51.4488 24.12 52.2488 23.88 53.2834 23.88C53.7421 23.88 54.1794 23.928 54.5954 24.024C55.0114 24.12 55.3794 24.2533 55.6994 24.424V24.232C55.6994 23.752 55.5288 23.4 55.1874 23.176C54.8461 22.952 54.3234 22.84 53.6194 22.84C52.6808 22.84 51.8168 23.016 51.0274 23.368V21.608C51.3688 21.4587 51.8114 21.336 52.3554 21.24C52.8994 21.1333 53.4434 21.08 53.9874 21.08C55.3741 21.08 56.4088 21.368 57.0914 21.944C57.7741 22.5093 58.1154 23.304 58.1154 24.328V29H55.8434V28.296C55.1928 28.9253 54.3181 29.24 53.2194 29.24ZM53.8754 27.64C54.2701 27.64 54.6274 27.5653 54.9474 27.416C55.2674 27.2667 55.5181 27.0587 55.6994 26.792V26.024C55.1554 25.6613 54.5581 25.48 53.9074 25.48C53.4594 25.48 53.1128 25.576 52.8674 25.768C52.6328 25.9493 52.5154 26.2213 52.5154 26.584C52.5154 26.9253 52.6328 27.1867 52.8674 27.368C53.1021 27.5493 53.4381 27.64 53.8754 27.64ZM59.7148 21.32H62.0508V22.264C62.4028 21.8693 62.8188 21.576 63.2988 21.384C63.7895 21.1813 64.3015 21.08 64.8348 21.08C65.8801 21.08 66.6588 21.3627 67.1708 21.928C67.6935 22.4827 67.9548 23.2347 67.9548 24.184V29H65.5388V24.456C65.5388 23.464 65.0801 22.968 64.1628 22.968C63.7575 22.968 63.3788 23.0693 63.0268 23.272C62.6748 23.464 62.3761 23.752 62.1308 24.136V29H59.7148V21.32ZM69.5586 17.816H71.9266L76.5986 25.048V17.816H79.0306V29H76.6786L71.9906 21.768V29H69.5586V17.816ZM85.1152 29.24C83.6432 29.24 82.4859 28.888 81.6432 28.184C80.8005 27.4693 80.3792 26.472 80.3792 25.192C80.3792 23.9227 80.7525 22.92 81.4992 22.184C82.2565 21.448 83.3339 21.08 84.7312 21.08C85.6485 21.08 86.4272 21.2507 87.0672 21.592C87.7072 21.9333 88.1925 22.408 88.5232 23.016C88.8539 23.6133 89.0192 24.2907 89.0192 25.048V26.024H82.6832C82.8539 27.0053 83.7712 27.496 85.4352 27.496C85.9259 27.496 86.4325 27.4533 86.9552 27.368C87.4779 27.2827 87.9312 27.1653 88.3152 27.016V28.712C87.9419 28.872 87.4619 29 86.8752 29.096C86.2885 29.192 85.7019 29.24 85.1152 29.24ZM86.7312 24.456C86.6992 23.944 86.5072 23.5493 86.1552 23.272C85.8032 22.984 85.3179 22.84 84.6992 22.84C84.0912 22.84 83.6112 22.984 83.2592 23.272C82.9072 23.56 82.7152 23.9547 82.6832 24.456H86.7312ZM93.5714 29.24C92.6754 29.24 91.9928 28.9947 91.5234 28.504C91.0648 28.0027 90.8354 27.3093 90.8354 26.424V23.064H89.7154V21.32H90.8354V19.016H93.2514V21.32H95.0594V23.064H93.2514V26.104C93.2514 26.552 93.3368 26.8773 93.5074 27.08C93.6781 27.272 93.9821 27.368 94.4194 27.368C94.7714 27.368 95.1074 27.2827 95.4274 27.112V28.92C94.9368 29.1333 94.3181 29.24 93.5714 29.24ZM106.297 17.816H108.681L113.145 29H110.665L109.705 26.568H105.273L104.313 29H101.817L106.297 17.816ZM109.065 24.632L107.481 20.376L105.897 24.632H109.065ZM114.496 17.176H116.912V29H114.496V17.176ZM121.806 29.24C120.91 29.24 120.227 28.9947 119.758 28.504C119.299 28.0027 119.07 27.3093 119.07 26.424V23.064H117.95V21.32H119.07V19.016H121.486V21.32H123.294V23.064H121.486V26.104C121.486 26.552 121.571 26.8773 121.742 27.08C121.912 27.272 122.216 27.368 122.654 27.368C123.006 27.368 123.342 27.2827 123.662 27.112V28.92C123.171 29.1333 122.552 29.24 121.806 29.24ZM126.249 32.168C125.929 32.168 125.598 32.1467 125.257 32.104C124.926 32.0613 124.675 32.0027 124.505 31.928V30.12C124.814 30.2373 125.155 30.296 125.529 30.296C125.913 30.296 126.201 30.2107 126.393 30.04C126.595 29.8693 126.761 29.6027 126.889 29.24L127.145 28.584L123.817 21.32H126.249L128.425 26.616L130.489 21.32H132.905L129.641 29.528C129.278 30.4347 128.83 31.1013 128.297 31.528C127.763 31.9547 127.081 32.168 126.249 32.168ZM135.751 29.24C134.812 29.24 134.044 29.0053 133.447 28.536C132.86 28.056 132.567 27.4053 132.567 26.584C132.567 25.7307 132.849 25.0693 133.415 24.6C133.98 24.12 134.78 23.88 135.815 23.88C136.273 23.88 136.711 23.928 137.127 24.024C137.543 24.12 137.911 24.2533 138.231 24.424V24.232C138.231 23.752 138.06 23.4 137.719 23.176C137.377 22.952 136.855 22.84 136.151 22.84C135.212 22.84 134.348 23.016 133.559 23.368V21.608C133.9 21.4587 134.343 21.336 134.887 21.24C135.431 21.1333 135.975 21.08 136.519 21.08C137.905 21.08 138.94 21.368 139.623 21.944C140.305 22.5093 140.647 23.304 140.647 24.328V29H138.375V28.296C137.724 28.9253 136.849 29.24 135.751 29.24ZM136.407 27.64C136.801 27.64 137.159 27.5653 137.479 27.416C137.799 27.2667 138.049 27.0587 138.231 26.792V26.024C137.687 25.6613 137.089 25.48 136.439 25.48C135.991 25.48 135.644 25.576 135.399 25.768C135.164 25.9493 135.047 26.2213 135.047 26.584C135.047 26.9253 135.164 27.1867 135.399 27.368C135.633 27.5493 135.969 27.64 136.407 27.64ZM142.246 21.32H144.582V22.168C145.361 21.4427 146.321 21.08 147.462 21.08C148.262 21.08 148.966 21.2507 149.574 21.592C150.193 21.9227 150.673 22.3973 151.014 23.016C151.355 23.624 151.526 24.3333 151.526 25.144C151.526 25.944 151.355 26.6533 151.014 27.272C150.673 27.8907 150.193 28.376 149.574 28.728C148.966 29.0693 148.262 29.24 147.462 29.24C146.918 29.24 146.401 29.16 145.91 29C145.419 28.84 145.003 28.6107 144.662 28.312V32.504H142.246V21.32ZM146.854 27.352C147.505 27.352 148.033 27.1493 148.438 26.744C148.854 26.3387 149.062 25.8053 149.062 25.144C149.062 24.4827 148.854 23.9547 148.438 23.56C148.033 23.1653 147.505 22.968 146.854 22.968C146.353 22.968 145.905 23.1013 145.51 23.368C145.115 23.6347 144.833 23.9867 144.662 24.424V25.88C144.822 26.328 145.099 26.6853 145.494 26.952C145.899 27.2187 146.353 27.352 146.854 27.352ZM152.887 21.32H155.319V29H152.887V21.32Z" fill="black"/>
</g>
<defs>
<clipPath id="clip0_975_2711">
<rect width="170" height="48" fill="white" transform="translate(0.5)"/>
</clipPath>
</defs>
</svg>
