<svg width="258" height="84" viewBox="0 0 258 84" fill="none" xmlns="http://www.w3.org/2000/svg">
<rect width="258" height="84" rx="20" fill="#009EE3"/>
<path d="M84.167 36.36C82.471 36.36 80.935 35.992 79.559 35.256C78.199 34.52 77.119 33.496 76.319 32.184C75.535 30.856 75.143 29.336 75.143 27.624C75.143 25.912 75.535 24.392 76.319 23.064C77.119 21.736 78.199 20.704 79.559 19.968C80.935 19.232 82.471 18.864 84.167 18.864C85.847 18.864 87.367 19.232 88.727 19.968C90.103 20.704 91.183 21.736 91.967 23.064C92.751 24.392 93.143 25.912 93.143 27.624C93.143 29.336 92.751 30.856 91.967 32.184C91.183 33.496 90.103 34.52 88.727 35.256C87.367 35.992 85.847 36.36 84.167 36.36ZM84.167 32.376C85.015 32.376 85.791 32.184 86.495 31.8C87.199 31.416 87.759 30.864 88.175 30.144C88.591 29.424 88.799 28.584 88.799 27.624C88.799 26.664 88.591 25.832 88.175 25.128C87.775 24.408 87.223 23.856 86.519 23.472C85.815 23.072 85.031 22.872 84.167 22.872C83.287 22.872 82.495 23.072 81.791 23.472C81.087 23.856 80.527 24.408 80.111 25.128C79.711 25.832 79.511 26.664 79.511 27.624C79.511 28.584 79.711 29.424 80.111 30.144C80.527 30.864 81.087 31.416 81.791 31.8C82.511 32.184 83.303 32.376 84.167 32.376ZM94.8183 24.48H98.8983V25.752C99.3943 25.208 99.9943 24.8 100.698 24.528C101.402 24.256 102.138 24.12 102.906 24.12C104.522 24.12 105.714 24.544 106.482 25.392C107.266 26.224 107.658 27.36 107.658 28.8V36H103.434V29.352C103.434 28.056 102.842 27.408 101.658 27.408C101.114 27.408 100.618 27.536 100.17 27.792C99.7223 28.032 99.3463 28.408 99.0423 28.92V36H94.8183V24.48ZM109.701 18.264H113.925V36H109.701V18.264ZM118.332 22.944C117.692 22.944 117.156 22.736 116.724 22.32C116.292 21.904 116.076 21.376 116.076 20.736C116.076 20.112 116.292 19.592 116.724 19.176C117.156 18.744 117.692 18.528 118.332 18.528C118.956 18.528 119.484 18.744 119.916 19.176C120.364 19.592 120.588 20.112 120.588 20.736C120.588 21.36 120.364 21.888 119.916 22.32C119.484 22.736 118.956 22.944 118.332 22.944ZM116.22 24.48H120.444V36H116.22V24.48ZM122.756 24.48H126.836V25.752C127.332 25.208 127.932 24.8 128.636 24.528C129.34 24.256 130.076 24.12 130.844 24.12C132.46 24.12 133.652 24.544 134.42 25.392C135.204 26.224 135.596 27.36 135.596 28.8V36H131.372V29.352C131.372 28.056 130.78 27.408 129.596 27.408C129.052 27.408 128.556 27.536 128.108 27.792C127.66 28.032 127.284 28.408 126.98 28.92V36H122.756V24.48ZM144.407 36.36C142.151 36.36 140.375 35.832 139.079 34.776C137.799 33.72 137.159 32.224 137.159 30.288C137.159 28.384 137.727 26.88 138.863 25.776C140.015 24.672 141.671 24.12 143.831 24.12C145.207 24.12 146.383 24.384 147.359 24.912C148.351 25.424 149.095 26.136 149.591 27.048C150.103 27.944 150.359 28.96 150.359 30.096V31.656H141.167C141.327 32.296 141.727 32.76 142.367 33.048C143.007 33.336 143.879 33.48 144.983 33.48C145.735 33.48 146.503 33.416 147.287 33.288C148.087 33.16 148.775 32.984 149.351 32.76V35.544C148.759 35.784 148.015 35.976 147.119 36.12C146.239 36.28 145.335 36.36 144.407 36.36ZM146.375 29.016C146.311 28.392 146.055 27.904 145.607 27.552C145.159 27.2 144.543 27.024 143.759 27.024C142.991 27.024 142.383 27.208 141.935 27.576C141.487 27.928 141.231 28.408 141.167 29.016H146.375ZM162.321 17.952C161.809 17.952 161.369 17.776 161.001 17.424C160.633 17.072 160.449 16.64 160.449 16.128C160.449 15.616 160.633 15.176 161.001 14.808C161.369 14.44 161.809 14.256 162.321 14.256C162.817 14.256 163.241 14.44 163.593 14.808C163.961 15.176 164.145 15.616 164.145 16.128C164.145 16.64 163.969 17.072 163.617 17.424C163.265 17.776 162.833 17.952 162.321 17.952ZM160.185 19.224H164.433V36H160.185V19.224ZM177.12 32.76C177.12 33.64 176.808 34.384 176.184 34.992C175.56 35.6 174.656 36.008 173.472 36.216L173.112 37.104C173.816 37.216 174.344 37.448 174.696 37.8C175.064 38.168 175.248 38.696 175.248 39.384C175.248 40.232 174.904 40.872 174.216 41.304C173.528 41.736 172.592 41.952 171.408 41.952C170.864 41.952 170.336 41.92 169.824 41.856C169.328 41.792 168.952 41.712 168.696 41.616V39.576C169.112 39.8 169.6 39.912 170.16 39.912C170.544 39.912 170.84 39.84 171.048 39.696C171.256 39.552 171.36 39.352 171.36 39.096C171.36 38.792 171.176 38.552 170.808 38.376C170.456 38.216 169.856 38.136 169.008 38.136L169.728 36.24C168.208 36.064 167.048 35.752 166.248 35.304V32.208C166.904 32.592 167.688 32.912 168.6 33.168C169.528 33.408 170.376 33.528 171.144 33.528C171.704 33.528 172.112 33.488 172.368 33.408C172.624 33.328 172.752 33.168 172.752 32.928C172.752 32.736 172.664 32.584 172.488 32.472C172.328 32.344 172.024 32.216 171.576 32.088C171.144 31.944 170.64 31.792 170.064 31.632C169.088 31.344 168.32 31.048 167.76 30.744C167.2 30.44 166.784 30.056 166.512 29.592C166.24 29.128 166.104 28.544 166.104 27.84C166.104 26.592 166.592 25.664 167.568 25.056C168.56 24.432 169.912 24.12 171.624 24.12C172.456 24.12 173.328 24.208 174.24 24.384C175.168 24.56 175.864 24.792 176.328 25.08V28.128C175.848 27.808 175.208 27.544 174.408 27.336C173.624 27.128 172.888 27.024 172.2 27.024C171.656 27.024 171.232 27.08 170.928 27.192C170.624 27.288 170.472 27.464 170.472 27.72C170.472 27.96 170.624 28.144 170.928 28.272C171.232 28.4 171.776 28.56 172.56 28.752C173.072 28.88 173.288 28.936 173.208 28.92C174.232 29.192 175.024 29.496 175.584 29.832C176.144 30.168 176.536 30.568 176.76 31.032C177 31.48 177.12 32.056 177.12 32.76ZM178.795 18.264H183.019V36H178.795V18.264ZM191.938 36.36C189.682 36.36 187.906 35.832 186.61 34.776C185.33 33.72 184.69 32.224 184.69 30.288C184.69 28.384 185.258 26.88 186.394 25.776C187.546 24.672 189.202 24.12 191.362 24.12C192.738 24.12 193.914 24.384 194.89 24.912C195.882 25.424 196.626 26.136 197.122 27.048C197.634 27.944 197.89 28.96 197.89 30.096V31.656H188.698C188.858 32.296 189.258 32.76 189.898 33.048C190.538 33.336 191.41 33.48 192.514 33.48C193.266 33.48 194.034 33.416 194.818 33.288C195.618 33.16 196.306 32.984 196.882 32.76V35.544C196.29 35.784 195.546 35.976 194.65 36.12C193.77 36.28 192.866 36.36 191.938 36.36ZM193.906 29.016C193.842 28.392 193.586 27.904 193.138 27.552C192.69 27.2 192.074 27.024 191.29 27.024C190.522 27.024 189.914 27.208 189.466 27.576C189.018 27.928 188.762 28.408 188.698 29.016H193.906ZM199.56 24.48H203.472V25.728C203.952 25.216 204.504 24.824 205.128 24.552C205.752 24.264 206.416 24.12 207.12 24.12C207.984 24.12 208.672 24.248 209.184 24.504C209.712 24.76 210.136 25.144 210.456 25.656C210.936 25.176 211.52 24.8 212.208 24.528C212.896 24.256 213.592 24.12 214.296 24.12C215.816 24.12 216.896 24.512 217.536 25.296C218.176 26.064 218.496 27.176 218.496 28.632V36H214.464V29.232C214.464 28.592 214.344 28.128 214.104 27.84C213.864 27.552 213.464 27.408 212.904 27.408C212.184 27.408 211.6 27.664 211.152 28.176C211.168 28.448 211.176 28.864 211.176 29.424V36H207.144V29.064C207.144 28.472 207.04 28.048 206.832 27.792C206.624 27.536 206.256 27.408 205.728 27.408C204.912 27.408 204.208 27.864 203.616 28.776V36H199.56V24.48ZM102.318 47.224H106.398L111.246 57.616L116.118 47.224H120.174V64H116.214V55.576L112.206 64H110.286L106.302 55.576V64H102.318V47.224ZM129.102 64.36C126.846 64.36 125.07 63.832 123.774 62.776C122.494 61.72 121.854 60.224 121.854 58.288C121.854 56.384 122.422 54.88 123.558 53.776C124.71 52.672 126.366 52.12 128.526 52.12C129.902 52.12 131.078 52.384 132.054 52.912C133.046 53.424 133.79 54.136 134.286 55.048C134.798 55.944 135.054 56.96 135.054 58.096V59.656H125.862C126.022 60.296 126.422 60.76 127.062 61.048C127.702 61.336 128.574 61.48 129.678 61.48C130.43 61.48 131.198 61.416 131.982 61.288C132.782 61.16 133.47 60.984 134.046 60.76V63.544C133.454 63.784 132.71 63.976 131.814 64.12C130.934 64.28 130.03 64.36 129.102 64.36ZM131.07 57.016C131.006 56.392 130.75 55.904 130.302 55.552C129.854 55.2 129.238 55.024 128.454 55.024C127.686 55.024 127.078 55.208 126.63 55.576C126.182 55.928 125.926 56.408 125.862 57.016H131.07ZM136.725 52.48H140.805V53.92C141.253 53.408 141.885 53.016 142.701 52.744C143.517 52.456 144.421 52.312 145.413 52.312V55.552C144.357 55.552 143.421 55.704 142.605 56.008C141.805 56.312 141.253 56.768 140.949 57.376V64H136.725V52.48ZM146.615 46.264H150.839V57.112L154.631 52.48H159.479L154.895 58.048L160.103 64H155.255L150.839 58.936V64H146.615V46.264ZM167.118 64.36C164.862 64.36 163.086 63.832 161.79 62.776C160.51 61.72 159.87 60.224 159.87 58.288C159.87 56.384 160.438 54.88 161.574 53.776C162.726 52.672 164.382 52.12 166.542 52.12C167.918 52.12 169.094 52.384 170.07 52.912C171.062 53.424 171.806 54.136 172.302 55.048C172.814 55.944 173.07 56.96 173.07 58.096V59.656H163.878C164.038 60.296 164.438 60.76 165.078 61.048C165.718 61.336 166.59 61.48 167.694 61.48C168.446 61.48 169.214 61.416 169.998 61.288C170.798 61.16 171.486 60.984 172.062 60.76V63.544C171.47 63.784 170.726 63.976 169.83 64.12C168.95 64.28 168.046 64.36 167.118 64.36ZM169.086 57.016C169.022 56.392 168.766 55.904 168.318 55.552C167.87 55.2 167.254 55.024 166.47 55.024C165.702 55.024 165.094 55.208 164.646 55.576C164.198 55.928 163.942 56.408 163.878 57.016H169.086ZM174.26 61.696L179.732 55.408H174.404V52.48H185.3V54.784L179.876 61.072H185.492V64H174.26V61.696ZM189.418 50.944C188.778 50.944 188.242 50.736 187.81 50.32C187.378 49.904 187.162 49.376 187.162 48.736C187.162 48.112 187.378 47.592 187.81 47.176C188.242 46.744 188.778 46.528 189.418 46.528C190.042 46.528 190.57 46.744 191.002 47.176C191.45 47.592 191.674 48.112 191.674 48.736C191.674 49.36 191.45 49.888 191.002 50.32C190.57 50.736 190.042 50.944 189.418 50.944ZM187.306 52.48H191.53V64H187.306V52.48Z" fill="white"/>
<circle cx="33.9972" cy="30.0011" r="10.0011" fill="white"/>
<path fill-rule="evenodd" clip-rule="evenodd" d="M51.4962 57.2279C51.499 57.3621 51.3929 57.4738 51.2587 57.4782C50.4708 57.5042 49.5601 57.5042 48.5005 57.5042H19.4955C18.4351 57.5042 17.5238 57.5042 16.7355 57.4781C16.6013 57.4737 16.4953 57.3621 16.4981 57.2278C16.67 49.0701 24.4388 42.5025 33.9971 42.5025C43.5555 42.5025 51.3243 49.0702 51.4962 57.2279Z" fill="white"/>
</svg>
