<svg width="172" height="48" viewBox="0 0 172 48" fill="none" xmlns="http://www.w3.org/2000/svg">
<g clip-path="url(#clip0_975_2953)">
<rect width="173" height="48" transform="translate(-0.5)" fill="#009EE3"/>
<path d="M38.1726 29.24C36.5406 29.24 35.3086 28.8133 34.4766 27.96C33.6446 27.096 33.2286 25.9387 33.2286 24.488V17.816H35.6606V24.52C35.6606 25.3307 35.8846 25.9493 36.3326 26.376C36.7806 26.8027 37.3939 27.016 38.1726 27.016C38.9406 27.016 39.5432 26.8027 39.9806 26.376C40.4286 25.9493 40.6526 25.3307 40.6526 24.52V17.816H43.0846V24.488C43.0846 25.9387 42.6739 27.096 41.8526 27.96C41.0312 28.8133 39.8046 29.24 38.1726 29.24ZM44.6836 17.176H47.0996V29H44.6836V17.176ZM51.8333 29.24C50.788 29.24 50.004 28.9573 49.4813 28.392C48.9586 27.816 48.6973 27.0533 48.6973 26.104V21.32H51.1133V25.848C51.1133 26.8507 51.5773 27.352 52.5053 27.352C52.9106 27.352 53.2893 27.256 53.6413 27.064C53.9933 26.872 54.2866 26.584 54.5213 26.2V21.32H56.9373V29H54.6013V28.072C54.26 28.4667 53.844 28.76 53.3533 28.952C52.8733 29.144 52.3666 29.24 51.8333 29.24ZM61.7731 29.24C61.1971 29.24 60.5784 29.176 59.9171 29.048C59.2664 28.9307 58.7544 28.76 58.3811 28.536V26.648C58.8077 26.904 59.3197 27.112 59.9171 27.272C60.5144 27.432 61.0691 27.512 61.5811 27.512C62.0184 27.512 62.3384 27.4747 62.5411 27.4C62.7437 27.3253 62.8451 27.1867 62.8451 26.984C62.8451 26.824 62.7864 26.696 62.6691 26.6C62.5517 26.4933 62.3704 26.4027 62.1251 26.328C61.8904 26.2427 61.4957 26.12 60.9411 25.96C60.2904 25.768 59.7784 25.576 59.4051 25.384C59.0424 25.1813 58.7651 24.9307 58.5731 24.632C58.3917 24.3333 58.3011 23.9493 58.3011 23.48C58.3011 22.68 58.6157 22.0827 59.2451 21.688C59.8851 21.2827 60.7491 21.08 61.8371 21.08C62.3704 21.08 62.9197 21.1387 63.4851 21.256C64.0611 21.3627 64.5037 21.5067 64.8131 21.688V23.528C64.5037 23.3253 64.0984 23.16 63.5971 23.032C63.1064 22.904 62.6264 22.84 62.1571 22.84C61.7197 22.84 61.3784 22.8827 61.1331 22.968C60.8984 23.0533 60.7811 23.2133 60.7811 23.448C60.7811 23.6507 60.8931 23.8053 61.1171 23.912C61.3517 24.0187 61.7837 24.152 62.4131 24.312L62.7331 24.392C63.4051 24.5733 63.9277 24.776 64.3011 25C64.6744 25.2133 64.9357 25.4747 65.0851 25.784C65.2451 26.0827 65.3251 26.4613 65.3251 26.92C65.3251 27.624 65.0211 28.1893 64.4131 28.616C63.8051 29.032 62.9251 29.24 61.7731 29.24ZM69.3132 29.24C68.3745 29.24 67.6065 29.0053 67.0092 28.536C66.4225 28.056 66.1292 27.4053 66.1292 26.584C66.1292 25.7307 66.4119 25.0693 66.9772 24.6C67.5425 24.12 68.3425 23.88 69.3772 23.88C69.8359 23.88 70.2732 23.928 70.6892 24.024C71.1052 24.12 71.4732 24.2533 71.7932 24.424V24.232C71.7932 23.752 71.6225 23.4 71.2812 23.176C70.9399 22.952 70.4172 22.84 69.7132 22.84C68.7745 22.84 67.9105 23.016 67.1212 23.368V21.608C67.4625 21.4587 67.9052 21.336 68.4492 21.24C68.9932 21.1333 69.5372 21.08 70.0812 21.08C71.4679 21.08 72.5025 21.368 73.1852 21.944C73.8679 22.5093 74.2092 23.304 74.2092 24.328V29H71.9372V28.296C71.2865 28.9253 70.4119 29.24 69.3132 29.24ZM69.9692 27.64C70.3639 27.64 70.7212 27.5653 71.0412 27.416C71.3612 27.2667 71.6119 27.0587 71.7932 26.792V26.024C71.2492 25.6613 70.6519 25.48 70.0012 25.48C69.5532 25.48 69.2065 25.576 68.9612 25.768C68.7265 25.9493 68.6092 26.2213 68.6092 26.584C68.6092 26.9253 68.7265 27.1867 68.9612 27.368C69.1959 27.5493 69.5319 27.64 69.9692 27.64ZM75.8086 17.176H78.2246V29H75.8086V17.176ZM89.6561 17.816H92.0401L96.5041 29H94.0241L93.0641 26.568H88.6321L87.6721 29H85.1761L89.6561 17.816ZM92.4241 24.632L90.8401 20.376L89.2561 24.632H92.4241ZM97.8554 17.176H100.271V29H97.8554V17.176ZM105.165 29.24C104.269 29.24 103.587 28.9947 103.117 28.504C102.659 28.0027 102.429 27.3093 102.429 26.424V23.064H101.309V21.32H102.429V19.016H104.845V21.32H106.653V23.064H104.845V26.104C104.845 26.552 104.931 26.8773 105.101 27.08C105.272 27.272 105.576 27.368 106.013 27.368C106.365 27.368 106.701 27.2827 107.021 27.112V28.92C106.531 29.1333 105.912 29.24 105.165 29.24ZM109.608 32.168C109.288 32.168 108.957 32.1467 108.616 32.104C108.285 32.0613 108.035 32.0027 107.864 31.928V30.12C108.173 30.2373 108.515 30.296 108.888 30.296C109.272 30.296 109.56 30.2107 109.752 30.04C109.955 29.8693 110.12 29.6027 110.248 29.24L110.504 28.584L107.176 21.32H109.608L111.784 26.616L113.848 21.32H116.264L113 29.528C112.637 30.4347 112.189 31.1013 111.656 31.528C111.123 31.9547 110.44 32.168 109.608 32.168ZM119.11 29.24C118.171 29.24 117.403 29.0053 116.806 28.536C116.219 28.056 115.926 27.4053 115.926 26.584C115.926 25.7307 116.209 25.0693 116.774 24.6C117.339 24.12 118.139 23.88 119.174 23.88C119.633 23.88 120.07 23.928 120.486 24.024C120.902 24.12 121.27 24.2533 121.59 24.424V24.232C121.59 23.752 121.419 23.4 121.078 23.176C120.737 22.952 120.214 22.84 119.51 22.84C118.571 22.84 117.707 23.016 116.918 23.368V21.608C117.259 21.4587 117.702 21.336 118.246 21.24C118.79 21.1333 119.334 21.08 119.878 21.08C121.265 21.08 122.299 21.368 122.982 21.944C123.665 22.5093 124.006 23.304 124.006 24.328V29H121.734V28.296C121.083 28.9253 120.209 29.24 119.11 29.24ZM119.766 27.64C120.161 27.64 120.518 27.5653 120.838 27.416C121.158 27.2667 121.409 27.0587 121.59 26.792V26.024C121.046 25.6613 120.449 25.48 119.798 25.48C119.35 25.48 119.003 25.576 118.758 25.768C118.523 25.9493 118.406 26.2213 118.406 26.584C118.406 26.9253 118.523 27.1867 118.758 27.368C118.993 27.5493 119.329 27.64 119.766 27.64ZM125.605 21.32H127.941V22.168C128.72 21.4427 129.68 21.08 130.821 21.08C131.621 21.08 132.325 21.2507 132.933 21.592C133.552 21.9227 134.032 22.3973 134.373 23.016C134.715 23.624 134.885 24.3333 134.885 25.144C134.885 25.944 134.715 26.6533 134.373 27.272C134.032 27.8907 133.552 28.376 132.933 28.728C132.325 29.0693 131.621 29.24 130.821 29.24C130.277 29.24 129.76 29.16 129.269 29C128.779 28.84 128.363 28.6107 128.021 28.312V32.504H125.605V21.32ZM130.213 27.352C130.864 27.352 131.392 27.1493 131.797 26.744C132.213 26.3387 132.421 25.8053 132.421 25.144C132.421 24.4827 132.213 23.9547 131.797 23.56C131.392 23.1653 130.864 22.968 130.213 22.968C129.712 22.968 129.264 23.1013 128.869 23.368C128.475 23.6347 128.192 23.9867 128.021 24.424V25.88C128.181 26.328 128.459 26.6853 128.853 26.952C129.259 27.2187 129.712 27.352 130.213 27.352ZM136.246 21.32H138.678V29H136.246V21.32Z" fill="white"/>
</g>
<defs>
<clipPath id="clip0_975_2953">
<rect x="0.5" width="171" height="48" rx="20" fill="white"/>
</clipPath>
</defs>
</svg>
