<svg width="259" height="84" viewBox="0 0 259 84" fill="none" xmlns="http://www.w3.org/2000/svg">
<rect x="0.5" width="258" height="84" rx="20" fill="#009EE3"/>
<path d="M13.6531 41.5578C13.6522 44.9448 14.5372 48.252 16.22 51.167L13.4922 61.1267L23.6847 58.4542C26.5038 59.9889 29.6624 60.793 32.8722 60.7933H32.8806C43.4767 60.7933 52.1022 52.1709 52.1067 41.573C52.1087 36.4375 50.1106 31.6084 46.4803 27.9753C42.8506 24.3425 38.0233 22.3408 32.8798 22.3384C22.2825 22.3384 13.6577 30.9603 13.6533 41.5578" fill="url(#paint0_linear_503_1890)"/>
<path d="M12.966 41.5516C12.9649 45.0605 13.8816 48.4859 15.6245 51.5053L12.7988 61.822L23.3568 59.0538C26.2659 60.6399 29.5412 61.4761 32.874 61.4774H32.8826C43.8588 61.4774 52.7941 52.5449 52.7988 41.5675C52.8007 36.2475 50.7307 31.2449 46.9707 27.4816C43.2102 23.7188 38.2102 21.645 32.8826 21.6428C21.9045 21.6428 12.9704 30.5741 12.966 41.5516ZM19.2537 50.9853L18.8595 50.3595C17.2023 47.7245 16.3276 44.6795 16.3288 41.5528C16.3323 32.4286 23.7579 25.0053 32.8888 25.0053C37.3107 25.0072 41.4663 26.7309 44.592 29.8584C47.7174 32.9863 49.4373 37.1441 49.4362 41.5663C49.4321 50.6905 42.0063 58.1147 32.8826 58.1147H32.876C29.9052 58.1131 26.9916 57.3153 24.4507 55.8077L23.846 55.4491L17.5807 57.0917L19.2537 50.9853Z" fill="url(#paint1_linear_503_1890)"/>
<path d="M27.9039 33.2284C27.5311 32.3999 27.1388 32.3831 26.7842 32.3686C26.4939 32.3561 26.162 32.357 25.8305 32.357C25.4986 32.357 24.9594 32.4819 24.5036 32.9795C24.0473 33.4777 22.7617 34.6814 22.7617 37.1297C22.7617 39.578 24.545 41.9442 24.7936 42.2766C25.0425 42.6083 28.2362 47.7933 33.2944 49.788C37.4981 51.4456 38.3536 51.1159 39.2659 51.0328C40.1784 50.95 42.2103 49.8294 42.6248 48.6674C43.0397 47.5055 43.0397 46.5095 42.9153 46.3014C42.7909 46.0941 42.4591 45.9695 41.9614 45.7208C41.4638 45.472 39.017 44.268 38.5609 44.1019C38.1047 43.9359 37.773 43.8531 37.4411 44.3514C37.1092 44.8489 36.1563 45.9695 35.8658 46.3014C35.5756 46.6341 35.2852 46.6755 34.7877 46.4266C34.2897 46.1769 32.687 45.652 30.7856 43.9569C29.3063 42.6378 28.3075 41.0089 28.0172 40.5106C27.7269 40.0131 27.9861 39.7434 28.2356 39.4955C28.4592 39.2725 28.7334 38.9144 28.9825 38.6239C29.2306 38.3333 29.3134 38.1259 29.4794 37.7941C29.6455 37.4619 29.5623 37.1713 29.4381 36.9224C29.3134 36.6734 28.3464 34.2124 27.9039 33.2284Z" fill="white"/>
<path d="M59.7621 19.0231H64.1301L66.9381 28.9591L69.6501 19.0231H72.6741L75.2181 28.9831L78.0021 19.0231H82.3701L77.7381 35.7991H73.8261L71.0661 26.0551L68.3301 35.7991H64.3941L59.7621 19.0231ZM83.2109 18.0631H87.4349V25.4551C87.9469 24.9431 88.5309 24.5591 89.1869 24.3031C89.8589 24.0471 90.5629 23.9191 91.2989 23.9191C92.9149 23.9191 94.1069 24.3431 94.8749 25.1911C95.6589 26.0231 96.0509 27.1591 96.0509 28.5991V35.7991H91.8269V29.1511C91.8269 27.8551 91.2349 27.2071 90.0509 27.2071C89.5069 27.2071 89.0109 27.3351 88.5629 27.5911C88.1149 27.8311 87.7389 28.2071 87.4349 28.7191V35.7991H83.2109V18.0631ZM102.086 36.1591C100.646 36.1591 99.4781 35.8151 98.5821 35.1271C97.7021 34.4231 97.2621 33.4471 97.2621 32.1991C97.2621 30.9031 97.6861 29.9111 98.5341 29.2231C99.3981 28.5191 100.63 28.1671 102.23 28.1671C102.854 28.1671 103.478 28.2391 104.102 28.3831C104.726 28.5111 105.262 28.6871 105.71 28.9111V28.6711C105.71 27.4391 104.702 26.8231 102.686 26.8231C101.278 26.8231 99.9901 27.0951 98.8221 27.6391V24.7351C99.3341 24.4951 100.006 24.3031 100.838 24.1591C101.67 23.9991 102.534 23.9191 103.43 23.9191C105.574 23.9191 107.19 24.3511 108.278 25.2151C109.382 26.0631 109.934 27.2551 109.934 28.7911V35.7991H105.974V34.8151C105.542 35.2311 104.998 35.5591 104.342 35.7991C103.686 36.0391 102.934 36.1591 102.086 36.1591ZM103.334 33.5671C103.83 33.5671 104.294 33.4711 104.726 33.2791C105.158 33.0711 105.486 32.8071 105.71 32.4871V31.4791C105.022 31.0151 104.238 30.7831 103.358 30.7831C102.798 30.7831 102.366 30.9031 102.062 31.1431C101.758 31.3831 101.606 31.7351 101.606 32.1991C101.606 32.6311 101.75 32.9671 102.038 33.2071C102.342 33.4471 102.774 33.5671 103.334 33.5671ZM116.351 36.1591C114.927 36.1591 113.847 35.7671 113.111 34.9831C112.391 34.1831 112.031 33.0951 112.031 31.7191V27.2071H110.399V24.2791H112.031V20.8231H116.255V24.2791H118.895V27.2071H116.255V31.1431C116.255 31.7671 116.367 32.2151 116.591 32.4871C116.831 32.7591 117.247 32.8951 117.839 32.8951C118.367 32.8951 118.895 32.7511 119.423 32.4631V35.6071C119.007 35.7991 118.559 35.9351 118.079 36.0151C117.615 36.1111 117.039 36.1591 116.351 36.1591ZM125.116 36.1591C124.188 36.1591 123.22 36.0631 122.212 35.8711C121.204 35.6951 120.404 35.4391 119.812 35.1031V32.0071C120.468 32.3911 121.252 32.7111 122.164 32.9671C123.092 33.2071 123.94 33.3271 124.708 33.3271C125.268 33.3271 125.676 33.2871 125.932 33.2071C126.188 33.1271 126.316 32.9671 126.316 32.7271C126.316 32.5351 126.228 32.3831 126.052 32.2711C125.892 32.1431 125.588 32.0151 125.14 31.8871C124.708 31.7431 124.204 31.5911 123.628 31.4311C122.652 31.1431 121.884 30.8471 121.324 30.5431C120.764 30.2391 120.348 29.8551 120.076 29.3911C119.804 28.9271 119.668 28.3431 119.668 27.6391C119.668 26.3911 120.156 25.4631 121.132 24.8551C122.124 24.2311 123.476 23.9191 125.188 23.9191C126.02 23.9191 126.892 24.0071 127.804 24.1831C128.732 24.3591 129.428 24.5911 129.892 24.8791V27.9271C129.412 27.6071 128.772 27.3431 127.972 27.1351C127.188 26.9271 126.452 26.8231 125.764 26.8231C125.22 26.8231 124.796 26.8791 124.492 26.9911C124.188 27.0871 124.036 27.2631 124.036 27.5191C124.036 27.7591 124.188 27.9431 124.492 28.0711C124.796 28.1991 125.34 28.3591 126.124 28.5511C126.636 28.6791 126.852 28.7351 126.772 28.7191C127.796 28.9911 128.588 29.2951 129.148 29.6311C129.708 29.9671 130.1 30.3671 130.324 30.8311C130.564 31.2791 130.684 31.8551 130.684 32.5591C130.684 33.6631 130.204 34.5431 129.244 35.1991C128.3 35.8391 126.924 36.1591 125.116 36.1591ZM137.756 19.0231H141.932L148.628 35.7991H144.284L142.94 32.3431H136.748L135.404 35.7991H131.036L137.756 19.0231ZM141.884 29.0791L139.844 23.4391L137.78 29.0791H141.884ZM150.312 24.2791H154.392V25.4311C155.464 24.4231 156.824 23.9191 158.472 23.9191C159.672 23.9191 160.736 24.1751 161.664 24.6871C162.592 25.1831 163.312 25.8951 163.824 26.8231C164.336 27.7351 164.592 28.7991 164.592 30.0151C164.592 31.2151 164.336 32.2871 163.824 33.2311C163.312 34.1591 162.592 34.8791 161.664 35.3911C160.752 35.9031 159.688 36.1591 158.472 36.1591C157.704 36.1591 156.968 36.0391 156.264 35.7991C155.576 35.5751 155 35.2631 154.536 34.8631V41.0551H150.312V24.2791ZM157.368 32.8711C158.232 32.8711 158.928 32.6151 159.456 32.1031C159.984 31.5911 160.248 30.8951 160.248 30.0151C160.248 29.1351 159.984 28.4471 159.456 27.9511C158.928 27.4391 158.232 27.1831 157.368 27.1831C156.728 27.1831 156.152 27.3511 155.64 27.6871C155.128 28.0071 154.76 28.4471 154.536 29.0071V31.0471C154.76 31.6071 155.128 32.0551 155.64 32.3911C156.152 32.7111 156.728 32.8711 157.368 32.8711ZM166.273 24.2791H170.353V25.4311C171.425 24.4231 172.785 23.9191 174.433 23.9191C175.633 23.9191 176.697 24.1751 177.625 24.6871C178.553 25.1831 179.273 25.8951 179.785 26.8231C180.297 27.7351 180.553 28.7991 180.553 30.0151C180.553 31.2151 180.297 32.2871 179.785 33.2311C179.273 34.1591 178.553 34.8791 177.625 35.3911C176.713 35.9031 175.649 36.1591 174.433 36.1591C173.665 36.1591 172.929 36.0391 172.225 35.7991C171.537 35.5751 170.961 35.2631 170.497 34.8631V41.0551H166.273V24.2791ZM173.329 32.8711C174.193 32.8711 174.889 32.6151 175.417 32.1031C175.945 31.5911 176.209 30.8951 176.209 30.0151C176.209 29.1351 175.945 28.4471 175.417 27.9511C174.889 27.4391 174.193 27.1831 173.329 27.1831C172.689 27.1831 172.113 27.3511 171.601 27.6871C171.089 28.0071 170.721 28.4471 170.497 29.0071V31.0471C170.721 31.6071 171.089 32.0551 171.601 32.3911C172.113 32.7111 172.689 32.8711 173.329 32.8711ZM190.391 19.0231H194.639V25.5031H201.215V19.0231H205.463V35.7991H201.215V29.0311H194.639V35.7991H190.391V19.0231ZM211.961 36.1591C210.521 36.1591 209.353 35.8151 208.457 35.1271C207.577 34.4231 207.137 33.4471 207.137 32.1991C207.137 30.9031 207.561 29.9111 208.409 29.2231C209.273 28.5191 210.505 28.1671 212.105 28.1671C212.729 28.1671 213.353 28.2391 213.977 28.3831C214.601 28.5111 215.137 28.6871 215.585 28.9111V28.6711C215.585 27.4391 214.577 26.8231 212.561 26.8231C211.153 26.8231 209.865 27.0951 208.697 27.6391V24.7351C209.209 24.4951 209.881 24.3031 210.713 24.1591C211.545 23.9991 212.409 23.9191 213.305 23.9191C215.449 23.9191 217.065 24.3511 218.153 25.2151C219.257 26.0631 219.809 27.2551 219.809 28.7911V35.7991H215.849V34.8151C215.417 35.2311 214.873 35.5591 214.217 35.7991C213.561 36.0391 212.809 36.1591 211.961 36.1591ZM213.209 33.5671C213.705 33.5671 214.169 33.4711 214.601 33.2791C215.033 33.0711 215.361 32.8071 215.585 32.4871V31.4791C214.897 31.0151 214.113 30.7831 213.233 30.7831C212.673 30.7831 212.241 30.9031 211.937 31.1431C211.633 31.3831 211.481 31.7351 211.481 32.1991C211.481 32.6311 211.625 32.9671 211.913 33.2071C212.217 33.4471 212.649 33.5671 213.209 33.5671ZM226.226 36.1591C224.802 36.1591 223.722 35.7671 222.986 34.9831C222.266 34.1831 221.906 33.0951 221.906 31.7191V27.2071H220.274V24.2791H221.906V20.8231H226.13V24.2791H228.77V27.2071H226.13V31.1431C226.13 31.7671 226.242 32.2151 226.466 32.4871C226.706 32.7591 227.122 32.8951 227.714 32.8951C228.242 32.8951 228.77 32.7511 229.298 32.4631V35.6071C228.882 35.7991 228.434 35.9351 227.954 36.0151C227.49 36.1111 226.914 36.1591 226.226 36.1591ZM234.875 36.1591C233.451 36.1591 232.371 35.7671 231.635 34.9831C230.915 34.1831 230.555 33.0951 230.555 31.7191V27.2071H228.923V24.2791H230.555V20.8231H234.779V24.2791H237.419V27.2071H234.779V31.1431C234.779 31.7671 234.891 32.2151 235.115 32.4871C235.355 32.7591 235.771 32.8951 236.363 32.8951C236.891 32.8951 237.419 32.7511 237.947 32.4631V35.6071C237.531 35.7991 237.083 35.9351 236.603 36.0151C236.139 36.1111 235.563 36.1591 234.875 36.1591ZM239.141 24.2791H243.365V35.7991H239.141V24.2791ZM74.0878 64.1591C72.5358 64.1591 71.1758 63.8151 70.0078 63.1271C68.8398 62.4231 67.9358 61.4151 67.2958 60.1031C66.6718 58.7911 66.3598 57.2311 66.3598 55.4231C66.3598 53.6151 66.6718 52.0551 67.2958 50.7431C67.9198 49.4311 68.8078 48.4231 69.9598 47.7191C71.1278 47.0151 72.5038 46.6631 74.0878 46.6631C75.6718 46.6631 77.0398 47.0151 78.1918 47.7191C79.3598 48.4231 80.2558 49.4311 80.8798 50.7431C81.5038 52.0551 81.8158 53.6151 81.8158 55.4231C81.8158 57.2311 81.4958 58.7911 80.8558 60.1031C80.2318 61.4151 79.3358 62.4231 78.1678 63.1271C76.9998 63.8151 75.6398 64.1591 74.0878 64.1591ZM74.0878 60.1751C75.1598 60.1751 75.9918 59.7591 76.5838 58.9271C77.1758 58.0951 77.4718 56.9431 77.4718 55.4711C77.4718 53.9831 77.1758 52.8151 76.5838 51.9671C76.0078 51.1031 75.1758 50.6711 74.0878 50.6711C72.9998 50.6711 72.1598 51.1031 71.5678 51.9671C70.9918 52.8151 70.7038 53.9831 70.7038 55.4711C70.7038 56.9431 70.9998 58.0951 71.5918 58.9271C72.1838 59.7591 73.0158 60.1751 74.0878 60.1751ZM88.2078 64.1591C87.2478 64.1591 86.2958 64.0551 85.3518 63.8471C84.4078 63.6391 83.6318 63.3511 83.0238 62.9831V59.2631C83.7438 59.7271 84.5518 60.0951 85.4478 60.3671C86.3598 60.6231 87.2158 60.7511 88.0158 60.7511C89.1358 60.7511 89.9678 60.5351 90.5118 60.1031C91.0558 59.6711 91.3278 59.0791 91.3278 58.3271C91.3278 57.6071 91.0478 57.0471 90.4878 56.6471C89.9438 56.2471 89.1758 56.0471 88.1838 56.0471C87.6238 56.0471 87.0318 56.1031 86.4078 56.2151C85.7998 56.3111 85.2718 56.4551 84.8238 56.6471L83.1918 55.7111L83.8638 47.0231H94.6158V50.5031H87.9678L87.7518 53.1431C88.4878 52.9511 89.2718 52.8551 90.1038 52.8551C91.8478 52.8551 93.2078 53.3191 94.1838 54.2471C95.1758 55.1591 95.6718 56.4791 95.6718 58.2071C95.6718 60.0791 95.0398 61.5431 93.7758 62.5991C92.5118 63.6391 90.6558 64.1591 88.2078 64.1591ZM102.395 64.1591C101.339 64.1591 100.323 64.0711 99.3474 63.8951C98.3874 63.7191 97.5634 63.4551 96.8754 63.1031V59.7431C98.4914 60.4791 100.123 60.8471 101.771 60.8471C103.995 60.8471 105.107 60.1831 105.107 58.8551C105.107 58.1831 104.835 57.7031 104.291 57.4151C103.747 57.1111 102.899 56.9591 101.747 56.9591H99.4194V53.7191H101.651C102.595 53.7191 103.323 53.5591 103.835 53.2391C104.363 52.9191 104.627 52.4471 104.627 51.8231C104.627 51.2311 104.395 50.7751 103.931 50.4551C103.467 50.1351 102.811 49.9751 101.963 49.9751C100.219 49.9751 98.6354 50.4231 97.2114 51.3191V47.8871C97.9314 47.5031 98.7554 47.2071 99.6834 46.9991C100.611 46.7751 101.571 46.6631 102.563 46.6631C104.755 46.6631 106.371 47.1031 107.411 47.9831C108.451 48.8471 108.971 50.0711 108.971 51.6551C108.971 52.3751 108.795 53.0551 108.443 53.6951C108.107 54.3351 107.603 54.8791 106.931 55.3271C108.611 56.0631 109.451 57.3111 109.451 59.0711C109.451 60.6871 108.899 61.9431 107.795 62.8391C106.691 63.7191 104.891 64.1591 102.395 64.1591ZM110.657 61.3751L113.321 58.9511L114.473 57.9191C115.417 57.0871 116.137 56.4231 116.633 55.9271C117.145 55.4311 117.561 54.9271 117.881 54.4151C118.217 53.9031 118.385 53.3991 118.385 52.9031C118.385 51.4151 117.545 50.6711 115.865 50.6711C115.049 50.6711 114.241 50.8151 113.441 51.1031C112.657 51.3911 111.929 51.7911 111.257 52.3031V48.2471C111.977 47.7511 112.817 47.3671 113.777 47.0951C114.737 46.8071 115.761 46.6631 116.849 46.6631C118.097 46.6631 119.177 46.8951 120.089 47.3591C121.001 47.8231 121.697 48.4631 122.177 49.2791C122.657 50.0951 122.897 51.0151 122.897 52.0391C122.897 53.2711 122.609 54.3511 122.033 55.2791C121.473 56.1911 120.561 57.2231 119.297 58.3751L117.161 60.3191H123.425V63.7991H110.657V61.3751ZM140.03 50.5031H132.542V47.0231H144.638V49.8551L138.278 63.7991H133.958L140.03 50.5031ZM145.602 61.3751L148.266 58.9511L149.418 57.9191C150.362 57.0871 151.082 56.4231 151.578 55.9271C152.09 55.4311 152.506 54.9271 152.826 54.4151C153.162 53.9031 153.33 53.3991 153.33 52.9031C153.33 51.4151 152.49 50.6711 150.81 50.6711C149.994 50.6711 149.186 50.8151 148.386 51.1031C147.602 51.3911 146.874 51.7911 146.202 52.3031V48.2471C146.922 47.7511 147.762 47.3671 148.722 47.0951C149.682 46.8071 150.706 46.6631 151.794 46.6631C153.042 46.6631 154.122 46.8951 155.034 47.3591C155.946 47.8231 156.642 48.4631 157.122 49.2791C157.602 50.0951 157.842 51.0151 157.842 52.0391C157.842 53.2711 157.554 54.3511 156.978 55.2791C156.418 56.1911 155.506 57.2231 154.242 58.3751L152.106 60.3191H158.37V63.7991H145.602V61.3751ZM165.091 64.1591C164.035 64.1591 163.019 64.0711 162.043 63.8951C161.083 63.7191 160.259 63.4551 159.571 63.1031V59.7431C161.187 60.4791 162.819 60.8471 164.467 60.8471C166.691 60.8471 167.803 60.1831 167.803 58.8551C167.803 58.1831 167.531 57.7031 166.987 57.4151C166.443 57.1111 165.595 56.9591 164.443 56.9591H162.115V53.7191H164.347C165.291 53.7191 166.019 53.5591 166.531 53.2391C167.059 52.9191 167.323 52.4471 167.323 51.8231C167.323 51.2311 167.091 50.7751 166.627 50.4551C166.163 50.1351 165.507 49.9751 164.659 49.9751C162.915 49.9751 161.331 50.4231 159.907 51.3191V47.8871C160.627 47.5031 161.451 47.2071 162.379 46.9991C163.307 46.7751 164.267 46.6631 165.259 46.6631C167.451 46.6631 169.067 47.1031 170.107 47.9831C171.147 48.8471 171.667 50.0711 171.667 51.6551C171.667 52.3751 171.491 53.0551 171.139 53.6951C170.803 54.3351 170.299 54.8791 169.627 55.3271C171.307 56.0631 172.147 57.3111 172.147 59.0711C172.147 60.6871 171.595 61.9431 170.491 62.8391C169.387 63.7191 167.587 64.1591 165.091 64.1591ZM181.508 61.3751L184.172 58.9511L185.324 57.9191C186.268 57.0871 186.988 56.4231 187.484 55.9271C187.996 55.4311 188.412 54.9271 188.732 54.4151C189.068 53.9031 189.236 53.3991 189.236 52.9031C189.236 51.4151 188.396 50.6711 186.716 50.6711C185.9 50.6711 185.092 50.8151 184.292 51.1031C183.508 51.3911 182.78 51.7911 182.108 52.3031V48.2471C182.828 47.7511 183.668 47.3671 184.628 47.0951C185.588 46.8071 186.612 46.6631 187.7 46.6631C188.948 46.6631 190.028 46.8951 190.94 47.3591C191.852 47.8231 192.548 48.4631 193.028 49.2791C193.508 50.0951 193.748 51.0151 193.748 52.0391C193.748 53.2711 193.46 54.3511 192.884 55.2791C192.324 56.1911 191.412 57.2231 190.148 58.3751L188.012 60.3191H194.276V63.7991H181.508V61.3751ZM202.725 50.5031H195.237V47.0231H207.333V49.8551L200.973 63.7991H196.653L202.725 50.5031ZM213.649 64.1591C212.465 64.1591 211.449 64.0231 210.601 63.7511V60.1511C211.337 60.5351 212.241 60.7271 213.313 60.7271C214.529 60.7271 215.521 60.4071 216.289 59.7671C217.073 59.1271 217.545 58.1751 217.705 56.9111C217.321 57.3111 216.793 57.6311 216.121 57.8711C215.449 58.0951 214.721 58.2071 213.937 58.2071C212.833 58.2071 211.857 57.9831 211.009 57.5351C210.161 57.0871 209.497 56.4391 209.017 55.5911C208.537 54.7431 208.297 53.7351 208.297 52.5671C208.297 51.4311 208.553 50.4231 209.065 49.5431C209.593 48.6471 210.369 47.9431 211.393 47.4311C212.433 46.9191 213.689 46.6631 215.161 46.6631C217.385 46.6631 219.105 47.3511 220.321 48.7271C221.553 50.0871 222.169 51.9671 222.169 54.3671C222.169 56.4471 221.801 58.2231 221.065 59.6951C220.345 61.1671 219.345 62.2791 218.065 63.0311C216.785 63.7831 215.313 64.1591 213.649 64.1591ZM215.161 54.9431C215.865 54.9431 216.457 54.7031 216.937 54.2231C217.417 53.7431 217.657 53.1591 217.657 52.4711C217.657 51.7671 217.417 51.1751 216.937 50.6951C216.457 50.2151 215.865 49.9751 215.161 49.9751C214.473 49.9751 213.889 50.2231 213.409 50.7191C212.929 51.1991 212.689 51.7831 212.689 52.4711C212.689 53.1591 212.929 53.7431 213.409 54.2231C213.889 54.7031 214.473 54.9431 215.161 54.9431ZM228.72 64.1591C227.536 64.1591 226.52 64.0231 225.672 63.7511V60.1511C226.408 60.5351 227.312 60.7271 228.384 60.7271C229.6 60.7271 230.592 60.4071 231.36 59.7671C232.144 59.1271 232.616 58.1751 232.776 56.9111C232.392 57.3111 231.864 57.6311 231.192 57.8711C230.52 58.0951 229.792 58.2071 229.008 58.2071C227.904 58.2071 226.928 57.9831 226.08 57.5351C225.232 57.0871 224.568 56.4391 224.088 55.5911C223.608 54.7431 223.368 53.7351 223.368 52.5671C223.368 51.4311 223.624 50.4231 224.136 49.5431C224.664 48.6471 225.44 47.9431 226.464 47.4311C227.504 46.9191 228.76 46.6631 230.232 46.6631C232.456 46.6631 234.176 47.3511 235.392 48.7271C236.624 50.0871 237.24 51.9671 237.24 54.3671C237.24 56.4471 236.872 58.2231 236.136 59.6951C235.416 61.1671 234.416 62.2791 233.136 63.0311C231.856 63.7831 230.384 64.1591 228.72 64.1591ZM230.232 54.9431C230.936 54.9431 231.528 54.7031 232.008 54.2231C232.488 53.7431 232.728 53.1591 232.728 52.4711C232.728 51.7671 232.488 51.1751 232.008 50.6951C231.528 50.2151 230.936 49.9751 230.232 49.9751C229.544 49.9751 228.96 50.2231 228.48 50.7191C228 51.1991 227.76 51.7831 227.76 52.4711C227.76 53.1591 228 53.7431 228.48 54.2231C228.96 54.7031 229.544 54.9431 230.232 54.9431Z" fill="white"/>
<defs>
<linearGradient id="paint0_linear_503_1890" x1="1944.22" y1="3901.17" x2="1944.22" y2="22.3384" gradientUnits="userSpaceOnUse">
<stop stop-color="#1FAF38"/>
<stop offset="1" stop-color="#60D669"/>
</linearGradient>
<linearGradient id="paint1_linear_503_1890" x1="2012.8" y1="4039.56" x2="2012.8" y2="21.6428" gradientUnits="userSpaceOnUse">
<stop stop-color="#F9F9F9"/>
<stop offset="1" stop-color="white"/>
</linearGradient>
</defs>
</svg>
