<svg width="176" height="54" viewBox="0 0 176 54" fill="none" xmlns="http://www.w3.org/2000/svg">
<g filter="url(#filter0_d_573_7117)">
<path d="M6 7C6 3.13401 9.13401 0 13 0H167C170.866 0 174 3.13401 174 7V39C174 42.866 170.866 46 167 46H13C9.13401 46 6 42.866 6 39V7Z" fill="#009EE3"/>
<path d="M13 0.1H167C170.811 0.1 173.9 3.18924 173.9 7V39C173.9 42.8108 170.811 45.9 167 45.9H13C9.18924 45.9 6.1 42.8108 6.1 39V7C6.1 3.18924 9.18924 0.1 13 0.1Z" stroke="white" stroke-width="0.2"/>
</g>
<path d="M44.253 15.816H47.997C49.213 15.816 50.269 16.04 51.165 16.488C52.061 16.936 52.749 17.576 53.229 18.408C53.709 19.24 53.949 20.2213 53.949 21.352C53.949 23.208 53.4103 24.616 52.333 25.576C51.2556 26.5253 49.7516 27 47.821 27H44.253V15.816ZM47.853 25.32C49.1543 25.32 50.1516 24.9733 50.845 24.28C51.549 23.576 51.901 22.6 51.901 21.352C51.901 20.5947 51.7463 19.928 51.437 19.352C51.1276 18.7653 50.685 18.312 50.109 17.992C49.533 17.6613 48.8503 17.496 48.061 17.496H46.285V25.32H47.853ZM59.8698 27.24C58.4405 27.24 57.3098 26.8827 56.4778 26.168C55.6458 25.4533 55.2298 24.456 55.2298 23.176C55.2298 21.9173 55.5978 20.92 56.3338 20.184C57.0698 19.448 58.1205 19.08 59.4858 19.08C60.3818 19.08 61.1445 19.2507 61.7738 19.592C62.4138 19.9333 62.8938 20.4027 63.2138 21C63.5338 21.5867 63.6938 22.2587 63.6938 23.016V23.944H57.1498C57.2885 25.0853 58.2805 25.656 60.1258 25.656C60.6165 25.656 61.1178 25.6133 61.6298 25.528C62.1418 25.4427 62.5898 25.3253 62.9738 25.176V26.728C62.6112 26.8773 62.1418 27 61.5658 27.096C61.0005 27.192 60.4352 27.24 59.8698 27.24ZM61.7898 22.568C61.7685 21.96 61.5498 21.4907 61.1338 21.16C60.7285 20.8293 60.1685 20.664 59.4538 20.664C58.7498 20.664 58.1952 20.8347 57.7898 21.176C57.3845 21.5173 57.1712 21.9813 57.1498 22.568H61.7898ZM68.3878 27.24C67.5452 27.24 66.9052 27.0053 66.4678 26.536C66.0305 26.0667 65.8118 25.4053 65.8118 24.552V20.856H64.6598V19.32H65.8118V17.016H67.8278V19.32H69.6678V20.856H67.8278V24.296C67.8278 24.7867 67.9185 25.1387 68.0998 25.352C68.2812 25.5547 68.6118 25.656 69.0918 25.656C69.4225 25.656 69.7478 25.5813 70.0678 25.432V26.968C69.6092 27.1493 69.0492 27.24 68.3878 27.24ZM74.0846 27.24C73.1673 27.24 72.4153 27 71.8286 26.52C71.2419 26.0293 70.9486 25.3733 70.9486 24.552C70.9486 23.6987 71.2259 23.032 71.7806 22.552C72.3353 22.072 73.1139 21.832 74.1166 21.832C75.0873 21.832 75.9246 22.0293 76.6286 22.424V22.216C76.6286 21.672 76.4579 21.2773 76.1166 21.032C75.7859 20.7867 75.2473 20.664 74.5006 20.664C74.0313 20.664 73.5673 20.712 73.1086 20.808C72.6499 20.8933 72.2446 21.016 71.8926 21.176V19.592C72.2126 19.4427 72.6393 19.32 73.1726 19.224C73.7166 19.128 74.2393 19.08 74.7406 19.08C76.0739 19.08 77.0606 19.368 77.7006 19.944C78.3406 20.5093 78.6606 21.2987 78.6606 22.312V27H76.7566V26.248C76.4259 26.568 76.0473 26.8133 75.6206 26.984C75.2046 27.1547 74.6926 27.24 74.0846 27.24ZM74.5806 25.768C75.0286 25.768 75.4339 25.6827 75.7966 25.512C76.1593 25.3307 76.4366 25.0853 76.6286 24.776V23.928C76.0419 23.512 75.3699 23.304 74.6126 23.304C73.5353 23.304 72.9966 23.72 72.9966 24.552C72.9966 24.9573 73.1299 25.2613 73.3966 25.464C73.6739 25.6667 74.0686 25.768 74.5806 25.768ZM81.6242 30.168C81.3469 30.168 81.0536 30.1467 80.7442 30.104C80.4456 30.072 80.2109 30.024 80.0402 29.96V28.424C80.3069 28.5307 80.6376 28.584 81.0322 28.584C81.4376 28.584 81.7416 28.4933 81.9442 28.312C82.1469 28.1307 82.3229 27.8427 82.4722 27.448L82.7762 26.648L79.4642 19.32H81.4962L83.8642 24.92L86.0882 19.32H88.1042L84.7442 27.688C84.4029 28.5307 83.9869 29.1547 83.4962 29.56C83.0162 29.9653 82.3922 30.168 81.6242 30.168ZM89.378 15.176H91.394V27H89.378V15.176ZM93.3155 19.32H95.3635V27H93.3155V19.32ZM103.05 15.816H108.362C109.386 15.816 110.181 16.072 110.746 16.584C111.322 17.096 111.61 17.8427 111.61 18.824C111.61 19.3467 111.482 19.8213 111.226 20.248C110.981 20.664 110.65 20.984 110.234 21.208C111.397 21.592 111.978 22.4507 111.978 23.784C111.978 24.4453 111.829 25.0213 111.53 25.512C111.231 25.992 110.826 26.36 110.314 26.616C109.813 26.872 109.253 27 108.634 27H103.05V15.816ZM108.042 20.472C108.501 20.472 108.869 20.3493 109.146 20.104C109.423 19.848 109.562 19.464 109.562 18.952C109.562 18.3653 109.423 17.9653 109.146 17.752C108.879 17.528 108.479 17.416 107.946 17.416H105.066V20.472H108.042ZM108.17 25.4C108.735 25.4 109.167 25.2827 109.466 25.048C109.775 24.8133 109.93 24.3973 109.93 23.8C109.93 23.2027 109.77 22.7707 109.45 22.504C109.13 22.2373 108.666 22.104 108.058 22.104H105.066V25.4H108.17ZM114.717 17.976C114.397 17.976 114.125 17.8693 113.901 17.656C113.688 17.4427 113.581 17.176 113.581 16.856C113.581 16.536 113.688 16.2693 113.901 16.056C114.125 15.832 114.397 15.72 114.717 15.72C115.037 15.72 115.309 15.832 115.533 16.056C115.757 16.2693 115.869 16.536 115.869 16.856C115.869 17.176 115.757 17.4427 115.533 17.656C115.309 17.8693 115.037 17.976 114.717 17.976ZM113.693 19.32H115.741V27H113.693V19.32ZM117.784 15.176H119.8V27H117.784V15.176ZM125.786 30.68C125.274 30.68 124.762 30.632 124.25 30.536C123.738 30.44 123.311 30.312 122.97 30.152V28.552C123.802 28.9147 124.74 29.096 125.786 29.096C126.724 29.096 127.396 28.8987 127.802 28.504C128.218 28.1093 128.426 27.5227 128.426 26.744V26.248C128.063 26.5787 127.631 26.8293 127.13 27C126.628 27.16 126.09 27.24 125.514 27.24C124.735 27.24 124.031 27.0693 123.402 26.728C122.772 26.376 122.282 25.8907 121.93 25.272C121.578 24.6533 121.402 23.944 121.402 23.144C121.402 22.3333 121.572 21.624 121.914 21.016C122.266 20.3973 122.746 19.9227 123.354 19.592C123.972 19.2507 124.671 19.08 125.45 19.08C126.1 19.08 126.66 19.1707 127.13 19.352C127.599 19.5227 128.052 19.8107 128.49 20.216V19.32H130.442V26.536C130.442 27.8587 130.058 28.8773 129.29 29.592C128.532 30.3173 127.364 30.68 125.786 30.68ZM125.946 25.656C126.522 25.656 127.034 25.5013 127.482 25.192C127.94 24.872 128.255 24.4507 128.426 23.928V22.376C128.244 21.8533 127.93 21.4373 127.482 21.128C127.034 20.8187 126.522 20.664 125.946 20.664C125.22 20.664 124.623 20.8933 124.154 21.352C123.684 21.8107 123.45 22.408 123.45 23.144C123.45 23.88 123.684 24.4827 124.154 24.952C124.623 25.4213 125.22 25.656 125.946 25.656ZM133.498 17.976C133.178 17.976 132.906 17.8693 132.682 17.656C132.469 17.4427 132.362 17.176 132.362 16.856C132.362 16.536 132.469 16.2693 132.682 16.056C132.906 15.832 133.178 15.72 133.498 15.72C133.818 15.72 134.09 15.832 134.314 16.056C134.538 16.2693 134.65 16.536 134.65 16.856C134.65 17.176 134.538 17.4427 134.314 17.656C134.09 17.8693 133.818 17.976 133.498 17.976ZM132.474 19.32H134.522V27H132.474V19.32Z" fill="white"/>
<defs>
<filter id="filter0_d_573_7117" x="0" y="0" width="176" height="54" filterUnits="userSpaceOnUse" color-interpolation-filters="sRGB">
<feFlood flood-opacity="0" result="BackgroundImageFix"/>
<feColorMatrix in="SourceAlpha" type="matrix" values="0 0 0 0 0 0 0 0 0 0 0 0 0 0 0 0 0 0 127 0" result="hardAlpha"/>
<feOffset dx="-2" dy="4"/>
<feGaussianBlur stdDeviation="2"/>
<feComposite in2="hardAlpha" operator="out"/>
<feColorMatrix type="matrix" values="0 0 0 0 0 0 0 0 0 0 0 0 0 0 0 0 0 0 0.2 0"/>
<feBlend mode="normal" in2="BackgroundImageFix" result="effect1_dropShadow_573_7117"/>
<feBlend mode="normal" in="SourceGraphic" in2="effect1_dropShadow_573_7117" result="shape"/>
</filter>
</defs>
</svg>
