<svg width="259" height="85" viewBox="0 0 259 85" fill="none" xmlns="http://www.w3.org/2000/svg">
<rect x="0.325684" y="0.5" width="258" height="84" rx="20" fill="#009EE3"/>
<path d="M44.7596 61.3928C30.4104 61.3928 18.7992 49.7603 18.7992 35.4324C18.7992 34.8029 19.2353 34.2635 19.84 34.124L25.6587 32.7814C25.9656 32.7106 26.2875 32.7498 26.5683 32.8923C26.8491 33.0348 27.0709 33.2714 27.1949 33.5608L29.8804 39.8269C29.9951 40.0946 30.0197 40.3923 29.9504 40.6752C29.8812 40.958 29.7219 41.2107 29.4965 41.3951L26.1051 44.17C28.1607 48.5514 31.7321 52.0743 36.022 54.0869L38.7968 50.6954C38.9813 50.47 39.2339 50.3107 39.5168 50.2414C39.7997 50.1722 40.0974 50.1968 40.3651 50.3115L46.6313 52.997C46.9207 53.1211 47.1573 53.3429 47.2997 53.6237C47.4422 53.9045 47.4815 54.2264 47.4107 54.5332L46.0681 60.3519C45.9998 60.6478 45.8332 60.9118 45.5956 61.1008C45.3579 61.2898 45.0632 61.3928 44.7596 61.3928ZM30.3026 30.3858C32.0636 30.8396 33.4426 32.2185 33.8964 33.9796C34.0479 34.5676 33.6119 35.1434 33.0049 35.1562L32.3585 35.17C31.9354 35.179 31.5622 34.9032 31.4376 34.4989C31.3173 34.1093 31.1037 33.755 30.8154 33.4668C30.5272 33.1785 30.1729 32.9649 29.7833 32.8446C29.3789 32.72 29.1032 32.3468 29.1122 31.9237L29.1259 31.2773C29.1388 30.6703 29.7146 30.2343 30.3026 30.3858ZM30.3357 20.2778C37.6136 20.9111 43.3715 26.6744 44.0043 33.9464C44.0514 34.4879 43.6295 34.956 43.0862 34.9676L42.4589 34.9809C41.9656 34.9913 41.5471 34.619 41.5027 34.1275C40.9585 28.0936 36.1836 23.3231 30.1547 22.7794C29.6632 22.735 29.2907 22.3166 29.3012 21.8232L29.3145 21.1959C29.3261 20.6526 29.7943 20.2307 30.3357 20.2778ZM30.2788 25.3001C34.8292 25.8676 38.4136 29.4456 38.982 34.0034C39.0511 34.5575 38.6259 35.0501 38.0676 35.0618L37.438 35.075C36.9619 35.085 36.549 34.7382 36.487 34.266C36.0435 30.8906 33.3913 28.2386 30.0162 27.7952C29.5439 27.7331 29.1972 27.3203 29.2071 26.8441L29.2203 26.2145C29.232 25.6562 29.7246 25.231 30.2788 25.3001Z" fill="white"/>
<path d="M91.0717 35.0991C90.0157 35.8191 88.7437 36.2911 87.2557 36.5151L86.8957 37.4031C87.5997 37.5151 88.1277 37.7471 88.4797 38.0991C88.8477 38.4671 89.0317 38.9951 89.0317 39.6831C89.0317 40.5311 88.6877 41.1711 87.9997 41.6031C87.3117 42.0351 86.3757 42.2511 85.1917 42.2511C84.6477 42.2511 84.1197 42.2191 83.6077 42.1551C83.1117 42.0911 82.7357 42.0111 82.4797 41.9151V39.8751C82.8957 40.0991 83.3837 40.2111 83.9437 40.2111C84.3277 40.2111 84.6237 40.1391 84.8317 39.9951C85.0397 39.8511 85.1437 39.6511 85.1437 39.3951C85.1437 39.0911 84.9597 38.8511 84.5917 38.6751C84.2397 38.5151 83.6397 38.4351 82.7917 38.4351L83.5117 36.5631C81.9597 36.3711 80.6077 35.8991 79.4557 35.1471C78.3197 34.3951 77.4397 33.4031 76.8157 32.1711C76.2077 30.9391 75.9037 29.5231 75.9037 27.9231C75.9037 26.1471 76.2797 24.6031 77.0317 23.2911C77.7837 21.9631 78.8477 20.9471 80.2237 20.2431C81.6157 19.5231 83.2237 19.1631 85.0477 19.1631C86.2477 19.1631 87.3197 19.2831 88.2637 19.5231C89.2077 19.7631 90.0797 20.1391 90.8797 20.6511V24.6831C90.1757 24.1231 89.3757 23.7151 88.4797 23.4591C87.5997 23.2031 86.5837 23.0751 85.4317 23.0751C83.7837 23.0751 82.5117 23.5071 81.6157 24.3711C80.7197 25.2191 80.2717 26.4031 80.2717 27.9231C80.2717 29.4431 80.7197 30.6351 81.6157 31.4991C82.5277 32.3631 83.7997 32.7951 85.4317 32.7951C86.5837 32.7951 87.6157 32.6591 88.5277 32.3871C89.4397 32.1151 90.2877 31.6831 91.0717 31.0911V35.0991ZM96.7355 36.6591C95.2955 36.6591 94.1275 36.3151 93.2315 35.6271C92.3515 34.9231 91.9115 33.9471 91.9115 32.6991C91.9115 31.4031 92.3355 30.4111 93.1835 29.7231C94.0475 29.0191 95.2795 28.6671 96.8795 28.6671C97.5035 28.6671 98.1275 28.7391 98.7515 28.8831C99.3755 29.0111 99.9115 29.1871 100.36 29.4111V29.1711C100.36 27.9391 99.3515 27.3231 97.3355 27.3231C95.9275 27.3231 94.6395 27.5951 93.4715 28.1391V25.2351C93.9835 24.9951 94.6555 24.8031 95.4875 24.6591C96.3195 24.4991 97.1835 24.4191 98.0795 24.4191C100.224 24.4191 101.84 24.8511 102.928 25.7151C104.032 26.5631 104.584 27.7551 104.584 29.2911V36.2991H100.624V35.3151C100.192 35.7311 99.6475 36.0591 98.9915 36.2991C98.3355 36.5391 97.5835 36.6591 96.7355 36.6591ZM97.9835 34.0671C98.4795 34.0671 98.9435 33.9711 99.3755 33.7791C99.8075 33.5711 100.136 33.3071 100.36 32.9871V31.9791C99.6715 31.5151 98.8875 31.2831 98.0075 31.2831C97.4475 31.2831 97.0155 31.4031 96.7115 31.6431C96.4075 31.8831 96.2555 32.2351 96.2555 32.6991C96.2555 33.1311 96.3995 33.4671 96.6875 33.7071C96.9915 33.9471 97.4235 34.0671 97.9835 34.0671ZM114.034 23.6991C112.642 23.6991 111.562 23.3311 110.794 22.5951C110.026 21.8431 109.642 20.8271 109.642 19.5471H112.786C112.786 20.5391 113.202 21.0351 114.034 21.0351C114.434 21.0351 114.738 20.9071 114.946 20.6511C115.17 20.3951 115.282 20.0271 115.282 19.5471H118.426C118.426 20.8271 118.042 21.8431 117.274 22.5951C116.506 23.3311 115.426 23.6991 114.034 23.6991ZM112.882 41.8191C112.114 41.8191 111.338 41.7471 110.554 41.6031C109.786 41.4591 109.122 41.2671 108.562 41.0271V38.0991C109.826 38.6431 111.266 38.9151 112.882 38.9151C114.05 38.9151 114.89 38.6751 115.402 38.1951C115.93 37.7151 116.194 37.0111 116.194 36.0831V35.3871C115.73 35.7871 115.154 36.0991 114.466 36.3231C113.794 36.5471 113.074 36.6591 112.306 36.6591C111.09 36.6591 110.018 36.4031 109.09 35.8911C108.162 35.3791 107.434 34.6591 106.906 33.7311C106.394 32.8031 106.138 31.7391 106.138 30.5391C106.138 29.3231 106.394 28.2511 106.906 27.3231C107.418 26.3951 108.138 25.6831 109.066 25.1871C109.994 24.6751 111.058 24.4191 112.258 24.4191C113.906 24.4191 115.266 24.9231 116.338 25.9311V24.7791H120.418V35.5071C120.418 37.5071 119.802 39.0591 118.57 40.1631C117.354 41.2671 115.458 41.8191 112.882 41.8191ZM113.362 33.3951C114.018 33.3951 114.602 33.2271 115.114 32.8911C115.626 32.5551 115.986 32.1071 116.194 31.5471V29.5311C115.97 28.9711 115.602 28.5311 115.09 28.2111C114.578 27.8751 114.002 27.7071 113.362 27.7071C112.498 27.7071 111.802 27.9631 111.274 28.4751C110.746 28.9711 110.482 29.6511 110.482 30.5151C110.482 31.3951 110.746 32.0991 111.274 32.6271C111.802 33.1391 112.498 33.3951 113.362 33.3951ZM122.579 24.7791H126.659V26.2191C127.107 25.7071 127.739 25.3151 128.555 25.0431C129.371 24.7551 130.275 24.6111 131.267 24.6111V27.8511C130.211 27.8511 129.275 28.0031 128.459 28.3071C127.659 28.6111 127.107 29.0671 126.803 29.6751V36.2991H122.579V24.7791ZM132.47 24.7791H136.694V36.2991H132.47V24.7791ZM147.001 19.5231H151.081L155.929 29.9151L160.801 19.5231H164.857V36.2991H160.897V27.8751L156.889 36.2991H154.969L150.985 27.8751V36.2991H147.001V19.5231ZM173.785 36.6591C171.529 36.6591 169.753 36.1311 168.457 35.0751C167.177 34.0191 166.537 32.5231 166.537 30.5871C166.537 28.6831 167.105 27.1791 168.241 26.0751C169.393 24.9711 171.049 24.4191 173.209 24.4191C174.585 24.4191 175.761 24.6831 176.737 25.2111C177.729 25.7231 178.473 26.4351 178.969 27.3471C179.481 28.2431 179.737 29.2591 179.737 30.3951V31.9551H170.545C170.705 32.5951 171.105 33.0591 171.745 33.3471C172.385 33.6351 173.257 33.7791 174.361 33.7791C175.113 33.7791 175.881 33.7151 176.665 33.5871C177.465 33.4591 178.153 33.2831 178.729 33.0591V35.8431C178.137 36.0831 177.393 36.2751 176.497 36.4191C175.617 36.5791 174.713 36.6591 173.785 36.6591ZM175.753 29.3151C175.689 28.6911 175.433 28.2031 174.985 27.8511C174.537 27.4991 173.921 27.3231 173.137 27.3231C172.369 27.3231 171.761 27.5071 171.313 27.8751C170.865 28.2271 170.609 28.7071 170.545 29.3151H175.753ZM181.407 24.7791H185.487V26.2191C185.935 25.7071 186.567 25.3151 187.383 25.0431C188.199 24.7551 189.103 24.6111 190.095 24.6111V27.8511C189.039 27.8511 188.103 28.0031 187.287 28.3071C186.487 28.6111 185.935 29.0671 185.631 29.6751V36.2991H181.407V24.7791ZM191.298 18.5631H195.522V29.4111L199.314 24.7791H204.162L199.578 30.3471L204.786 36.2991H199.938L195.522 31.2351V36.2991H191.298V18.5631ZM211.8 36.6591C209.544 36.6591 207.768 36.1311 206.472 35.0751C205.192 34.0191 204.552 32.5231 204.552 30.5871C204.552 28.6831 205.12 27.1791 206.256 26.0751C207.408 24.9711 209.064 24.4191 211.224 24.4191C212.6 24.4191 213.776 24.6831 214.752 25.2111C215.744 25.7231 216.488 26.4351 216.984 27.3471C217.496 28.2431 217.752 29.2591 217.752 30.3951V31.9551H208.56C208.72 32.5951 209.12 33.0591 209.76 33.3471C210.4 33.6351 211.272 33.7791 212.376 33.7791C213.128 33.7791 213.896 33.7151 214.68 33.5871C215.48 33.4591 216.168 33.2831 216.744 33.0591V35.8431C216.152 36.0831 215.408 36.2751 214.512 36.4191C213.632 36.5791 212.728 36.6591 211.8 36.6591ZM213.768 29.3151C213.704 28.6911 213.448 28.2031 213 27.8511C212.552 27.4991 211.936 27.3231 211.152 27.3231C210.384 27.3231 209.776 27.5071 209.328 27.8751C208.88 28.2271 208.624 28.7071 208.56 29.3151H213.768ZM218.943 33.9951L224.415 27.7071H219.087V24.7791H229.983V27.0831L224.559 33.3711H230.175V36.2991H218.943V33.9951ZM234.101 23.2431C233.461 23.2431 232.925 23.0351 232.493 22.6191C232.061 22.2031 231.845 21.6751 231.845 21.0351C231.845 20.4111 232.061 19.8911 232.493 19.4751C232.925 19.0431 233.461 18.8271 234.101 18.8271C234.725 18.8271 235.253 19.0431 235.685 19.4751C236.133 19.8911 236.357 20.4111 236.357 21.0351C236.357 21.6591 236.133 22.1871 235.685 22.6191C235.253 23.0351 234.725 23.2431 234.101 23.2431ZM231.989 24.7791H236.213V36.2991H231.989V24.7791ZM75.6395 64.6591C74.0875 64.6591 72.7275 64.3151 71.5595 63.6271C70.3915 62.9231 69.4875 61.9151 68.8475 60.6031C68.2235 59.2911 67.9115 57.7311 67.9115 55.9231C67.9115 54.1151 68.2235 52.5551 68.8475 51.2431C69.4715 49.9311 70.3595 48.9231 71.5115 48.2191C72.6795 47.5151 74.0555 47.1631 75.6395 47.1631C77.2235 47.1631 78.5915 47.5151 79.7435 48.2191C80.9115 48.9231 81.8075 49.9311 82.4315 51.2431C83.0555 52.5551 83.3675 54.1151 83.3675 55.9231C83.3675 57.7311 83.0475 59.2911 82.4075 60.6031C81.7835 61.9151 80.8875 62.9231 79.7195 63.6271C78.5515 64.3151 77.1915 64.6591 75.6395 64.6591ZM75.6395 60.6751C76.7115 60.6751 77.5435 60.2591 78.1355 59.4271C78.7275 58.5951 79.0235 57.4431 79.0235 55.9711C79.0235 54.4831 78.7275 53.3151 78.1355 52.4671C77.5595 51.6031 76.7275 51.1711 75.6395 51.1711C74.5515 51.1711 73.7115 51.6031 73.1195 52.4671C72.5435 53.3151 72.2555 54.4831 72.2555 55.9711C72.2555 57.4431 72.5515 58.5951 73.1435 59.4271C73.7355 60.2591 74.5675 60.6751 75.6395 60.6751ZM91.4636 64.6591C89.3676 64.6591 87.6956 64.2111 86.4476 63.3151C85.1996 62.4191 84.5756 61.1471 84.5756 59.4991C84.5756 58.5551 84.7916 57.7551 85.2236 57.0991C85.6716 56.4271 86.2636 55.9311 86.9996 55.6111C86.3916 55.1951 85.9276 54.6831 85.6076 54.0751C85.2876 53.4511 85.1276 52.7711 85.1276 52.0351C85.1276 50.4991 85.6956 49.3071 86.8316 48.4591C87.9836 47.5951 89.5276 47.1631 91.4636 47.1631C93.3996 47.1631 94.9356 47.5951 96.0716 48.4591C97.2076 49.3071 97.7756 50.4991 97.7756 52.0351C97.7756 52.7871 97.6156 53.4751 97.2956 54.0991C96.9756 54.7071 96.5196 55.2111 95.9276 55.6111C96.6636 55.9151 97.2476 56.4031 97.6796 57.0751C98.1116 57.7471 98.3276 58.5551 98.3276 59.4991C98.3276 61.1471 97.7036 62.4191 96.4556 63.3151C95.2236 64.2111 93.5596 64.6591 91.4636 64.6591ZM91.4636 54.5791C92.0876 54.5791 92.5996 54.3871 92.9996 54.0031C93.4156 53.6191 93.6236 53.1311 93.6236 52.5391C93.6236 51.9471 93.4156 51.4591 92.9996 51.0751C92.5996 50.6751 92.0876 50.4751 91.4636 50.4751C90.8396 50.4751 90.3276 50.6671 89.9276 51.0511C89.5276 51.4351 89.3276 51.9311 89.3276 52.5391C89.3276 53.1311 89.5276 53.6191 89.9276 54.0031C90.3276 54.3871 90.8396 54.5791 91.4636 54.5791ZM91.4636 61.3711C92.1996 61.3711 92.7916 61.1631 93.2396 60.7471C93.7036 60.3151 93.9356 59.7551 93.9356 59.0671C93.9356 58.3951 93.7036 57.8431 93.2396 57.4111C92.7756 56.9791 92.1836 56.7631 91.4636 56.7631C90.7436 56.7631 90.1516 56.9791 89.6876 57.4111C89.2236 57.8431 88.9916 58.3951 88.9916 59.0671C88.9916 59.7551 89.2156 60.3151 89.6636 60.7471C90.1276 61.1631 90.7276 61.3711 91.4636 61.3711ZM104.713 64.6591C103.753 64.6591 102.801 64.5551 101.857 64.3471C100.913 64.1391 100.137 63.8511 99.5287 63.4831V59.7631C100.249 60.2271 101.057 60.5951 101.953 60.8671C102.865 61.1231 103.721 61.2511 104.521 61.2511C105.641 61.2511 106.473 61.0351 107.017 60.6031C107.561 60.1711 107.833 59.5791 107.833 58.8271C107.833 58.1071 107.553 57.5471 106.993 57.1471C106.449 56.7471 105.681 56.5471 104.689 56.5471C104.129 56.5471 103.537 56.6031 102.913 56.7151C102.305 56.8111 101.777 56.9551 101.329 57.1471L99.6967 56.2111L100.369 47.5231H111.121V51.0031H104.473L104.257 53.6431C104.993 53.4511 105.777 53.3551 106.609 53.3551C108.353 53.3551 109.713 53.8191 110.689 54.7471C111.681 55.6591 112.177 56.9791 112.177 58.7071C112.177 60.5791 111.545 62.0431 110.281 63.0991C109.017 64.1391 107.161 64.6591 104.713 64.6591ZM121.108 64.6591C119.556 64.6591 118.196 64.3151 117.028 63.6271C115.86 62.9231 114.956 61.9151 114.316 60.6031C113.692 59.2911 113.38 57.7311 113.38 55.9231C113.38 54.1151 113.692 52.5551 114.316 51.2431C114.94 49.9311 115.828 48.9231 116.98 48.2191C118.148 47.5151 119.524 47.1631 121.108 47.1631C122.692 47.1631 124.06 47.5151 125.212 48.2191C126.38 48.9231 127.276 49.9311 127.9 51.2431C128.524 52.5551 128.836 54.1151 128.836 55.9231C128.836 57.7311 128.516 59.2911 127.876 60.6031C127.252 61.9151 126.356 62.9231 125.188 63.6271C124.02 64.3151 122.66 64.6591 121.108 64.6591ZM121.108 60.6751C122.18 60.6751 123.012 60.2591 123.604 59.4271C124.196 58.5951 124.492 57.4431 124.492 55.9711C124.492 54.4831 124.196 53.3151 123.604 52.4671C123.028 51.6031 122.196 51.1711 121.108 51.1711C120.02 51.1711 119.18 51.6031 118.588 52.4671C118.012 53.3151 117.724 54.4831 117.724 55.9711C117.724 57.4431 118.02 58.5951 118.612 59.4271C119.204 60.2591 120.036 60.6751 121.108 60.6751ZM143.721 64.6591C142.665 64.6591 141.649 64.5711 140.673 64.3951C139.713 64.2191 138.889 63.9551 138.201 63.6031V60.2431C139.817 60.9791 141.449 61.3471 143.097 61.3471C145.321 61.3471 146.433 60.6831 146.433 59.3551C146.433 58.6831 146.161 58.2031 145.617 57.9151C145.073 57.6111 144.225 57.4591 143.073 57.4591H140.745V54.2191H142.977C143.921 54.2191 144.649 54.0591 145.161 53.7391C145.689 53.4191 145.953 52.9471 145.953 52.3231C145.953 51.7311 145.721 51.2751 145.257 50.9551C144.793 50.6351 144.137 50.4751 143.289 50.4751C141.545 50.4751 139.961 50.9231 138.537 51.8191V48.3871C139.257 48.0031 140.081 47.7071 141.009 47.4991C141.937 47.2751 142.897 47.1631 143.889 47.1631C146.081 47.1631 147.697 47.6031 148.737 48.4831C149.777 49.3471 150.297 50.5711 150.297 52.1551C150.297 52.8751 150.121 53.5551 149.769 54.1951C149.433 54.8351 148.929 55.3791 148.257 55.8271C149.937 56.5631 150.777 57.8111 150.777 59.5711C150.777 61.1871 150.225 62.4431 149.121 63.3391C148.017 64.2191 146.217 64.6591 143.721 64.6591ZM159.71 64.6591C158.158 64.6591 156.798 64.3151 155.63 63.6271C154.462 62.9231 153.558 61.9151 152.918 60.6031C152.294 59.2911 151.982 57.7311 151.982 55.9231C151.982 54.1151 152.294 52.5551 152.918 51.2431C153.542 49.9311 154.43 48.9231 155.582 48.2191C156.75 47.5151 158.126 47.1631 159.71 47.1631C161.294 47.1631 162.662 47.5151 163.814 48.2191C164.982 48.9231 165.878 49.9311 166.502 51.2431C167.126 52.5551 167.438 54.1151 167.438 55.9231C167.438 57.7311 167.118 59.2911 166.478 60.6031C165.854 61.9151 164.958 62.9231 163.79 63.6271C162.622 64.3151 161.262 64.6591 159.71 64.6591ZM159.71 60.6751C160.782 60.6751 161.614 60.2591 162.206 59.4271C162.798 58.5951 163.094 57.4431 163.094 55.9711C163.094 54.4831 162.798 53.3151 162.206 52.4671C161.63 51.6031 160.798 51.1711 159.71 51.1711C158.622 51.1711 157.782 51.6031 157.19 52.4671C156.614 53.3151 156.326 54.4831 156.326 55.9711C156.326 57.4431 156.622 58.5951 157.214 59.4271C157.806 60.2591 158.638 60.6751 159.71 60.6751ZM174.166 64.6591C173.11 64.6591 172.094 64.5711 171.118 64.3951C170.158 64.2191 169.334 63.9551 168.646 63.6031V60.2431C170.262 60.9791 171.894 61.3471 173.542 61.3471C175.766 61.3471 176.878 60.6831 176.878 59.3551C176.878 58.6831 176.606 58.2031 176.062 57.9151C175.518 57.6111 174.67 57.4591 173.518 57.4591H171.19V54.2191H173.422C174.366 54.2191 175.094 54.0591 175.606 53.7391C176.134 53.4191 176.398 52.9471 176.398 52.3231C176.398 51.7311 176.166 51.2751 175.702 50.9551C175.238 50.6351 174.582 50.4751 173.734 50.4751C171.99 50.4751 170.406 50.9231 168.982 51.8191V48.3871C169.702 48.0031 170.526 47.7071 171.454 47.4991C172.382 47.2751 173.342 47.1631 174.334 47.1631C176.526 47.1631 178.142 47.6031 179.182 48.4831C180.222 49.3471 180.742 50.5711 180.742 52.1551C180.742 52.8751 180.566 53.5551 180.214 54.1951C179.878 54.8351 179.374 55.3791 178.702 55.8271C180.382 56.5631 181.222 57.8111 181.222 59.5711C181.222 61.1871 180.67 62.4431 179.566 63.3391C178.462 64.2191 176.662 64.6591 174.166 64.6591ZM196.103 64.6591C195.047 64.6591 194.031 64.5711 193.055 64.3951C192.095 64.2191 191.271 63.9551 190.583 63.6031V60.2431C192.199 60.9791 193.831 61.3471 195.479 61.3471C197.703 61.3471 198.815 60.6831 198.815 59.3551C198.815 58.6831 198.543 58.2031 197.999 57.9151C197.455 57.6111 196.607 57.4591 195.455 57.4591H193.127V54.2191H195.359C196.303 54.2191 197.031 54.0591 197.543 53.7391C198.071 53.4191 198.335 52.9471 198.335 52.3231C198.335 51.7311 198.103 51.2751 197.639 50.9551C197.175 50.6351 196.519 50.4751 195.671 50.4751C193.927 50.4751 192.343 50.9231 190.919 51.8191V48.3871C191.639 48.0031 192.463 47.7071 193.391 47.4991C194.319 47.2751 195.279 47.1631 196.271 47.1631C198.463 47.1631 200.079 47.6031 201.119 48.4831C202.159 49.3471 202.679 50.5711 202.679 52.1551C202.679 52.8751 202.503 53.5551 202.151 54.1951C201.815 54.8351 201.311 55.3791 200.639 55.8271C202.319 56.5631 203.159 57.8111 203.159 59.5711C203.159 61.1871 202.607 62.4431 201.503 63.3391C200.399 64.2191 198.599 64.6591 196.103 64.6591ZM209.717 64.6591C208.533 64.6591 207.517 64.5231 206.669 64.2511V60.6511C207.405 61.0351 208.309 61.2271 209.381 61.2271C210.597 61.2271 211.589 60.9071 212.357 60.2671C213.141 59.6271 213.613 58.6751 213.773 57.4111C213.389 57.8111 212.861 58.1311 212.189 58.3711C211.517 58.5951 210.789 58.7071 210.005 58.7071C208.901 58.7071 207.925 58.4831 207.077 58.0351C206.229 57.5871 205.565 56.9391 205.085 56.0911C204.605 55.2431 204.365 54.2351 204.365 53.0671C204.365 51.9311 204.621 50.9231 205.133 50.0431C205.661 49.1471 206.437 48.4431 207.461 47.9311C208.501 47.4191 209.757 47.1631 211.229 47.1631C213.453 47.1631 215.173 47.8511 216.389 49.2271C217.621 50.5871 218.237 52.4671 218.237 54.8671C218.237 56.9471 217.869 58.7231 217.133 60.1951C216.413 61.6671 215.413 62.7791 214.133 63.5311C212.853 64.2831 211.381 64.6591 209.717 64.6591ZM211.229 55.4431C211.933 55.4431 212.525 55.2031 213.005 54.7231C213.485 54.2431 213.725 53.6591 213.725 52.9711C213.725 52.2671 213.485 51.6751 213.005 51.1951C212.525 50.7151 211.933 50.4751 211.229 50.4751C210.541 50.4751 209.957 50.7231 209.477 51.2191C208.997 51.6991 208.757 52.2831 208.757 52.9711C208.757 53.6591 208.997 54.2431 209.477 54.7231C209.957 55.2031 210.541 55.4431 211.229 55.4431ZM226.683 51.0031H219.195V47.5231H231.291V50.3551L224.931 64.2991H220.611L226.683 51.0031ZM237.775 64.6591C236.719 64.6591 235.703 64.5711 234.727 64.3951C233.767 64.2191 232.943 63.9551 232.255 63.6031V60.2431C233.871 60.9791 235.503 61.3471 237.151 61.3471C239.375 61.3471 240.487 60.6831 240.487 59.3551C240.487 58.6831 240.215 58.2031 239.671 57.9151C239.127 57.6111 238.279 57.4591 237.127 57.4591H234.799V54.2191H237.031C237.975 54.2191 238.703 54.0591 239.215 53.7391C239.743 53.4191 240.007 52.9471 240.007 52.3231C240.007 51.7311 239.775 51.2751 239.311 50.9551C238.847 50.6351 238.191 50.4751 237.343 50.4751C235.599 50.4751 234.015 50.9231 232.591 51.8191V48.3871C233.311 48.0031 234.135 47.7071 235.063 47.4991C235.991 47.2751 236.951 47.1631 237.943 47.1631C240.135 47.1631 241.751 47.6031 242.791 48.4831C243.831 49.3471 244.351 50.5711 244.351 52.1551C244.351 52.8751 244.175 53.5551 243.823 54.1951C243.487 54.8351 242.983 55.3791 242.311 55.8271C243.991 56.5631 244.831 57.8111 244.831 59.5711C244.831 61.1871 244.279 62.4431 243.175 63.3391C242.071 64.2191 240.271 64.6591 237.775 64.6591Z" fill="white"/>
</svg>
