<svg width="171" height="48" viewBox="0 0 171 48" fill="none" xmlns="http://www.w3.org/2000/svg">
<g clip-path="url(#clip0_503_1113)">
<rect x="0.5" width="170" height="48" rx="20" fill="white"/>
<rect x="1" y="0.5" width="169" height="47" rx="19.5" stroke="#1A1A1A" stroke-opacity="0.8"/>
<path d="M37.6726 29.24C36.0406 29.24 34.8086 28.8133 33.9766 27.96C33.1446 27.096 32.7286 25.9387 32.7286 24.488V17.816H35.1606V24.52C35.1606 25.3307 35.3846 25.9493 35.8326 26.376C36.2806 26.8027 36.8939 27.016 37.6726 27.016C38.4406 27.016 39.0432 26.8027 39.4806 26.376C39.9286 25.9493 40.1526 25.3307 40.1526 24.52V17.816H42.5846V24.488C42.5846 25.9387 42.1739 27.096 41.3526 27.96C40.5312 28.8133 39.3046 29.24 37.6726 29.24ZM44.1836 17.176H46.5996V29H44.1836V17.176ZM51.3333 29.24C50.288 29.24 49.504 28.9573 48.9813 28.392C48.4586 27.816 48.1973 27.0533 48.1973 26.104V21.32H50.6133V25.848C50.6133 26.8507 51.0773 27.352 52.0053 27.352C52.4106 27.352 52.7893 27.256 53.1413 27.064C53.4933 26.872 53.7866 26.584 54.0213 26.2V21.32H56.4373V29H54.1013V28.072C53.76 28.4667 53.344 28.76 52.8533 28.952C52.3733 29.144 51.8666 29.24 51.3333 29.24ZM61.2731 29.24C60.6971 29.24 60.0784 29.176 59.4171 29.048C58.7664 28.9307 58.2544 28.76 57.8811 28.536V26.648C58.3077 26.904 58.8197 27.112 59.4171 27.272C60.0144 27.432 60.5691 27.512 61.0811 27.512C61.5184 27.512 61.8384 27.4747 62.0411 27.4C62.2437 27.3253 62.3451 27.1867 62.3451 26.984C62.3451 26.824 62.2864 26.696 62.1691 26.6C62.0517 26.4933 61.8704 26.4027 61.6251 26.328C61.3904 26.2427 60.9957 26.12 60.4411 25.96C59.7904 25.768 59.2784 25.576 58.9051 25.384C58.5424 25.1813 58.2651 24.9307 58.0731 24.632C57.8917 24.3333 57.8011 23.9493 57.8011 23.48C57.8011 22.68 58.1157 22.0827 58.7451 21.688C59.3851 21.2827 60.2491 21.08 61.3371 21.08C61.8704 21.08 62.4197 21.1387 62.9851 21.256C63.5611 21.3627 64.0037 21.5067 64.3131 21.688V23.528C64.0037 23.3253 63.5984 23.16 63.0971 23.032C62.6064 22.904 62.1264 22.84 61.6571 22.84C61.2197 22.84 60.8784 22.8827 60.6331 22.968C60.3984 23.0533 60.2811 23.2133 60.2811 23.448C60.2811 23.6507 60.3931 23.8053 60.6171 23.912C60.8517 24.0187 61.2837 24.152 61.9131 24.312L62.2331 24.392C62.9051 24.5733 63.4277 24.776 63.8011 25C64.1744 25.2133 64.4357 25.4747 64.5851 25.784C64.7451 26.0827 64.8251 26.4613 64.8251 26.92C64.8251 27.624 64.5211 28.1893 63.9131 28.616C63.3051 29.032 62.4251 29.24 61.2731 29.24ZM68.8132 29.24C67.8745 29.24 67.1065 29.0053 66.5092 28.536C65.9225 28.056 65.6292 27.4053 65.6292 26.584C65.6292 25.7307 65.9119 25.0693 66.4772 24.6C67.0425 24.12 67.8425 23.88 68.8772 23.88C69.3359 23.88 69.7732 23.928 70.1892 24.024C70.6052 24.12 70.9732 24.2533 71.2932 24.424V24.232C71.2932 23.752 71.1225 23.4 70.7812 23.176C70.4399 22.952 69.9172 22.84 69.2132 22.84C68.2745 22.84 67.4105 23.016 66.6212 23.368V21.608C66.9625 21.4587 67.4052 21.336 67.9492 21.24C68.4932 21.1333 69.0372 21.08 69.5812 21.08C70.9679 21.08 72.0025 21.368 72.6852 21.944C73.3679 22.5093 73.7092 23.304 73.7092 24.328V29H71.4372V28.296C70.7865 28.9253 69.9119 29.24 68.8132 29.24ZM69.4692 27.64C69.8639 27.64 70.2212 27.5653 70.5412 27.416C70.8612 27.2667 71.1119 27.0587 71.2932 26.792V26.024C70.7492 25.6613 70.1519 25.48 69.5012 25.48C69.0532 25.48 68.7065 25.576 68.4612 25.768C68.2265 25.9493 68.1092 26.2213 68.1092 26.584C68.1092 26.9253 68.2265 27.1867 68.4612 27.368C68.6959 27.5493 69.0319 27.64 69.4692 27.64ZM75.3086 17.176H77.7246V29H75.3086V17.176ZM89.1561 17.816H91.5401L96.0041 29H93.5241L92.5641 26.568H88.1321L87.1721 29H84.6761L89.1561 17.816ZM91.9241 24.632L90.3401 20.376L88.7561 24.632H91.9241ZM97.3554 17.176H99.7714V29H97.3554V17.176ZM104.665 29.24C103.769 29.24 103.087 28.9947 102.617 28.504C102.159 28.0027 101.929 27.3093 101.929 26.424V23.064H100.809V21.32H101.929V19.016H104.345V21.32H106.153V23.064H104.345V26.104C104.345 26.552 104.431 26.8773 104.601 27.08C104.772 27.272 105.076 27.368 105.513 27.368C105.865 27.368 106.201 27.2827 106.521 27.112V28.92C106.031 29.1333 105.412 29.24 104.665 29.24ZM109.108 32.168C108.788 32.168 108.457 32.1467 108.116 32.104C107.785 32.0613 107.535 32.0027 107.364 31.928V30.12C107.673 30.2373 108.015 30.296 108.388 30.296C108.772 30.296 109.06 30.2107 109.252 30.04C109.455 29.8693 109.62 29.6027 109.748 29.24L110.004 28.584L106.676 21.32H109.108L111.284 26.616L113.348 21.32H115.764L112.5 29.528C112.137 30.4347 111.689 31.1013 111.156 31.528C110.623 31.9547 109.94 32.168 109.108 32.168ZM118.61 29.24C117.671 29.24 116.903 29.0053 116.306 28.536C115.719 28.056 115.426 27.4053 115.426 26.584C115.426 25.7307 115.709 25.0693 116.274 24.6C116.839 24.12 117.639 23.88 118.674 23.88C119.133 23.88 119.57 23.928 119.986 24.024C120.402 24.12 120.77 24.2533 121.09 24.424V24.232C121.09 23.752 120.919 23.4 120.578 23.176C120.237 22.952 119.714 22.84 119.01 22.84C118.071 22.84 117.207 23.016 116.418 23.368V21.608C116.759 21.4587 117.202 21.336 117.746 21.24C118.29 21.1333 118.834 21.08 119.378 21.08C120.765 21.08 121.799 21.368 122.482 21.944C123.165 22.5093 123.506 23.304 123.506 24.328V29H121.234V28.296C120.583 28.9253 119.709 29.24 118.61 29.24ZM119.266 27.64C119.661 27.64 120.018 27.5653 120.338 27.416C120.658 27.2667 120.909 27.0587 121.09 26.792V26.024C120.546 25.6613 119.949 25.48 119.298 25.48C118.85 25.48 118.503 25.576 118.258 25.768C118.023 25.9493 117.906 26.2213 117.906 26.584C117.906 26.9253 118.023 27.1867 118.258 27.368C118.493 27.5493 118.829 27.64 119.266 27.64ZM125.105 21.32H127.441V22.168C128.22 21.4427 129.18 21.08 130.321 21.08C131.121 21.08 131.825 21.2507 132.433 21.592C133.052 21.9227 133.532 22.3973 133.873 23.016C134.215 23.624 134.385 24.3333 134.385 25.144C134.385 25.944 134.215 26.6533 133.873 27.272C133.532 27.8907 133.052 28.376 132.433 28.728C131.825 29.0693 131.121 29.24 130.321 29.24C129.777 29.24 129.26 29.16 128.769 29C128.279 28.84 127.863 28.6107 127.521 28.312V32.504H125.105V21.32ZM129.713 27.352C130.364 27.352 130.892 27.1493 131.297 26.744C131.713 26.3387 131.921 25.8053 131.921 25.144C131.921 24.4827 131.713 23.9547 131.297 23.56C130.892 23.1653 130.364 22.968 129.713 22.968C129.212 22.968 128.764 23.1013 128.369 23.368C127.975 23.6347 127.692 23.9867 127.521 24.424V25.88C127.681 26.328 127.959 26.6853 128.353 26.952C128.759 27.2187 129.212 27.352 129.713 27.352ZM135.746 21.32H138.178V29H135.746V21.32Z" fill="black"/>
</g>
<defs>
<clipPath id="clip0_503_1113">
<rect width="170" height="48" fill="white" transform="translate(0.5)"/>
</clipPath>
</defs>
</svg>
