<svg width="169" height="54" viewBox="0 0 169 54" fill="none" xmlns="http://www.w3.org/2000/svg">
<g filter="url(#filter0_d_573_7058)">
<path d="M6.5 7C6.5 3.13401 9.63401 0 13.5 0H159.5C163.366 0 166.5 3.13401 166.5 7V39C166.5 42.866 163.366 46 159.5 46H13.5C9.63401 46 6.5 42.866 6.5 39V7Z" fill="#009EE3"/>
<path d="M6.6 7C6.6 3.18924 9.68924 0.1 13.5 0.1H159.5C163.311 0.1 166.4 3.18923 166.4 7V39C166.4 42.8108 163.311 45.9 159.5 45.9H13.5C9.68923 45.9 6.6 42.8108 6.6 39V7Z" stroke="white" stroke-width="0.2"/>
</g>
<path d="M53.5453 15.816H55.5133L59.9773 27H57.9133L56.8893 24.424H52.1533L51.1453 27H49.0653L53.5453 15.816ZM56.3293 22.744L54.5213 17.992L52.7133 22.744H56.3293ZM66.5648 27.24C65.9141 27.24 65.3541 27.1547 64.8848 26.984C64.4155 26.8027 63.9621 26.5093 63.5248 26.104V27H61.5728V15.176H63.5888V20.072C63.9515 19.7413 64.3888 19.496 64.9008 19.336C65.4235 19.1653 65.9781 19.08 66.5648 19.08C67.3435 19.08 68.0368 19.256 68.6448 19.608C69.2635 19.9493 69.7435 20.4293 70.0848 21.048C70.4368 21.6667 70.6128 22.376 70.6128 23.176C70.6128 23.9867 70.4368 24.7013 70.0848 25.32C69.7435 25.928 69.2635 26.4027 68.6448 26.744C68.0368 27.0747 67.3435 27.24 66.5648 27.24ZM66.0688 25.656C66.7941 25.656 67.3915 25.4267 67.8608 24.968C68.3301 24.5093 68.5648 23.912 68.5648 23.176C68.5648 22.44 68.3301 21.8373 67.8608 21.368C67.3915 20.8987 66.7941 20.664 66.0688 20.664C65.4928 20.664 64.9755 20.824 64.5168 21.144C64.0688 21.4533 63.7595 21.8693 63.5888 22.392V23.944C63.7701 24.4667 64.0848 24.8827 64.5328 25.192C64.9808 25.5013 65.4928 25.656 66.0688 25.656ZM75.9832 27.24C75.0872 27.24 74.2978 27.08 73.6152 26.76C72.9432 26.4293 72.4205 25.96 72.0472 25.352C71.6738 24.7333 71.4872 24.0027 71.4872 23.16C71.4872 22.3387 71.6685 21.624 72.0312 21.016C72.4045 20.3973 72.9325 19.9227 73.6152 19.592C74.2978 19.2507 75.0872 19.08 75.9832 19.08C76.8792 19.08 77.6632 19.2507 78.3352 19.592C79.0178 19.9227 79.5458 20.3973 79.9192 21.016C80.2925 21.624 80.4792 22.3387 80.4792 23.16C80.4792 24.0027 80.2925 24.7333 79.9192 25.352C79.5458 25.96 79.0178 26.4293 78.3352 26.76C77.6632 27.08 76.8792 27.24 75.9832 27.24ZM75.9832 25.656C76.7192 25.656 77.3058 25.4267 77.7432 24.968C78.1805 24.4987 78.3992 23.896 78.3992 23.16C78.3992 22.3813 78.1805 21.7733 77.7432 21.336C77.3165 20.888 76.7298 20.664 75.9832 20.664C75.2365 20.664 74.6445 20.888 74.2072 21.336C73.7805 21.7733 73.5672 22.3813 73.5672 23.16C73.5672 23.896 73.7858 24.4987 74.2232 24.968C74.6605 25.4267 75.2472 25.656 75.9832 25.656ZM82.0728 19.32H84.0248V20.36C84.3875 19.9227 84.8195 19.6027 85.3208 19.4C85.8221 19.1867 86.3501 19.08 86.9048 19.08C87.9395 19.08 88.7128 19.3627 89.2248 19.928C89.7368 20.4827 89.9928 21.224 89.9928 22.152V27H87.9768V22.344C87.9768 21.224 87.4541 20.664 86.4088 20.664C85.9501 20.664 85.5181 20.776 85.1128 21C84.7075 21.2133 84.3661 21.5387 84.0888 21.976V27H82.0728V19.32ZM96.1584 27.24C94.7291 27.24 93.5984 26.8827 92.7664 26.168C91.9344 25.4533 91.5184 24.456 91.5184 23.176C91.5184 21.9173 91.8864 20.92 92.6224 20.184C93.3584 19.448 94.4091 19.08 95.7744 19.08C96.6704 19.08 97.4331 19.2507 98.0624 19.592C98.7024 19.9333 99.1824 20.4027 99.5024 21C99.8224 21.5867 99.9824 22.2587 99.9824 23.016V23.944H93.4384C93.5771 25.0853 94.5691 25.656 96.4144 25.656C96.9051 25.656 97.4064 25.6133 97.9184 25.528C98.4304 25.4427 98.8784 25.3253 99.2624 25.176V26.728C98.8998 26.8773 98.4304 27 97.8544 27.096C97.2891 27.192 96.7238 27.24 96.1584 27.24ZM98.0784 22.568C98.0571 21.96 97.8384 21.4907 97.4224 21.16C97.0171 20.8293 96.4571 20.664 95.7424 20.664C95.0384 20.664 94.4838 20.8347 94.0784 21.176C93.6731 21.5173 93.4598 21.9813 93.4384 22.568H98.0784ZM112.97 27.24C111.85 27.24 110.837 27 109.93 26.52C109.034 26.0293 108.325 25.3413 107.802 24.456C107.29 23.5707 107.034 22.5573 107.034 21.416C107.034 20.2747 107.29 19.2613 107.802 18.376C108.325 17.4907 109.034 16.8027 109.93 16.312C110.837 15.8213 111.85 15.576 112.97 15.576C114.079 15.576 115.082 15.8213 115.978 16.312C116.885 16.8027 117.594 17.4907 118.106 18.376C118.629 19.2613 118.89 20.2747 118.89 21.416C118.89 22.5573 118.629 23.5707 118.106 24.456C117.594 25.3307 116.885 26.0133 115.978 26.504C115.082 26.9947 114.079 27.24 112.97 27.24ZM112.97 25.4C113.685 25.4 114.335 25.24 114.922 24.92C115.509 24.5893 115.973 24.1253 116.314 23.528C116.666 22.92 116.842 22.216 116.842 21.416C116.842 20.6267 116.671 19.9333 116.33 19.336C115.989 18.728 115.525 18.2587 114.938 17.928C114.351 17.5973 113.695 17.432 112.97 17.432C112.245 17.432 111.583 17.5973 110.986 17.928C110.399 18.2587 109.935 18.728 109.594 19.336C109.253 19.9333 109.082 20.6267 109.082 21.416C109.082 22.216 109.253 22.92 109.594 23.528C109.946 24.1253 110.415 24.5893 111.002 24.92C111.599 25.24 112.255 25.4 112.97 25.4ZM120.495 15.176H122.511V27H120.495V15.176Z" fill="white"/>
<defs>
<filter id="filter0_d_573_7058" x="0.5" y="0" width="168" height="54" filterUnits="userSpaceOnUse" color-interpolation-filters="sRGB">
<feFlood flood-opacity="0" result="BackgroundImageFix"/>
<feColorMatrix in="SourceAlpha" type="matrix" values="0 0 0 0 0 0 0 0 0 0 0 0 0 0 0 0 0 0 127 0" result="hardAlpha"/>
<feOffset dx="-2" dy="4"/>
<feGaussianBlur stdDeviation="2"/>
<feComposite in2="hardAlpha" operator="out"/>
<feColorMatrix type="matrix" values="0 0 0 0 0 0 0 0 0 0 0 0 0 0 0 0 0 0 0.2 0"/>
<feBlend mode="normal" in2="BackgroundImageFix" result="effect1_dropShadow_573_7058"/>
<feBlend mode="normal" in="SourceGraphic" in2="effect1_dropShadow_573_7058" result="shape"/>
</filter>
</defs>
</svg>
