<svg width="178" height="54" viewBox="0 0 178 54" fill="none" xmlns="http://www.w3.org/2000/svg">
<g filter="url(#filter0_d_573_7070)">
<path d="M6 7C6 3.13401 9.13401 0 13 0H169C172.866 0 176 3.13401 176 7V39C176 42.866 172.866 46 169 46H13C9.13401 46 6 42.866 6 39V7Z" fill="#009EE3"/>
<path d="M13 0.1H169C172.811 0.1 175.9 3.18924 175.9 7V39C175.9 42.8108 172.811 45.9 169 45.9H13C9.18924 45.9 6.1 42.8108 6.1 39V7C6.1 3.18924 9.18924 0.1 13 0.1Z" stroke="white" stroke-width="0.2"/>
</g>
<path d="M58.0458 15.816H60.0138L64.4778 27H62.4138L61.3898 24.424H56.6538L55.6458 27H53.5658L58.0458 15.816ZM60.8298 22.744L59.0218 17.992L57.2138 22.744H60.8298ZM71.0653 27.24C70.4146 27.24 69.8546 27.1547 69.3853 26.984C68.9159 26.8027 68.4626 26.5093 68.0253 26.104V27H66.0733V15.176H68.0893V20.072C68.4519 19.7413 68.8893 19.496 69.4013 19.336C69.9239 19.1653 70.4786 19.08 71.0653 19.08C71.8439 19.08 72.5373 19.256 73.1453 19.608C73.7639 19.9493 74.2439 20.4293 74.5853 21.048C74.9373 21.6667 75.1133 22.376 75.1133 23.176C75.1133 23.9867 74.9373 24.7013 74.5853 25.32C74.2439 25.928 73.7639 26.4027 73.1453 26.744C72.5373 27.0747 71.8439 27.24 71.0653 27.24ZM70.5693 25.656C71.2946 25.656 71.8919 25.4267 72.3613 24.968C72.8306 24.5093 73.0653 23.912 73.0653 23.176C73.0653 22.44 72.8306 21.8373 72.3613 21.368C71.8919 20.8987 71.2946 20.664 70.5693 20.664C69.9933 20.664 69.4759 20.824 69.0173 21.144C68.5693 21.4533 68.2599 21.8693 68.0893 22.392V23.944C68.2706 24.4667 68.5853 24.8827 69.0333 25.192C69.4813 25.5013 69.9933 25.656 70.5693 25.656ZM80.4837 27.24C79.5877 27.24 78.7983 27.08 78.1157 26.76C77.4437 26.4293 76.921 25.96 76.5477 25.352C76.1743 24.7333 75.9877 24.0027 75.9877 23.16C75.9877 22.3387 76.169 21.624 76.5317 21.016C76.905 20.3973 77.433 19.9227 78.1157 19.592C78.7983 19.2507 79.5877 19.08 80.4837 19.08C81.3797 19.08 82.1637 19.2507 82.8357 19.592C83.5183 19.9227 84.0463 20.3973 84.4197 21.016C84.793 21.624 84.9797 22.3387 84.9797 23.16C84.9797 24.0027 84.793 24.7333 84.4197 25.352C84.0463 25.96 83.5183 26.4293 82.8357 26.76C82.1637 27.08 81.3797 27.24 80.4837 27.24ZM80.4837 25.656C81.2197 25.656 81.8063 25.4267 82.2437 24.968C82.681 24.4987 82.8997 23.896 82.8997 23.16C82.8997 22.3813 82.681 21.7733 82.2437 21.336C81.817 20.888 81.2303 20.664 80.4837 20.664C79.737 20.664 79.145 20.888 78.7077 21.336C78.281 21.7733 78.0677 22.3813 78.0677 23.16C78.0677 23.896 78.2863 24.4987 78.7237 24.968C79.161 25.4267 79.7477 25.656 80.4837 25.656ZM86.5733 19.32H88.5253V20.36C88.8879 19.9227 89.3199 19.6027 89.8213 19.4C90.3226 19.1867 90.8506 19.08 91.4053 19.08C92.4399 19.08 93.2133 19.3627 93.7253 19.928C94.2373 20.4827 94.4933 21.224 94.4933 22.152V27H92.4773V22.344C92.4773 21.224 91.9546 20.664 90.9093 20.664C90.4506 20.664 90.0186 20.776 89.6133 21C89.2079 21.2133 88.8666 21.5387 88.5893 21.976V27H86.5733V19.32ZM100.659 27.24C99.2296 27.24 98.0989 26.8827 97.2669 26.168C96.4349 25.4533 96.0189 24.456 96.0189 23.176C96.0189 21.9173 96.3869 20.92 97.1229 20.184C97.8589 19.448 98.9096 19.08 100.275 19.08C101.171 19.08 101.934 19.2507 102.563 19.592C103.203 19.9333 103.683 20.4027 104.003 21C104.323 21.5867 104.483 22.2587 104.483 23.016V23.944H97.9389C98.0776 25.0853 99.0696 25.656 100.915 25.656C101.406 25.656 101.907 25.6133 102.419 25.528C102.931 25.4427 103.379 25.3253 103.763 25.176V26.728C103.4 26.8773 102.931 27 102.355 27.096C101.79 27.192 101.224 27.24 100.659 27.24ZM102.579 22.568C102.558 21.96 102.339 21.4907 101.923 21.16C101.518 20.8293 100.958 20.664 100.243 20.664C99.5389 20.664 98.9842 20.8347 98.5789 21.176C98.1736 21.5173 97.9602 21.9813 97.9389 22.568H102.579ZM117.471 27.24C116.351 27.24 115.337 27 114.431 26.52C113.535 26.0293 112.825 25.3413 112.303 24.456C111.791 23.5707 111.535 22.5573 111.535 21.416C111.535 20.2747 111.791 19.2613 112.303 18.376C112.825 17.4907 113.535 16.8027 114.431 16.312C115.337 15.8213 116.351 15.576 117.471 15.576C118.58 15.576 119.583 15.8213 120.479 16.312C121.385 16.8027 122.095 17.4907 122.607 18.376C123.129 19.2613 123.391 20.2747 123.391 21.416C123.391 22.5573 123.129 23.5707 122.607 24.456C122.095 25.3307 121.385 26.0133 120.479 26.504C119.583 26.9947 118.58 27.24 117.471 27.24ZM117.471 25.4C118.185 25.4 118.836 25.24 119.423 24.92C120.009 24.5893 120.473 24.1253 120.815 23.528C121.167 22.92 121.343 22.216 121.343 21.416C121.343 20.6267 121.172 19.9333 120.831 19.336C120.489 18.728 120.025 18.2587 119.439 17.928C118.852 17.5973 118.196 17.432 117.471 17.432C116.745 17.432 116.084 17.5973 115.487 17.928C114.9 18.2587 114.436 18.728 114.095 19.336C113.753 19.9333 113.583 20.6267 113.583 21.416C113.583 22.216 113.753 22.92 114.095 23.528C114.447 24.1253 114.916 24.5893 115.503 24.92C116.1 25.24 116.756 25.4 117.471 25.4ZM124.995 15.176H127.011V27H124.995V15.176Z" fill="white"/>
<defs>
<filter id="filter0_d_573_7070" x="0" y="0" width="178" height="54" filterUnits="userSpaceOnUse" color-interpolation-filters="sRGB">
<feFlood flood-opacity="0" result="BackgroundImageFix"/>
<feColorMatrix in="SourceAlpha" type="matrix" values="0 0 0 0 0 0 0 0 0 0 0 0 0 0 0 0 0 0 127 0" result="hardAlpha"/>
<feOffset dx="-2" dy="4"/>
<feGaussianBlur stdDeviation="2"/>
<feComposite in2="hardAlpha" operator="out"/>
<feColorMatrix type="matrix" values="0 0 0 0 0 0 0 0 0 0 0 0 0 0 0 0 0 0 0.2 0"/>
<feBlend mode="normal" in2="BackgroundImageFix" result="effect1_dropShadow_573_7070"/>
<feBlend mode="normal" in="SourceGraphic" in2="effect1_dropShadow_573_7070" result="shape"/>
</filter>
</defs>
</svg>
