<svg width="172" height="48" viewBox="0 0 172 48" fill="none" xmlns="http://www.w3.org/2000/svg">
<g clip-path="url(#clip0_503_1108)">
<rect width="173" height="48" transform="translate(-0.5)" fill="#009EE3"/>
<path d="M16.8164 17.816H20.7044C21.9204 17.816 22.9817 18.04 23.8884 18.488C24.795 18.936 25.4937 19.576 25.9844 20.408C26.475 21.24 26.7204 22.2213 26.7204 23.352C26.7204 25.208 26.1764 26.616 25.0884 27.576C24.011 28.5253 22.507 29 20.5764 29H16.8164V17.816ZM20.7044 26.968C21.8457 26.968 22.7204 26.648 23.3284 26.008C23.9364 25.368 24.2404 24.4827 24.2404 23.352C24.2404 22.68 24.107 22.0773 23.8404 21.544C23.5737 21.0107 23.1844 20.5947 22.6724 20.296C22.1604 19.9973 21.5577 19.848 20.8644 19.848H19.2484V26.968H20.7044ZM32.4824 29.24C31.0104 29.24 29.853 28.888 29.0104 28.184C28.1677 27.4693 27.7464 26.472 27.7464 25.192C27.7464 23.9227 28.1197 22.92 28.8664 22.184C29.6237 21.448 30.701 21.08 32.0984 21.08C33.0157 21.08 33.7944 21.2507 34.4344 21.592C35.0744 21.9333 35.5597 22.408 35.8904 23.016C36.221 23.6133 36.3864 24.2907 36.3864 25.048V26.024H30.0504C30.221 27.0053 31.1384 27.496 32.8024 27.496C33.293 27.496 33.7997 27.4533 34.3224 27.368C34.845 27.2827 35.2984 27.1653 35.6824 27.016V28.712C35.309 28.872 34.829 29 34.2424 29.096C33.6557 29.192 33.069 29.24 32.4824 29.24ZM34.0984 24.456C34.0664 23.944 33.8744 23.5493 33.5224 23.272C33.1704 22.984 32.685 22.84 32.0664 22.84C31.4584 22.84 30.9784 22.984 30.6264 23.272C30.2744 23.56 30.0824 23.9547 30.0504 24.456H34.0984ZM40.8746 29.24C40.2986 29.24 39.68 29.176 39.0186 29.048C38.368 28.9307 37.856 28.76 37.4826 28.536V26.648C37.9093 26.904 38.4213 27.112 39.0186 27.272C39.616 27.432 40.1706 27.512 40.6826 27.512C41.12 27.512 41.44 27.4747 41.6426 27.4C41.8453 27.3253 41.9466 27.1867 41.9466 26.984C41.9466 26.824 41.888 26.696 41.7706 26.6C41.6533 26.4933 41.472 26.4027 41.2266 26.328C40.992 26.2427 40.5973 26.12 40.0426 25.96C39.392 25.768 38.88 25.576 38.5066 25.384C38.144 25.1813 37.8666 24.9307 37.6746 24.632C37.4933 24.3333 37.4026 23.9493 37.4026 23.48C37.4026 22.68 37.7173 22.0827 38.3466 21.688C38.9866 21.2827 39.8506 21.08 40.9386 21.08C41.472 21.08 42.0213 21.1387 42.5866 21.256C43.1626 21.3627 43.6053 21.5067 43.9146 21.688V23.528C43.6053 23.3253 43.2 23.16 42.6986 23.032C42.208 22.904 41.728 22.84 41.2586 22.84C40.8213 22.84 40.48 22.8827 40.2346 22.968C40 23.0533 39.8826 23.2133 39.8826 23.448C39.8826 23.6507 39.9946 23.8053 40.2186 23.912C40.4533 24.0187 40.8853 24.152 41.5146 24.312L41.8346 24.392C42.5066 24.5733 43.0293 24.776 43.4026 25C43.776 25.2133 44.0373 25.4747 44.1866 25.784C44.3466 26.0827 44.4266 26.4613 44.4266 26.92C44.4266 27.624 44.1226 28.1893 43.5146 28.616C42.9066 29.032 42.0266 29.24 40.8746 29.24ZM48.7668 29.24C47.8708 29.24 47.1881 28.9947 46.7188 28.504C46.2601 28.0027 46.0308 27.3093 46.0308 26.424V23.064H44.9108V21.32H46.0308V19.016H48.4468V21.32H50.2548V23.064H48.4468V26.104C48.4468 26.552 48.5321 26.8773 48.7028 27.08C48.8734 27.272 49.1774 27.368 49.6148 27.368C49.9668 27.368 50.3028 27.2827 50.6228 27.112V28.92C50.1321 29.1333 49.5134 29.24 48.7668 29.24ZM54.3679 29.24C53.4292 29.24 52.6612 29.0053 52.0639 28.536C51.4772 28.056 51.1839 27.4053 51.1839 26.584C51.1839 25.7307 51.4665 25.0693 52.0319 24.6C52.5972 24.12 53.3972 23.88 54.4319 23.88C54.8905 23.88 55.3279 23.928 55.7439 24.024C56.1599 24.12 56.5279 24.2533 56.8479 24.424V24.232C56.8479 23.752 56.6772 23.4 56.3359 23.176C55.9945 22.952 55.4719 22.84 54.7679 22.84C53.8292 22.84 52.9652 23.016 52.1759 23.368V21.608C52.5172 21.4587 52.9599 21.336 53.5039 21.24C54.0479 21.1333 54.5919 21.08 55.1359 21.08C56.5225 21.08 57.5572 21.368 58.2399 21.944C58.9225 22.5093 59.2639 23.304 59.2639 24.328V29H56.9919V28.296C56.3412 28.9253 55.4665 29.24 54.3679 29.24ZM55.0239 27.64C55.4185 27.64 55.7759 27.5653 56.0959 27.416C56.4159 27.2667 56.6665 27.0587 56.8479 26.792V26.024C56.3039 25.6613 55.7065 25.48 55.0559 25.48C54.6079 25.48 54.2612 25.576 54.0159 25.768C53.7812 25.9493 53.6639 26.2213 53.6639 26.584C53.6639 26.9253 53.7812 27.1867 54.0159 27.368C54.2505 27.5493 54.5865 27.64 55.0239 27.64ZM60.8633 21.32H63.1993V22.264C63.5513 21.8693 63.9673 21.576 64.4473 21.384C64.9379 21.1813 65.4499 21.08 65.9833 21.08C67.0286 21.08 67.8073 21.3627 68.3193 21.928C68.8419 22.4827 69.1033 23.2347 69.1033 24.184V29H66.6873V24.456C66.6873 23.464 66.2286 22.968 65.3113 22.968C64.9059 22.968 64.5273 23.0693 64.1753 23.272C63.8233 23.464 63.5246 23.752 63.2793 24.136V29H60.8633V21.32ZM70.707 21.32H73.043V22.264C73.395 21.8693 73.811 21.576 74.291 21.384C74.7817 21.1813 75.2937 21.08 75.827 21.08C76.8723 21.08 77.651 21.3627 78.163 21.928C78.6857 22.4827 78.947 23.2347 78.947 24.184V29H76.531V24.456C76.531 23.464 76.0723 22.968 75.155 22.968C74.7497 22.968 74.371 23.0693 74.019 23.272C73.667 23.464 73.3683 23.752 73.123 24.136V29H70.707V21.32ZM84.9668 29.24C83.4948 29.24 82.3374 28.888 81.4948 28.184C80.6521 27.4693 80.2308 26.472 80.2308 25.192C80.2308 23.9227 80.6041 22.92 81.3508 22.184C82.1081 21.448 83.1854 21.08 84.5828 21.08C85.5001 21.08 86.2788 21.2507 86.9188 21.592C87.5588 21.9333 88.0441 22.408 88.3748 23.016C88.7054 23.6133 88.8708 24.2907 88.8708 25.048V26.024H82.5348C82.7054 27.0053 83.6228 27.496 85.2868 27.496C85.7774 27.496 86.2841 27.4533 86.8068 27.368C87.3294 27.2827 87.7828 27.1653 88.1667 27.016V28.712C87.7934 28.872 87.3134 29 86.7268 29.096C86.1401 29.192 85.5534 29.24 84.9668 29.24ZM86.5828 24.456C86.5508 23.944 86.3588 23.5493 86.0068 23.272C85.6548 22.984 85.1694 22.84 84.5508 22.84C83.9428 22.84 83.4628 22.984 83.1108 23.272C82.7588 23.56 82.5668 23.9547 82.5348 24.456H86.5828ZM93.423 29.24C92.527 29.24 91.8443 28.9947 91.375 28.504C90.9163 28.0027 90.687 27.3093 90.687 26.424V23.064H89.567V21.32H90.687V19.016H93.103V21.32H94.911V23.064H93.103V26.104C93.103 26.552 93.1883 26.8773 93.359 27.08C93.5297 27.272 93.8337 27.368 94.271 27.368C94.623 27.368 94.959 27.2827 95.279 27.112V28.92C94.7883 29.1333 94.1697 29.24 93.423 29.24ZM106.148 17.816H108.532L112.996 29H110.516L109.556 26.568H105.124L104.164 29H101.668L106.148 17.816ZM108.916 24.632L107.332 20.376L105.748 24.632H108.916ZM114.348 17.176H116.764V29H114.348V17.176ZM121.657 29.24C120.761 29.24 120.079 28.9947 119.609 28.504C119.151 28.0027 118.921 27.3093 118.921 26.424V23.064H117.801V21.32H118.921V19.016H121.337V21.32H123.145V23.064H121.337V26.104C121.337 26.552 121.423 26.8773 121.593 27.08C121.764 27.272 122.068 27.368 122.505 27.368C122.857 27.368 123.193 27.2827 123.513 27.112V28.92C123.023 29.1333 122.404 29.24 121.657 29.24ZM126.1 32.168C125.78 32.168 125.45 32.1467 125.108 32.104C124.778 32.0613 124.527 32.0027 124.356 31.928V30.12C124.666 30.2373 125.007 30.296 125.38 30.296C125.764 30.296 126.052 30.2107 126.244 30.04C126.447 29.8693 126.612 29.6027 126.74 29.24L126.996 28.584L123.668 21.32H126.1L128.276 26.616L130.34 21.32H132.756L129.492 29.528C129.13 30.4347 128.682 31.1013 128.148 31.528C127.615 31.9547 126.932 32.168 126.1 32.168ZM135.602 29.24C134.664 29.24 133.896 29.0053 133.298 28.536C132.712 28.056 132.418 27.4053 132.418 26.584C132.418 25.7307 132.701 25.0693 133.266 24.6C133.832 24.12 134.632 23.88 135.666 23.88C136.125 23.88 136.562 23.928 136.978 24.024C137.394 24.12 137.762 24.2533 138.082 24.424V24.232C138.082 23.752 137.912 23.4 137.57 23.176C137.229 22.952 136.706 22.84 136.002 22.84C135.064 22.84 134.2 23.016 133.41 23.368V21.608C133.752 21.4587 134.194 21.336 134.738 21.24C135.282 21.1333 135.826 21.08 136.37 21.08C137.757 21.08 138.792 21.368 139.474 21.944C140.157 22.5093 140.498 23.304 140.498 24.328V29H138.226V28.296C137.576 28.9253 136.701 29.24 135.602 29.24ZM136.258 27.64C136.653 27.64 137.01 27.5653 137.33 27.416C137.65 27.2667 137.901 27.0587 138.082 26.792V26.024C137.538 25.6613 136.941 25.48 136.29 25.48C135.842 25.48 135.496 25.576 135.25 25.768C135.016 25.9493 134.898 26.2213 134.898 26.584C134.898 26.9253 135.016 27.1867 135.25 27.368C135.485 27.5493 135.821 27.64 136.258 27.64ZM142.098 21.32H144.434V22.168C145.212 21.4427 146.172 21.08 147.314 21.08C148.114 21.08 148.818 21.2507 149.426 21.592C150.044 21.9227 150.524 22.3973 150.866 23.016C151.207 23.624 151.378 24.3333 151.378 25.144C151.378 25.944 151.207 26.6533 150.866 27.272C150.524 27.8907 150.044 28.376 149.426 28.728C148.818 29.0693 148.114 29.24 147.314 29.24C146.77 29.24 146.252 29.16 145.762 29C145.271 28.84 144.855 28.6107 144.514 28.312V32.504H142.098V21.32ZM146.706 27.352C147.356 27.352 147.884 27.1493 148.29 26.744C148.706 26.3387 148.914 25.8053 148.914 25.144C148.914 24.4827 148.706 23.9547 148.29 23.56C147.884 23.1653 147.356 22.968 146.706 22.968C146.204 22.968 145.756 23.1013 145.362 23.368C144.967 23.6347 144.684 23.9867 144.514 24.424V25.88C144.674 26.328 144.951 26.6853 145.346 26.952C145.751 27.2187 146.204 27.352 146.706 27.352ZM152.738 21.32H155.17V29H152.738V21.32Z" fill="white"/>
</g>
<defs>
<clipPath id="clip0_503_1108">
<rect x="0.5" width="171" height="48" rx="20" fill="white"/>
</clipPath>
</defs>
</svg>
