<svg width="84" height="85" viewBox="0 0 84 85" fill="none" xmlns="http://www.w3.org/2000/svg">
<path d="M2.10421 41.9973C2.10226 49.0549 3.94635 55.9462 7.45286 62.0202L1.76886 82.7734L23.0072 77.2047C28.8815 80.4025 35.4631 82.0781 42.1514 82.0786H42.1689C64.2483 82.0786 82.2213 64.1121 82.2308 42.0289C82.235 31.328 78.0715 21.2656 70.5069 13.6951C62.9436 6.12537 52.8848 1.95435 42.1673 1.94946C20.0854 1.94946 2.11365 19.915 2.10453 41.9973" fill="url(#paint0_linear_665_2089)"/>
<path d="M0.673934 41.9843C0.671655 49.2959 2.58184 56.4336 6.21338 62.7251L0.325562 84.2223L22.3254 78.4539C28.3871 81.7589 35.2119 83.5014 42.1566 83.504H42.1745C65.0459 83.504 83.6646 64.8912 83.6744 42.0175C83.6783 30.9321 79.365 20.508 71.5302 12.6663C63.6944 4.82567 53.2758 0.504558 42.1745 0.5C19.2991 0.5 0.68305 19.1102 0.673934 41.9843ZM13.7757 61.6416L12.9542 60.3376C9.5011 54.847 7.67849 48.5021 7.6811 41.9869C7.68826 22.9746 23.1612 7.50651 42.1875 7.50651C51.4015 7.51042 60.0606 11.1022 66.5736 17.6191C73.0862 24.1366 76.6698 32.8003 76.6676 42.0149C76.6591 61.0272 61.1858 76.4972 42.1745 76.4972H42.1608C35.9705 76.494 29.8994 74.8315 24.6048 71.69L23.3448 70.9428L10.2897 74.3656L13.7757 61.6416Z" fill="url(#paint1_linear_665_2089)"/>
<path d="M31.8021 24.6412C31.0253 22.9147 30.2077 22.8798 29.469 22.8496C28.8641 22.8235 28.1725 22.8255 27.4817 22.8255C26.7901 22.8255 25.6665 23.0856 24.7168 24.1226C23.7661 25.1605 21.0872 27.6688 21.0872 32.7704C21.0872 37.8719 24.8031 42.8025 25.3211 43.495C25.8397 44.1862 32.4946 54.9903 43.0344 59.1467C51.7938 62.6008 53.5764 61.9138 55.4774 61.7406C57.3788 61.568 61.6127 59.233 62.4764 56.8116C63.3409 54.3906 63.3409 52.3153 63.0817 51.8817C62.8225 51.4496 62.131 51.1901 61.094 50.6718C60.057 50.1535 54.9588 47.6445 54.0084 47.2985C53.0577 46.9527 52.3665 46.7801 51.675 47.8184C50.9834 48.8551 48.9977 51.1901 48.3924 51.8817C47.7878 52.5748 47.1826 52.6611 46.1459 52.1424C45.1083 51.6222 41.7688 50.5285 37.8068 46.9963C34.7242 44.2478 32.6431 40.8536 32.0382 39.8153C31.4332 38.7786 31.9734 38.2167 32.4933 37.7C32.9592 37.2354 33.5306 36.4891 34.0496 35.8839C34.5666 35.2783 34.7392 34.8463 35.085 34.1547C35.4311 33.4625 35.2578 32.857 34.999 32.3383C34.7392 31.8197 32.7242 26.6914 31.8021 24.6412Z" fill="white"/>
<defs>
<linearGradient id="paint0_linear_665_2089" x1="4024.86" y1="8084.35" x2="4024.86" y2="1.94946" gradientUnits="userSpaceOnUse">
<stop stop-color="#1FAF38"/>
<stop offset="1" stop-color="#60D669"/>
</linearGradient>
<linearGradient id="paint1_linear_665_2089" x1="4167.77" y1="8372.73" x2="4167.77" y2="0.5" gradientUnits="userSpaceOnUse">
<stop stop-color="#F9F9F9"/>
<stop offset="1" stop-color="white"/>
</linearGradient>
</defs>
</svg>
