<svg width="41" height="29" viewBox="0 0 41 29" fill="none" xmlns="http://www.w3.org/2000/svg">
<path d="M20.5 28.8055C19.4444 28.8055 18.5324 28.4213 17.7638 27.653C16.9954 26.8844 16.6113 25.9723 16.6113 24.9167C16.6113 23.8612 16.9954 22.9491 17.7638 22.1805C18.5324 21.4122 19.4444 21.028 20.5 21.028C21.5556 21.028 22.4676 21.4122 23.2362 22.1805C24.0046 22.9491 24.3888 23.8612 24.3888 24.9167C24.3888 25.9723 24.0046 26.8844 23.2362 27.653C22.4676 28.4213 21.5556 28.8055 20.5 28.8055ZM10.4721 19.278L7.55542 16.3334C9.39819 14.4909 11.396 13.0858 13.5488 12.118C15.7015 11.1505 18.0186 10.6667 20.5 10.6667C22.9814 10.6667 25.2985 11.1529 27.4513 12.1251C29.604 13.0973 31.6018 14.5094 33.4446 16.3613L30.5279 19.278C28.9907 17.7408 27.3796 16.6158 25.6946 15.903C24.0093 15.1899 22.2778 14.8334 20.5 14.8334C18.7222 14.8334 16.9907 15.1899 15.3054 15.903C13.6204 16.6158 12.0093 17.7408 10.4721 19.278ZM3.41667 12.2222L0.5 9.3055C3.07417 6.67605 6.07417 4.57883 9.5 3.01383C12.9258 1.44911 16.5925 0.666748 20.5 0.666748C24.4075 0.666748 28.0742 1.44911 31.5 3.01383C34.9258 4.57883 37.9258 6.67605 40.5 9.3055L37.5833 12.2222C35.2408 9.95383 32.6321 8.15522 29.7571 6.82633C26.8821 5.49772 23.7964 4.83342 20.5 4.83342C17.2036 4.83342 14.1179 5.49772 11.2429 6.82633C8.36792 8.15522 5.75917 9.95383 3.41667 12.2222Z" fill="#1A1A1A"/>
</svg>
