<svg width="35" height="24" viewBox="0 0 35 24" fill="none" xmlns="http://www.w3.org/2000/svg">
<path d="M4.11122 23.6666C2.93511 23.6666 2.01844 23.2662 1.36122 22.4653C0.70372 21.6642 0.462887 20.6109 0.63872 19.3053L2.55539 5.83325C2.78705 4.29631 3.49316 2.99534 4.67372 1.93034C5.85428 0.865614 7.21303 0.333252 8.74997 0.333252H26.2779C27.8148 0.333252 29.1736 0.865614 30.3541 1.93034C31.5347 2.99534 32.2407 4.29631 32.4721 5.83325L34.3612 19.3053C34.5371 20.6109 34.2962 21.6642 33.6387 22.4653C32.9815 23.2662 32.0648 23.6666 30.8887 23.6666C30.2684 23.6666 29.7268 23.5624 29.2637 23.3541C28.8009 23.1458 28.3982 22.8703 28.0554 22.5278L23.9166 18.3887H11.0833L6.94455 22.5278C6.60178 22.8703 6.199 23.1458 5.73622 23.3541C5.27316 23.5624 4.7315 23.6666 4.11122 23.6666ZM4.8333 20.6945L9.91664 15.6112H25.0833L30.1666 20.6945C30.2777 20.8056 30.5184 20.9167 30.8887 21.0278C31.1573 21.0278 31.3634 20.9144 31.5071 20.6874C31.6504 20.4605 31.6943 20.2128 31.6387 19.9445L29.6946 6.24992C29.5648 5.33325 29.1712 4.58089 28.5137 3.99284C27.8565 3.40506 27.1112 3.11117 26.2779 3.11117H8.72205C7.88872 3.11117 7.14344 3.40506 6.48622 3.99284C5.82872 4.58089 5.43511 5.33325 5.30539 6.24992L3.36122 19.9445C3.30566 20.2128 3.34955 20.4605 3.49289 20.6874C3.6365 20.9144 3.84261 21.0278 4.11122 21.0278C4.25928 21.0278 4.49997 20.9167 4.8333 20.6945ZM26.3887 13.6666C26.8426 13.6666 27.2339 13.5023 27.5625 13.1737C27.8911 12.8448 28.0554 12.4535 28.0554 11.9999C28.0554 11.5463 27.8911 11.1551 27.5625 10.8262C27.2339 10.4976 26.8426 10.3333 26.3887 10.3333C25.9351 10.3333 25.544 10.4976 25.2154 10.8262C24.8865 11.1551 24.7221 11.5463 24.7221 11.9999C24.7221 12.4535 24.8865 12.8448 25.2154 13.1737C25.544 13.5023 25.9351 13.6666 26.3887 13.6666ZM22.9166 8.38867C23.3702 8.38867 23.7615 8.22436 24.0904 7.89575C24.419 7.56714 24.5833 7.17589 24.5833 6.722C24.5833 6.26839 24.419 5.87728 24.0904 5.54867C23.7615 5.21978 23.3702 5.05534 22.9166 5.05534C22.463 5.05534 22.0718 5.21978 21.7429 5.54867C21.4143 5.87728 21.25 6.26839 21.25 6.722C21.25 7.17589 21.4143 7.56714 21.7429 7.89575C22.0718 8.22436 22.463 8.38867 22.9166 8.38867ZM10.1387 13.5278H12.3612V10.472H15.4166V8.24992H12.3612V5.1945H10.1387V8.24992H7.0833V10.472H10.1387V13.5278Z" fill="#1A1A1A"/>
</svg>
