<svg width="30" height="34" viewBox="0 0 30 34" fill="none" xmlns="http://www.w3.org/2000/svg">
<path d="M3.54021 33.9492C2.6791 33.9492 1.93771 33.6383 1.31604 33.0167C0.694378 32.395 0.383545 31.6536 0.383545 30.7925V3.21416C0.383545 2.35138 0.694378 1.60847 1.31604 0.98541C1.93771 0.362355 2.6791 0.050827 3.54021 0.050827H18.0323L27.6152 9.63374V18.6217C27.1247 18.4014 26.6163 18.2294 26.0902 18.1058C25.5641 17.9819 25.018 17.9015 24.4519 17.8646V11.1583H16.4244V3.21416H3.54021V30.7925H15.3756C15.6251 31.3978 15.9269 31.964 16.281 32.4912C16.6355 33.0185 17.0445 33.5044 17.5081 33.9492H3.54021ZM20.4065 32.9029L18.1865 30.6925L21.6865 27.1925L18.1865 23.6925L20.4065 21.4725L23.9065 24.9725L27.4065 21.4725L29.6165 23.6925L26.1581 27.1925L29.6165 30.6925L27.4065 32.9029L23.9065 29.4446L20.4065 32.9029Z" fill="#1A1A1A"/>
</svg>
