<svg width="38" height="38" viewBox="0 0 38 38" fill="none" xmlns="http://www.w3.org/2000/svg">
<path d="M19.0702 38V34.9864H34.4813V32.7566H26.4591V19.0151H34.4813V16.3631C34.4813 12.7069 32.9801 9.56791 29.9778 6.9462C26.9754 4.32448 23.3396 3.01362 19.0702 3.01362C14.8012 3.01362 11.1419 4.32448 8.09242 6.9462C5.04327 9.56791 3.51869 12.7069 3.51869 16.3631V19.0151H11.5409V32.7566H3.51869C2.56869 32.7566 1.74466 32.4578 1.04658 31.8602C0.348861 31.2623 0 30.5566 0 29.7429V16.3631C0 14.1184 0.501389 12.0026 1.50417 10.0159C2.50694 8.02909 3.87037 6.29257 5.59444 4.80633C7.31852 3.31979 9.34114 2.1471 11.6623 1.28826C13.9835 0.429419 16.4552 0 19.0776 0C21.6999 0 24.1634 0.429419 26.4681 1.28826C28.7727 2.1471 30.776 3.31979 32.4779 4.80633C34.1798 6.29257 35.5256 8.02909 36.5154 10.0159C37.5051 12.0026 38 14.1184 38 16.3631V34.9864C38 35.8 37.6511 36.5058 36.9534 37.1036C36.2553 37.7012 35.4313 38 34.4813 38H19.0702ZM3.51869 29.7429H8.02222V22.0288H3.51869V29.7429ZM29.9778 29.7429H34.4813V22.0288H29.9778V29.7429Z" fill="#1A1A1A"/>
</svg>
