<svg width="38" height="28" viewBox="0 0 38 28" fill="none" xmlns="http://www.w3.org/2000/svg">
<path d="M21.7779 16.2221C20.389 16.2221 19.2085 15.736 18.2363 14.7638C17.264 13.7915 16.7779 12.611 16.7779 11.2221C16.7779 9.8332 17.264 8.65265 18.2363 7.68042C19.2085 6.7082 20.389 6.22209 21.7779 6.22209C23.1668 6.22209 24.3474 6.7082 25.3196 7.68042C26.2918 8.65265 26.7779 9.8332 26.7779 11.2221C26.7779 12.611 26.2918 13.7915 25.3196 14.7638C24.3474 15.736 23.1668 16.2221 21.7779 16.2221ZM9.00001 21.7779C8.23612 21.7779 7.58223 21.5058 7.03834 20.9617C6.49417 20.4178 6.22209 19.7639 6.22209 19V3.44459C6.22209 2.6807 6.49417 2.02667 7.03834 1.48251C7.58223 0.938617 8.23612 0.666672 9.00001 0.666672H34.5554C35.3193 0.666672 35.9733 0.938617 36.5175 1.48251C37.0614 2.02667 37.3333 2.6807 37.3333 3.44459V19C37.3333 19.7639 37.0614 20.4178 36.5175 20.9617C35.9733 21.5058 35.3193 21.7779 34.5554 21.7779H9.00001ZM12.8888 19H30.6667C30.6667 17.9167 31.044 16.9976 31.7988 16.2429C32.5532 15.4885 33.4721 15.1113 34.5554 15.1113V7.33334C33.4721 7.33334 32.5532 6.95598 31.7988 6.20126C31.044 5.44681 30.6667 4.52792 30.6667 3.44459H12.8888C12.8888 4.52792 12.5115 5.44681 11.7571 6.20126C11.0024 6.95598 10.0833 7.33334 9.00001 7.33334V15.1113C10.0833 15.1113 11.0024 15.4885 11.7571 16.2429C12.5115 16.9976 12.8888 17.9167 12.8888 19ZM32.3333 27.3333H3.44459C2.6807 27.3333 2.02667 27.0614 1.48251 26.5175C0.938616 25.9733 0.666672 25.3193 0.666672 24.5554V5.66667H3.44459V24.5554H32.3333V27.3333Z" fill="#1A1A1A"/>
</svg>
