<svg width="35" height="30" viewBox="0 0 35 30" fill="none" xmlns="http://www.w3.org/2000/svg">
<path d="M13.4167 20.5554L24.7221 13.3333L13.4167 6.11125V20.5554ZM11.1113 30V26.6667H3.61126C2.86126 26.6667 2.2107 26.3913 1.65959 25.8404C1.10876 25.2893 0.833344 24.6387 0.833344 23.8887V2.77792C0.833344 2.02792 1.10876 1.37736 1.65959 0.826251C2.2107 0.275417 2.86126 0 3.61126 0H31.3888C32.1388 0 32.7893 0.275417 33.3404 0.826251C33.8913 1.37736 34.1667 2.02792 34.1667 2.77792V23.8887C34.1667 24.6387 33.8913 25.2893 33.3404 25.8404C32.7893 26.3913 32.1388 26.6667 31.3888 26.6667H23.8888V30H11.1113ZM3.61126 23.8887H31.3888V2.77792H3.61126V23.8887Z" fill="#1A1A1A"/>
</svg>
