<svg width="35" height="24" viewBox="0 0 35 24" fill="none" xmlns="http://www.w3.org/2000/svg">
<path d="M22.7779 18.9445H29.4446V12.2778H27.2221V16.722H22.7779V18.9445ZM17.5017 16.8612C18.8525 16.8612 20.0001 16.3884 20.9446 15.4428C21.889 14.4973 22.3612 13.3491 22.3612 11.9983C22.3612 10.6474 21.8885 9.49978 20.9429 8.55534C19.9974 7.61089 18.8492 7.13867 17.4983 7.13867C16.1475 7.13867 14.9999 7.61145 14.0554 8.557C13.111 9.50256 12.6387 10.6508 12.6387 12.0016C12.6387 13.3524 13.1115 14.5001 14.0571 15.4445C15.0026 16.3889 16.1508 16.8612 17.5017 16.8612ZM5.55541 11.8612H7.77791V7.41659H12.2221V5.1945H5.55541V11.8612ZM0.833328 23.6666V0.333252H34.1667V23.6666H0.833328ZM3.61125 20.8887H31.3888V3.11117H3.61125V20.8887Z" fill="#1A1A1A"/>
</svg>
