<svg width="20" height="28" viewBox="0 0 20 28" fill="none" xmlns="http://www.w3.org/2000/svg">
<path d="M17.7074 27.9876C7.94697 27.9876 0.0489853 20.0751 0.0489844 10.3292C0.0489844 9.90101 0.345649 9.53415 0.75696 9.43923L4.71488 8.52598C4.92356 8.47781 5.14254 8.50452 5.33354 8.60143C5.52453 8.69834 5.6754 8.85929 5.75976 9.05614L7.58646 13.3184C7.66449 13.5005 7.68121 13.703 7.63411 13.8954C7.587 14.0878 7.47862 14.2597 7.32531 14.3851L5.01849 16.2726C6.41671 19.2528 8.84598 21.6491 11.764 23.0181L13.6515 20.7112C13.7769 20.5579 13.9488 20.4495 14.1412 20.4024C14.3336 20.3553 14.5361 20.372 14.7182 20.45L18.9805 22.2768C19.1773 22.3612 19.3383 22.512 19.4352 22.703C19.5321 22.894 19.5588 23.113 19.5106 23.3217L18.5974 27.2796C18.5509 27.4808 18.4376 27.6604 18.276 27.789C18.1143 27.9176 17.9139 27.9876 17.7074 27.9876ZM7.87362 6.89652C9.07152 7.20521 10.0095 8.14315 10.3181 9.34105C10.4212 9.74097 10.1247 10.1327 9.71178 10.1414L9.2721 10.1507C8.9843 10.1569 8.73044 9.96929 8.64566 9.69423C8.56384 9.42926 8.41857 9.18828 8.22248 8.99219C8.02639 8.7961 7.7854 8.65083 7.52044 8.569C7.24534 8.48427 7.0578 8.23037 7.06392 7.94257L7.07328 7.50289C7.082 7.09 7.47369 6.79345 7.87362 6.89652ZM7.89616 0.021025C12.8466 0.451801 16.7632 4.37199 17.1936 9.31847C17.2257 9.68675 16.9387 10.0052 16.5691 10.0131L16.1424 10.0221C15.8068 10.0292 15.5222 9.77592 15.492 9.4416C15.1219 5.33733 11.8739 2.09246 7.77303 1.72259C7.43871 1.69242 7.18537 1.40782 7.19251 1.07219L7.20157 0.645506C7.20942 0.275943 7.52788 -0.0110275 7.89616 0.021025ZM7.85742 3.4372C10.9527 3.82319 13.3908 6.25697 13.7774 9.35721C13.8244 9.73414 13.5352 10.0692 13.1555 10.0772L12.7272 10.0862C12.4033 10.093 12.1225 9.85705 12.0803 9.53581C11.7786 7.23989 9.97459 5.436 7.67882 5.13434C7.35758 5.09214 7.12172 4.81133 7.12848 4.48742L7.13746 4.05917C7.14543 3.67942 7.4805 3.39019 7.85742 3.4372Z" fill="white"/>
</svg>
