<svg width="40" height="40" viewBox="0 0 40 40" fill="none" xmlns="http://www.w3.org/2000/svg">
<g clip-path="url(#clip0_339_163)">
<path d="M2.91667 17.875L0 14.9583C2.63889 12.2638 5.6875 10.2013 9.14583 8.77079C12.6042 7.34023 16.2222 6.62495 20 6.62495C20.7592 6.62495 21.5138 6.65509 22.2638 6.71537C23.0138 6.77537 23.7685 6.85634 24.5279 6.95829L22.5279 10.9304C22.1112 10.8656 21.6899 10.8263 21.2638 10.8125C20.8379 10.7986 20.4167 10.7916 20 10.7916C16.7778 10.7916 13.7014 11.4097 10.7708 12.6458C7.84028 13.8819 5.22222 15.625 2.91667 17.875ZM8.72208 23.5416L5.77792 20.5695C7.80569 18.7823 10.0787 17.4351 12.5971 16.5279C15.1157 15.6204 17.7315 15.1898 20.4446 15.2362L18.3888 19.5554C16.6018 19.6201 14.8889 20.0066 13.25 20.715C11.6111 21.4233 10.1018 22.3655 8.72208 23.5416ZM18.6113 33.097C17.7685 32.7915 17.1713 32.2198 16.8196 31.382C16.4676 30.544 16.4907 29.7176 16.8888 28.9029L26.8054 8.51371C26.8982 8.29148 27.051 8.14565 27.2638 8.07621C27.4768 8.00676 27.6944 8.00454 27.9167 8.06954C28.1389 8.13426 28.3149 8.2662 28.4446 8.46537C28.574 8.66426 28.611 8.87482 28.5554 9.09704L22.9167 31.2637C22.6944 32.162 22.1458 32.7825 21.2708 33.125C20.3958 33.4675 19.5093 33.4581 18.6113 33.097ZM31.3054 23.5695C30.8332 23.1526 30.3449 22.7752 29.8404 22.4375C29.3357 22.0994 28.8056 21.8008 28.25 21.5416L29.3333 17.3612C30.2314 17.7684 31.0901 18.2383 31.9096 18.7708C32.729 19.3033 33.4999 19.9029 34.2221 20.5695L31.3054 23.5695ZM37.0696 17.8887C36.0696 16.9351 35.0163 16.0555 33.9096 15.25C32.8032 14.4444 31.6204 13.7545 30.3612 13.1804L31.3612 9.01371C32.9724 9.73593 34.5001 10.597 35.9446 11.597C37.389 12.597 38.7408 13.7175 40 14.9583L37.0696 17.8887Z" fill="#1A1A1A"/>
</g>
<defs>
<clipPath id="clip0_339_163">
<rect width="40" height="40" fill="white"/>
</clipPath>
</defs>
</svg>
