<svg width="40" height="40" viewBox="0 0 40 40" fill="none" xmlns="http://www.w3.org/2000/svg">
<path d="M26.9776 35.43C15.3817 35.43 5.99848 26.0295 5.99848 14.4509C5.99848 13.9421 6.35094 13.5063 6.8396 13.3935L11.5418 12.3085C11.7898 12.2513 12.0499 12.283 12.2768 12.3982C12.5037 12.5133 12.683 12.7045 12.7832 12.9384L14.9534 18.0022C15.0461 18.2185 15.066 18.4591 15.01 18.6877C14.9541 18.9163 14.8253 19.1205 14.6432 19.2695L11.9025 21.5119C13.5637 25.0526 16.4498 27.8995 19.9166 29.526L22.159 26.7853C22.308 26.6031 22.5122 26.4743 22.7408 26.4184C22.9694 26.3624 23.21 26.3823 23.4263 26.475L28.4902 28.6453C28.724 28.7455 28.9153 28.9247 29.0304 29.1516C29.1455 29.3786 29.1772 29.6387 29.12 29.8866L28.035 34.5889C27.9798 34.828 27.8452 35.0413 27.6532 35.1941C27.4612 35.3468 27.223 35.43 26.9776 35.43ZM15.2946 10.3726C16.7178 10.7394 17.8321 11.8537 18.1988 13.2769C18.3213 13.752 17.969 14.2174 17.4784 14.2277L16.9561 14.2388C16.6141 14.2461 16.3125 14.0232 16.2118 13.6965C16.1146 13.3817 15.942 13.0954 15.7091 12.8624C15.4761 12.6294 15.1898 12.4568 14.875 12.3596C14.5482 12.259 14.3254 11.9573 14.3326 11.6154L14.3437 11.093C14.3541 10.6025 14.8195 10.2502 15.2946 10.3726ZM15.3214 2.20414C21.2028 2.71593 25.8559 7.37334 26.3673 13.25C26.4054 13.6876 26.0644 14.0659 25.6254 14.0753L25.1184 14.086C24.7197 14.0945 24.3816 13.7935 24.3457 13.3963C23.9059 8.52021 20.0472 4.66512 15.1751 4.2257C14.7779 4.18986 14.4769 3.85173 14.4854 3.45298L14.4962 2.94606C14.5055 2.507 14.8838 2.16606 15.3214 2.20414ZM15.2754 6.26276C18.9527 6.72133 21.8493 9.6128 22.3087 13.2961C22.3645 13.7439 22.0209 14.142 21.5697 14.1514L21.0609 14.1621C20.6762 14.1702 20.3425 13.8899 20.2924 13.5082C19.934 10.7806 17.7907 8.63744 15.0632 8.27905C14.6815 8.22892 14.4013 7.8953 14.4093 7.51048L14.42 7.00169C14.4295 6.55053 14.8275 6.20691 15.2754 6.26276Z" fill="#2F2483"/>
</svg>
