<svg width="34" height="34" viewBox="0 0 34 34" fill="none" xmlns="http://www.w3.org/2000/svg">
<path d="M22.7074 29.9877C12.947 29.9877 5.04899 22.0752 5.04898 12.3294C5.04898 11.9011 5.34565 11.5343 5.75696 11.4394L9.71488 10.5261C9.92356 10.4779 10.1425 10.5046 10.3335 10.6016C10.5245 10.6985 10.6754 10.8594 10.7598 11.0563L12.5865 15.3185C12.6645 15.5006 12.6812 15.7031 12.6341 15.8955C12.587 16.0879 12.4786 16.2598 12.3253 16.3852L10.0185 18.2727C11.4167 21.2529 13.846 23.6492 16.764 25.0182L18.6515 22.7113C18.7769 22.558 18.9488 22.4496 19.1412 22.4025C19.3336 22.3554 19.5361 22.3721 19.7182 22.4502L23.9805 24.2769C24.1773 24.3613 24.3383 24.5121 24.4352 24.7031C24.5321 24.8941 24.5588 25.1131 24.5106 25.3218L23.5974 29.2797C23.5509 29.481 23.4376 29.6605 23.276 29.7891C23.1143 29.9177 22.9139 29.9877 22.7074 29.9877ZM12.8736 8.89664C14.0715 9.20533 15.0095 10.1433 15.3181 11.3412C15.4212 11.7411 15.1247 12.1328 14.7118 12.1415L14.2721 12.1509C13.9843 12.157 13.7304 11.9694 13.6457 11.6944C13.5638 11.4294 13.4186 11.1884 13.2225 10.9923C13.0264 10.7962 12.7854 10.651 12.5204 10.5691C12.2453 10.4844 12.0578 10.2305 12.0639 9.94269L12.0733 9.50301C12.082 9.09012 12.4737 8.79357 12.8736 8.89664ZM12.8962 2.02115C17.8466 2.45192 21.7632 6.37211 22.1936 11.3186C22.2257 11.6869 21.9387 12.0053 21.5691 12.0132L21.1424 12.0222C20.8068 12.0293 20.5222 11.776 20.492 11.4417C20.1219 7.33745 16.8739 4.09258 12.773 3.72272C12.4387 3.69254 12.1854 3.40794 12.1925 3.07231L12.2016 2.64563C12.2094 2.27607 12.5279 1.98909 12.8962 2.02115ZM12.8574 5.43733C15.9527 5.82331 18.3908 8.25709 18.7774 11.3573C18.8244 11.7343 18.5352 12.0693 18.1555 12.0773L17.7272 12.0863C17.4033 12.0931 17.1225 11.8572 17.0803 11.5359C16.7786 9.24002 14.9746 7.43612 12.6788 7.13446C12.3576 7.09226 12.1217 6.81145 12.1285 6.48755L12.1375 6.05929C12.1454 5.67954 12.4805 5.39032 12.8574 5.43733Z" fill="white"/>
</svg>
