<svg width="40" height="41" viewBox="0 0 40 41" fill="none" xmlns="http://www.w3.org/2000/svg">
<path d="M0.854297 19.915C0.853359 23.302 1.73836 26.6092 3.42117 29.5242L0.693359 39.4839L10.8859 36.8114C13.705 38.3461 16.8636 39.1502 20.0734 39.1505H20.0818C30.6779 39.1505 39.3034 30.5281 39.3079 19.9302C39.3099 14.7947 37.3118 9.96563 33.6815 6.3325C30.0518 2.69969 25.2245 0.697969 20.081 0.695625C9.48367 0.695625 0.858828 9.3175 0.854453 19.915" fill="url(#paint0_linear_503_1944)"/>
<path d="M0.167188 19.9088C0.166094 23.4177 1.08281 26.8431 2.82562 29.8625L0 40.1792L10.558 37.4109C13.467 38.997 16.7423 39.8333 20.0752 39.8345H20.0837C31.06 39.8345 39.9953 30.902 40 19.9247C40.0019 14.6047 37.9319 9.60203 34.1719 5.83875C30.4114 2.07594 25.4114 0.0021875 20.0837 0C9.10562 0 0.171563 8.93125 0.167188 19.9088ZM6.45484 29.3425L6.06062 28.7167C4.40344 26.0817 3.52875 23.0367 3.53 19.91C3.53344 10.7858 10.9591 3.3625 20.09 3.3625C24.5119 3.36438 28.6675 5.08813 31.7931 8.21563C34.9186 11.3434 36.6384 15.5013 36.6373 19.9234C36.6333 29.0477 29.2075 36.4719 20.0837 36.4719H20.0772C17.1064 36.4703 14.1928 35.6725 11.6519 34.1648L11.0472 33.8063L4.78188 35.4489L6.45484 29.3425Z" fill="url(#paint1_linear_503_1944)"/>
<path d="M15.1051 11.5856C14.7323 10.757 14.3399 10.7403 13.9854 10.7258C13.6951 10.7133 13.3632 10.7142 13.0316 10.7142C12.6998 10.7142 12.1605 10.8391 11.7048 11.3367C11.2485 11.8348 9.96289 13.0386 9.96289 15.4869C9.96289 17.9352 11.7462 20.3014 11.9948 20.6337C12.2437 20.9655 15.4374 26.1505 20.4955 28.1452C24.6993 29.8028 25.5548 29.4731 26.4671 29.39C27.3796 29.3072 29.4115 28.1866 29.826 27.0245C30.2409 25.8627 30.2409 24.8667 30.1165 24.6586C29.9921 24.4513 29.6602 24.3267 29.1626 24.078C28.6649 23.8292 26.2182 22.6252 25.7621 22.4591C25.3059 22.2931 24.9741 22.2103 24.6423 22.7086C24.3104 23.2061 23.3574 24.3267 23.067 24.6586C22.7768 24.9913 22.4863 25.0327 21.9888 24.7837C21.4909 24.5341 19.8882 24.0092 17.9868 22.3141C16.5074 20.995 15.5087 19.3661 15.2184 18.8678C14.928 18.3703 15.1873 18.1006 15.4368 17.8527C15.6604 17.6297 15.9346 17.2716 16.1837 16.9811C16.4318 16.6905 16.5146 16.4831 16.6805 16.1512C16.8466 15.8191 16.7635 15.5284 16.6393 15.2795C16.5146 15.0306 15.5476 12.5695 15.1051 11.5856Z" fill="white"/>
<defs>
<linearGradient id="paint0_linear_503_1944" x1="1931.42" y1="3879.52" x2="1931.42" y2="0.695625" gradientUnits="userSpaceOnUse">
<stop stop-color="#1FAF38"/>
<stop offset="1" stop-color="#60D669"/>
</linearGradient>
<linearGradient id="paint1_linear_503_1944" x1="2000" y1="4017.92" x2="2000" y2="0" gradientUnits="userSpaceOnUse">
<stop stop-color="#F9F9F9"/>
<stop offset="1" stop-color="white"/>
</linearGradient>
</defs>
</svg>
