<svg width="25" height="24" viewBox="0 0 25 24" fill="none" xmlns="http://www.w3.org/2000/svg">
<path d="M19.3333 3C19.8637 3 20.3724 3.21071 20.7475 3.58579C21.1225 3.96086 21.3333 4.46957 21.3333 5V19C21.3333 19.5304 21.1225 20.0391 20.7475 20.4142C20.3724 20.7893 19.8637 21 19.3333 21H5.33325C4.80282 21 4.29411 20.7893 3.91904 20.4142C3.54397 20.0391 3.33325 19.5304 3.33325 19V5C3.33325 4.46957 3.54397 3.96086 3.91904 3.58579C4.29411 3.21071 4.80282 3 5.33325 3H19.3333ZM18.8333 18.5V13.2C18.8333 12.3354 18.4898 11.5062 17.8784 10.8948C17.2671 10.2835 16.4379 9.94 15.5733 9.94C14.7233 9.94 13.7333 10.46 13.2533 11.24V10.13H10.4633V18.5H13.2533V13.57C13.2533 12.8 13.8733 12.17 14.6433 12.17C15.0146 12.17 15.3707 12.3175 15.6332 12.5801C15.8958 12.8426 16.0433 13.1987 16.0433 13.57V18.5H18.8333ZM7.21325 8.56C7.65882 8.56 8.08613 8.383 8.40119 8.06794C8.71625 7.75288 8.89325 7.32556 8.89325 6.88C8.89325 5.95 8.14325 5.19 7.21325 5.19C6.76504 5.19 6.33518 5.36805 6.01824 5.68499C5.7013 6.00193 5.52325 6.43178 5.52325 6.88C5.52325 7.81 6.28325 8.56 7.21325 8.56ZM8.60325 18.5V10.13H5.83325V18.5H8.60325Z" fill="white"/>
</svg>
