<svg width="25" height="24" viewBox="0 0 25 24" fill="none" xmlns="http://www.w3.org/2000/svg">
<g clip-path="url(#clip0_884_2633)">
<path d="M5.26079 4.9839C5.44184 4.96286 5.62521 4.99171 5.79105 5.06732C5.9569 5.14293 6.09893 5.26243 6.20179 5.4129C7.67779 7.5719 9.44979 8.4699 11.4168 8.6739C11.5128 7.8329 11.7398 7.0019 12.1668 6.2699C12.7928 5.1959 13.8108 4.4059 15.2648 4.1139C17.2748 3.7099 18.8048 4.4379 19.6918 5.3289L21.4838 4.9939C21.6713 4.95877 21.865 4.97801 22.0419 5.04935C22.2189 5.1207 22.3717 5.24117 22.4824 5.39655C22.5931 5.55193 22.657 5.73574 22.6667 5.92628C22.6763 6.11682 22.6313 6.30614 22.5368 6.4719L20.8168 9.4939C20.9738 13.8549 19.7618 16.8989 17.1778 18.9959C15.8078 20.1079 13.8458 20.7389 11.6928 20.9339C9.52279 21.1299 7.06979 20.8929 4.63179 20.1809C4.42348 20.1201 4.24059 19.9933 4.11072 19.8194C3.98084 19.6456 3.91103 19.4343 3.91182 19.2173C3.91261 19.0003 3.98396 18.7894 4.1151 18.6166C4.24624 18.4437 4.43005 18.3181 4.63879 18.2589C5.86479 17.9099 6.79879 17.6089 7.64179 17.0819C6.44279 16.4459 5.55979 15.6139 4.93479 14.6659C4.06679 13.3479 3.74479 11.8779 3.68079 10.5529C3.61679 9.2279 3.80779 7.9999 4.00979 7.1149C4.12479 6.6099 4.25879 6.1039 4.44379 5.6199C4.50905 5.44929 4.61979 5.29982 4.76399 5.1877C4.9082 5.07558 5.07936 5.0051 5.26079 4.9839Z" fill="white"/>
</g>
<defs>
<clipPath id="clip0_884_2633">
<rect width="24" height="24" fill="white" transform="translate(0.666748)"/>
</clipPath>
</defs>
</svg>
